<?xml version="1.0" encoding="UTF-8" standalone="no"?><!-- Generator: Gravit.io --><svg xmlns="http://www.w3.org/2000/svg" xmlns:xlink="http://www.w3.org/1999/xlink" style="isolation:isolate" viewBox="328.804 0.005 146.59 91.614" width="146.59pt" height="91.614pt"><g><path d=" M 475.394 86.733 C 475.394 89.435 473.206 91.619 470.509 91.619 L 333.689 91.619 C 330.992 91.619 328.804 89.435 328.804 86.733 L 328.804 4.885 C 328.804 2.19 330.992 0.005 333.689 0.005 L 470.509 0.005 C 473.206 0.005 475.394 2.19 475.394 4.885 L 475.394 86.733 L 475.394 86.733 Z " fill="rgb(0,114,165)"/><g><path d=" M 374.289 43.682 L 374.289 42.214 L 373.585 43.682 L 367.516 43.682 L 366.751 42.104 L 366.751 43.682 L 355.41 43.682 L 354.068 40.505 L 351.795 40.505 L 350.374 43.682 L 344.491 43.682 L 344.491 34.101 L 348.805 24.344 L 357.062 24.344 L 358.222 27.107 L 358.222 24.366 L 368.32 24.366 L 370.537 29.019 L 372.713 24.343 L 404.584 24.343 C 404.584 24.343 406.256 24.321 407.357 25.094 L 407.35 24.343 L 415.378 24.343 L 415.378 25.4 C 415.378 25.4 416.825 24.343 418.959 24.343 C 421.092 24.343 433.13 24.343 433.13 24.343 L 434.373 27.149 L 434.373 24.343 L 443.453 24.343 L 445.103 27.149 L 445.103 24.343 L 453.783 24.343 L 453.783 43.697 L 444.865 43.697 L 442.767 40.323 L 442.767 43.681 L 431.684 43.681 L 430.126 40.221 L 427.952 40.221 L 426.488 43.681 L 419.78 43.681 C 419.78 43.681 417.278 43.647 415.406 42.305 C 415.406 43.006 415.406 43.681 415.406 43.681 L 402.046 43.681 C 402.046 43.681 402.046 39.819 402.046 39.162 C 402.046 38.505 401.547 38.553 401.547 38.553 L 401.057 38.553 L 401.057 43.681 L 374.289 43.681 L 374.289 43.682 Z " fill="rgb(255,255,255)"/><path d=" M 367.624 47.869 L 385.172 47.869 L 387.703 50.738 L 390.295 47.869 L 403.788 47.869 C 403.788 47.869 405.054 47.903 406.256 48.539 L 406.256 47.869 C 406.256 47.869 416.745 47.869 418.275 47.869 C 419.798 47.869 421.078 48.632 421.078 48.632 L 421.078 47.869 L 436.52 47.869 L 436.52 48.573 C 436.52 48.573 437.624 47.869 439.105 47.869 C 440.58 47.869 449.163 47.869 449.163 47.869 L 449.163 48.573 C 449.163 48.573 450.434 47.869 451.77 47.869 C 453.112 47.869 459.669 47.869 459.669 47.869 L 459.669 66.103 C 459.669 66.103 458.631 67.279 456.481 67.279 L 446.071 67.279 L 446.071 66.699 C 446.071 66.699 445.077 67.279 443.564 67.279 C 442.055 67.279 415.897 67.279 415.897 67.279 C 415.897 67.279 415.897 63.032 415.897 62.567 C 415.897 62.104 415.7 62.018 415.284 62.018 L 414.904 62.018 L 414.904 67.279 L 406.256 67.279 L 406.256 62.052 C 406.256 62.052 405.296 62.567 403.698 62.567 C 402.097 62.567 400.584 62.567 400.584 62.567 L 400.584 67.279 L 389.93 67.279 L 387.504 64.323 L 384.912 67.279 L 367.623 67.279 L 367.623 47.869 L 367.624 47.869 Z " fill="rgb(255,255,255)"/><path d=" M 422.931 50.781 L 433.945 50.781 L 433.945 53.732 L 426.301 53.732 L 426.301 56.309 L 433.729 56.309 L 433.729 58.91 L 426.301 58.91 L 426.301 61.619 L 433.945 61.619 L 433.945 64.501 L 422.931 64.501 L 422.931 50.781 Z " fill="rgb(0,114,165)"/><path d=" M 455.22 56.129 C 459.359 56.336 459.707 58.406 459.707 60.611 C 459.707 63.18 457.596 64.561 455.391 64.561 L 448.309 64.561 L 448.309 61.619 L 453.824 61.619 C 454.762 61.619 456.151 61.619 456.151 60.304 C 456.151 59.676 455.908 59.279 454.912 59.171 C 454.47 59.108 452.835 59.016 452.586 59.011 C 448.845 58.916 447.973 57.053 447.973 54.789 C 447.973 52.22 449.781 50.81 451.991 50.81 L 459.063 50.81 L 459.063 53.749 L 453.885 53.749 C 452.707 53.761 451.438 53.614 451.438 54.94 C 451.438 55.782 452.067 55.952 452.863 56.029 C 453.134 56.03 454.977 56.129 455.22 56.129 Z " fill="rgb(0,114,165)"/><path d=" M 442.537 56.129 C 446.676 56.336 447.026 58.406 447.026 60.611 C 447.026 63.18 444.915 64.561 442.706 64.561 L 435.634 64.561 L 435.634 61.619 L 441.144 61.619 C 442.079 61.619 443.475 61.619 443.475 60.304 C 443.475 59.676 443.228 59.279 442.232 59.171 C 441.789 59.108 440.146 59.016 439.908 59.011 C 436.165 58.916 435.3 57.053 435.3 54.789 C 435.3 52.22 437.105 50.81 439.31 50.81 L 446.382 50.81 L 446.382 53.749 L 441.209 53.749 C 440.027 53.761 438.757 53.614 438.757 54.94 C 438.757 55.782 439.387 55.952 440.182 56.029 C 440.458 56.03 442.292 56.129 442.537 56.129 Z " fill="rgb(0,114,165)"/><path d=" M 402.598 50.806 L 390.776 50.806 L 386.914 55.066 L 383.18 50.782 L 369.9 50.782 L 369.9 64.502 L 382.748 64.502 L 386.788 59.968 L 390.742 64.531 L 397.208 64.531 L 397.208 59.874 L 401.737 59.874 C 403.484 59.874 406.667 59.817 406.667 55.005 C 406.667 51.576 404.25 50.806 402.598 50.806 Z  M 380.99 61.619 L 373.221 61.619 L 373.221 58.91 L 380.653 58.91 L 380.653 56.308 L 373.221 56.308 L 373.221 53.732 L 381.414 53.75 L 384.692 57.484 L 380.99 61.619 L 380.99 61.619 Z  M 393.865 63.213 L 389.029 57.484 L 393.865 52.125 L 393.865 63.213 L 393.865 63.213 Z  M 401.46 57.046 L 397.268 57.046 L 397.268 53.75 L 401.476 53.75 C 402.886 53.75 403.329 54.656 403.329 55.331 C 403.329 56.248 402.84 57.046 401.46 57.046 Z " fill="rgb(0,114,165)"/><path d=" M 418.87 58.28 C 420.706 57.363 421.196 56.14 421.196 54.483 C 421.196 51.545 418.806 50.81 417.152 50.81 L 408.393 50.81 L 408.393 64.529 L 411.765 64.529 L 411.765 59.689 L 416.176 59.689 C 417.336 59.689 417.794 60.854 417.826 62.018 L 417.916 64.529 L 421.195 64.529 L 421.074 61.715 C 421.075 59.506 420.463 58.467 418.87 58.28 Z  M 415.96 56.864 L 411.765 56.864 L 411.765 53.75 L 415.971 53.75 C 417.383 53.75 417.826 54.656 417.826 55.331 C 417.827 56.248 417.336 56.864 415.96 56.864 Z " fill="rgb(0,114,165)"/><rect x="409.743" y="27.096" width="3.367" height="13.73" transform="matrix(1,0,0,1,0,0)" fill="rgb(0,114,165)"/><path d=" M 382.167 27.107 L 393.179 27.107 L 393.179 30.063 L 385.538 30.063 L 385.538 32.637 L 392.963 32.637 L 392.963 35.24 L 385.538 35.24 L 385.538 37.951 L 393.179 37.951 L 393.179 40.826 L 382.167 40.826 L 382.167 27.107 Z " fill="rgb(0,114,165)"/><path d=" M 405.651 34.577 C 407.495 33.664 407.98 32.434 407.98 30.78 C 407.98 27.837 405.592 27.107 403.938 27.107 L 395.175 27.107 L 395.175 40.826 L 398.544 40.826 L 398.544 35.991 L 402.957 35.991 C 404.117 35.991 404.583 37.155 404.609 38.317 L 404.704 40.826 L 407.979 40.826 L 407.858 38.012 C 407.859 35.805 407.247 34.764 405.651 34.577 Z  M 402.742 33.156 L 398.545 33.156 L 398.545 30.047 L 402.756 30.047 C 404.163 30.047 404.61 30.953 404.61 31.628 C 404.61 32.545 404.118 33.156 402.742 33.156 Z " fill="rgb(0,114,165)"/><path d=" M 374.394 27.107 L 370.264 36.311 L 366.144 27.107 L 360.861 27.107 L 360.861 40.323 L 354.982 27.107 L 350.525 27.107 L 344.522 40.826 L 348.077 40.826 L 349.388 37.764 L 356.117 37.764 L 357.45 40.826 L 364.227 40.826 L 364.227 30.643 L 368.735 40.827 L 371.797 40.827 L 376.405 30.814 L 376.405 40.827 L 379.775 40.827 L 379.775 27.107 L 374.394 27.107 L 374.394 27.107 Z  M 350.664 34.804 L 352.67 30.012 L 354.768 34.804 L 350.664 34.804 L 350.664 34.804 Z " fill="rgb(0,114,165)"/><path d=" M 447.874 27.103 L 447.874 36.601 L 442.197 27.103 L 437.216 27.103 L 437.216 39.99 L 431.475 27.107 L 427.022 27.107 L 422.379 37.738 C 422.379 37.738 420.419 37.738 420.221 37.688 C 419.411 37.517 418.142 36.949 418.121 34.527 L 418.121 33.534 C 418.121 30.317 419.87 30.083 422.109 30.083 L 424.19 30.083 L 424.19 27.103 L 419.789 27.103 C 418.258 27.103 414.927 28.272 414.814 33.908 C 414.733 37.705 416.394 40.839 420.126 40.839 L 424.568 40.839 L 425.883 37.773 L 432.607 37.773 L 433.942 40.839 L 440.589 40.839 L 440.589 30.787 L 446.651 40.838 L 451.248 40.838 L 451.248 27.103 L 447.874 27.103 L 447.874 27.103 Z  M 427.182 34.813 L 429.188 30.013 L 431.303 34.813 L 427.182 34.813 L 427.182 34.813 Z " fill="rgb(0,114,165)"/></g></g></svg>