<?xml version="1.0" encoding="UTF-8" standalone="no"?><!-- Generator: Gravit.io --><svg xmlns="http://www.w3.org/2000/svg" xmlns:xlink="http://www.w3.org/1999/xlink" style="isolation:isolate" viewBox="657.611 0 146.59 91.619" width="146.59pt" height="91.619pt"><g><path d=" M 804.201 86.733 C 804.201 89.431 802.011 91.619 799.313 91.619 L 662.493 91.619 C 659.796 91.619 657.611 89.431 657.611 86.733 L 657.611 4.89 C 657.611 2.188 659.796 0 662.493 0 L 799.313 0 C 802.01 0 804.201 2.188 804.201 4.89 L 804.201 86.733 L 804.201 86.733 Z " fill="rgb(8,77,149)"/><path d=" M 734.413 49.974 C 742.694 50.01 750.257 43.219 750.257 34.953 C 750.257 25.919 742.694 19.667 734.413 19.676 L 727.277 19.676 C 718.896 19.667 712.004 25.919 712.004 34.953 C 712.004 43.224 718.897 50.011 727.277 49.974 L 734.413 49.974 L 734.413 49.974 Z " fill="rgb(255,255,255)"/><path d=" M 730.46 43.003 L 730.46 26.592 C 733.755 27.853 736.103 31.048 736.106 34.793 C 736.103 38.543 733.755 41.737 730.46 43.003 Z  M 718.523 34.793 C 718.532 31.053 720.87 27.862 724.166 26.592 L 724.166 42.998 C 720.87 41.729 718.532 38.538 718.523 34.793 Z  M 727.318 20.923 C 719.656 20.925 713.447 27.134 713.447 34.793 C 713.447 42.457 719.656 48.661 727.318 48.661 C 734.974 48.661 741.183 42.457 741.188 34.793 C 741.183 27.134 734.974 20.925 727.318 20.923 Z " fill="rgb(8,77,149)"/><g><path d=" M 696.506 60.314 C 696.506 61.55 697.382 61.688 698.169 61.688 C 701.636 61.688 702.769 59.081 702.769 56.693 C 702.769 53.699 700.849 51.539 697.751 51.539 C 697.095 51.539 696.793 51.584 696.506 51.602 L 696.506 60.314 L 696.506 60.314 Z  M 694.937 52.8 C 694.937 51.357 694.181 51.455 693.462 51.436 L 693.462 51.022 C 694.087 51.053 694.73 51.053 695.35 51.053 C 696.025 51.053 696.933 51.022 698.124 51.022 C 702.273 51.022 704.531 53.793 704.531 56.628 C 704.531 58.215 703.6 62.208 697.93 62.208 C 697.112 62.208 696.366 62.174 695.606 62.174 C 694.886 62.174 694.18 62.188 693.461 62.208 L 693.461 61.787 C 694.418 61.688 694.886 61.661 694.936 60.568 L 694.936 52.8 L 694.937 52.8 Z " fill="rgb(255,255,255)"/><path d=" M 706.806 52.418 C 706.393 52.418 706.02 52.031 706.02 51.617 C 706.02 51.213 706.411 50.844 706.806 50.844 C 707.224 50.844 707.588 51.182 707.588 51.617 C 707.588 52.047 707.238 52.418 706.806 52.418 Z  M 705.098 61.787 L 705.395 61.787 C 705.849 61.787 706.167 61.787 706.167 61.259 L 706.167 56.916 C 706.167 56.212 705.925 56.115 705.331 55.799 L 705.331 55.54 C 706.082 55.317 706.981 55.014 707.044 54.965 C 707.156 54.9 707.256 54.881 707.327 54.881 C 707.413 54.881 707.444 54.981 707.444 55.109 L 707.444 61.259 C 707.444 61.787 707.799 61.787 708.245 61.787 L 708.518 61.787 L 708.518 62.208 C 707.974 62.208 707.413 62.174 706.841 62.174 C 706.257 62.174 705.681 62.188 705.097 62.208 L 705.097 61.787 L 705.098 61.787 Z " fill="rgb(255,255,255)"/><path d=" M 710.043 57.015 C 710.043 56.419 709.863 56.26 709.117 55.958 L 709.117 55.65 C 709.8 55.427 710.461 55.222 711.225 54.88 C 711.275 54.88 711.324 54.919 711.324 55.042 L 711.324 56.085 C 712.237 55.427 713.019 54.88 714.098 54.88 C 715.455 54.88 715.932 55.876 715.932 57.124 L 715.932 61.258 C 715.932 61.786 716.287 61.786 716.742 61.786 L 717.03 61.786 L 717.03 62.207 C 716.464 62.207 715.906 62.173 715.33 62.173 C 714.755 62.173 714.175 62.187 713.603 62.207 L 713.603 61.786 L 713.886 61.786 C 714.331 61.786 714.656 61.786 714.656 61.258 L 714.656 57.112 C 714.656 56.195 714.098 55.743 713.181 55.743 C 712.672 55.743 711.855 56.164 711.324 56.516 L 711.324 61.257 C 711.324 61.785 711.679 61.785 712.129 61.785 L 712.412 61.785 L 712.412 62.206 C 711.855 62.206 711.293 62.172 710.713 62.172 C 710.138 62.172 709.562 62.186 708.983 62.206 L 708.983 61.785 L 709.279 61.785 C 709.72 61.785 710.044 61.785 710.044 61.257 L 710.044 57.015 L 710.043 57.015 Z " fill="rgb(255,255,255)"/><path d=" M 721.082 57.273 C 721.482 57.273 721.527 57.059 721.527 56.871 C 721.527 56.053 721.032 55.396 720.132 55.396 C 719.161 55.396 718.486 56.115 718.293 57.273 L 721.082 57.273 L 721.082 57.273 Z  M 718.245 57.783 C 718.218 57.928 718.218 58.163 718.245 58.712 C 718.344 60.236 719.319 61.484 720.6 61.484 C 721.482 61.484 722.174 60.998 722.763 60.411 L 722.988 60.634 C 722.255 61.613 721.338 62.442 720.025 62.442 C 717.475 62.442 716.967 59.976 716.967 58.953 C 716.967 55.81 719.075 54.882 720.196 54.882 C 721.5 54.882 722.889 55.7 722.912 57.398 C 722.912 57.498 722.912 57.591 722.89 57.686 L 722.75 57.785 L 718.245 57.785 L 718.245 57.783 Z " fill="rgb(255,255,255)"/><path d=" M 723.276 61.787 L 723.708 61.787 C 724.152 61.787 724.477 61.787 724.477 61.259 L 724.477 56.756 C 724.477 56.26 723.883 56.165 723.641 56.032 L 723.641 55.799 C 724.814 55.297 725.457 54.881 725.601 54.881 C 725.691 54.881 725.745 54.931 725.745 55.093 L 725.745 56.533 L 725.776 56.533 C 726.176 55.908 726.851 54.881 727.831 54.881 C 728.227 54.881 728.739 55.153 728.739 55.729 C 728.739 56.166 728.433 56.55 727.984 56.55 C 727.49 56.55 727.49 56.165 726.922 56.165 C 726.657 56.165 725.758 56.533 725.758 57.496 L 725.758 61.259 C 725.758 61.787 726.077 61.787 726.531 61.787 L 727.426 61.787 L 727.426 62.208 C 726.545 62.187 725.87 62.174 725.178 62.174 C 724.522 62.174 723.852 62.188 723.277 62.208 L 723.277 61.787 L 723.276 61.787 Z " fill="rgb(255,255,255)"/><path d=" M 729.44 59.976 C 729.656 61.033 730.29 61.932 731.462 61.932 C 732.406 61.932 732.757 61.354 732.757 60.794 C 732.757 58.903 729.269 59.513 729.269 56.936 C 729.269 56.033 729.988 54.881 731.75 54.881 C 732.263 54.881 732.95 55.029 733.575 55.347 L 733.692 56.982 L 733.323 56.982 C 733.162 55.972 732.595 55.397 731.57 55.397 C 730.931 55.397 730.325 55.765 730.325 56.454 C 730.325 58.331 734.043 57.751 734.043 60.265 C 734.043 61.326 733.193 62.443 731.287 62.443 C 730.644 62.443 729.889 62.22 729.336 61.906 L 729.156 60.06 L 729.44 59.976 L 729.44 59.976 Z " fill="rgb(255,255,255)"/><path d=" M 748.512 53.922 L 748.107 53.922 C 747.801 52.047 746.475 51.296 744.677 51.296 C 742.837 51.296 740.158 52.527 740.158 56.369 C 740.158 59.606 742.469 61.932 744.932 61.932 C 746.519 61.932 747.836 60.843 748.156 59.16 L 748.529 59.255 L 748.156 61.597 C 747.481 62.016 745.67 62.443 744.613 62.443 C 740.863 62.443 738.499 60.029 738.499 56.421 C 738.499 53.139 741.426 50.783 744.563 50.783 C 745.863 50.783 747.113 51.203 748.349 51.631 L 748.512 53.922 L 748.512 53.922 Z " fill="rgb(255,255,255)"/><path d=" M 749.087 61.787 L 749.388 61.787 C 749.842 61.787 750.158 61.787 750.158 61.259 L 750.158 52.334 C 750.158 51.296 749.92 51.265 749.312 51.084 L 749.312 50.833 C 749.951 50.621 750.625 50.334 750.962 50.141 C 751.133 50.046 751.263 49.965 751.317 49.965 C 751.407 49.965 751.438 50.064 751.438 50.19 L 751.438 61.259 C 751.438 61.787 751.793 61.787 752.243 61.787 L 752.513 61.787 L 752.513 62.208 C 751.969 62.208 751.408 62.174 750.831 62.174 C 750.256 62.174 749.681 62.188 749.087 62.208 L 749.087 61.787 L 749.087 61.787 Z " fill="rgb(255,255,255)"/><path d=" M 759.375 61.324 C 759.375 61.612 759.546 61.628 759.82 61.628 C 760.008 61.628 760.252 61.612 760.463 61.612 L 760.463 61.944 C 759.775 62.014 758.458 62.346 758.152 62.441 L 758.071 62.396 L 758.071 61.101 C 757.108 61.883 756.371 62.441 755.234 62.441 C 754.366 62.441 753.475 61.883 753.475 60.54 L 753.475 56.439 C 753.475 56.021 753.412 55.616 752.513 55.54 L 752.513 55.236 C 753.089 55.222 754.366 55.124 754.576 55.124 C 754.761 55.124 754.761 55.236 754.761 55.585 L 754.761 59.722 C 754.761 60.202 754.761 61.578 756.151 61.578 C 756.695 61.578 757.415 61.165 758.089 60.6 L 758.089 56.29 C 758.089 55.971 757.324 55.798 756.749 55.634 L 756.749 55.346 C 758.187 55.251 759.078 55.123 759.244 55.123 C 759.375 55.123 759.375 55.235 759.375 55.415 L 759.375 61.324 L 759.375 61.324 Z " fill="rgb(255,255,255)"/><path d=" M 762.557 60.396 C 762.557 60.999 763.133 62.031 764.207 62.031 C 765.925 62.031 766.64 60.347 766.64 58.918 C 766.64 57.191 765.327 55.745 764.086 55.745 C 763.488 55.745 762.988 56.132 762.557 56.503 L 762.557 60.396 L 762.557 60.396 Z  M 762.557 56.032 C 763.201 55.49 764.068 54.881 764.941 54.881 C 766.802 54.881 767.921 56.502 767.921 58.247 C 767.921 60.347 766.388 62.441 764.095 62.441 C 762.908 62.441 762.287 62.059 761.869 61.883 L 761.388 62.252 L 761.051 62.076 C 761.195 61.13 761.28 60.201 761.28 59.223 L 761.28 52.332 C 761.28 51.294 761.037 51.263 760.426 51.082 L 760.426 50.831 C 761.07 50.619 761.739 50.332 762.08 50.139 C 762.251 50.044 762.382 49.963 762.432 49.963 C 762.531 49.963 762.557 50.062 762.557 50.188 L 762.557 56.032 L 762.557 56.032 Z " fill="rgb(255,255,255)"/><path d=" M 693.444 71.52 L 693.561 71.52 C 693.875 71.52 694.208 71.479 694.208 71.023 L 694.208 66.458 C 694.208 66.006 693.875 65.956 693.561 65.956 L 693.444 65.956 L 693.444 65.7 C 693.786 65.7 694.307 65.733 694.735 65.733 C 695.171 65.733 695.692 65.7 696.097 65.7 L 696.097 65.956 L 695.98 65.956 C 695.666 65.956 695.333 66.006 695.333 66.458 L 695.333 71.023 C 695.333 71.479 695.666 71.52 695.98 71.52 L 696.097 71.52 L 696.097 71.783 C 695.683 71.783 695.161 71.747 694.721 71.747 C 694.298 71.747 693.785 71.783 693.444 71.783 L 693.444 71.52 L 693.444 71.52 Z " fill="rgb(255,255,255)"/><path d=" M 696.065 71.744 L 696.065 71.557 L 695.98 71.557 C 695.674 71.557 695.301 71.505 695.296 71.022 L 695.296 66.457 C 695.301 65.976 695.674 65.922 695.98 65.922 L 696.065 65.922 L 696.065 65.733 C 695.666 65.733 695.162 65.771 694.735 65.771 C 694.316 65.771 693.817 65.735 693.485 65.733 L 693.485 65.922 L 693.561 65.922 C 693.875 65.922 694.245 65.976 694.245 66.457 L 694.245 71.022 C 694.245 71.505 693.876 71.557 693.561 71.557 L 693.485 71.557 L 693.485 71.744 C 693.817 71.739 694.316 71.708 694.721 71.708 C 695.148 71.708 695.656 71.744 696.065 71.744 Z  M 696.097 71.818 C 695.678 71.818 695.161 71.784 694.721 71.784 C 694.298 71.784 693.785 71.818 693.444 71.818 L 693.408 71.818 L 693.408 71.782 L 693.408 71.52 L 693.408 71.48 L 693.444 71.48 L 693.561 71.48 C 693.884 71.478 694.167 71.447 694.172 71.022 L 694.172 66.457 C 694.167 66.031 693.884 66.005 693.561 65.998 L 693.408 65.998 L 693.408 65.955 L 693.408 65.66 L 693.444 65.66 C 693.786 65.66 694.307 65.689 694.735 65.689 C 695.171 65.689 695.692 65.66 696.097 65.66 L 696.137 65.66 L 696.137 65.699 L 696.137 65.998 L 696.097 65.998 L 695.98 65.998 C 695.666 66.005 695.377 66.031 695.377 66.457 L 695.377 71.022 C 695.377 71.447 695.665 71.478 695.98 71.48 L 696.137 71.48 L 696.137 71.519 L 696.137 71.818 L 696.097 71.818 L 696.097 71.818 Z " fill="rgb(255,255,255)"/><path d=" M 702.094 70.064 L 702.108 70.043 L 702.108 66.777 C 702.108 66.059 701.614 65.954 701.348 65.954 L 701.16 65.954 L 701.16 65.698 C 701.569 65.698 701.969 65.731 702.383 65.731 C 702.738 65.731 703.093 65.698 703.448 65.698 L 703.448 65.954 L 703.318 65.954 C 702.954 65.954 702.545 66.026 702.545 67.064 L 702.545 71.03 C 702.545 71.336 702.554 71.639 702.599 71.914 L 702.266 71.914 L 697.779 66.905 L 697.779 70.5 C 697.779 71.262 697.924 71.519 698.597 71.519 L 698.742 71.519 L 698.742 71.782 C 698.373 71.782 697.995 71.746 697.618 71.746 C 697.231 71.746 696.826 71.782 696.43 71.782 L 696.43 71.52 L 696.556 71.52 C 697.159 71.52 697.338 71.111 697.338 70.414 L 697.338 66.745 C 697.338 66.255 696.934 65.956 696.547 65.956 L 696.43 65.956 L 696.43 65.7 C 696.763 65.7 697.105 65.733 697.428 65.733 C 697.699 65.733 697.949 65.7 698.21 65.7 L 702.094 70.064 L 702.094 70.064 Z " fill="rgb(255,255,255)"/><path d=" M 702.072 70.044 L 702.072 70.042 L 702.068 70.033 L 702.072 70.044 L 702.072 70.044 Z  M 702.094 70.064 L 702.113 70.037 L 702.094 70.064 L 702.094 70.064 Z  M 702.265 71.877 L 702.557 71.877 C 702.512 71.611 702.508 71.323 702.508 71.031 L 702.508 67.063 C 702.508 66.02 702.944 65.921 703.318 65.921 L 703.417 65.921 L 703.417 65.732 C 703.07 65.734 702.725 65.77 702.383 65.77 C 701.979 65.77 701.592 65.734 701.195 65.732 L 701.195 65.921 L 701.348 65.921 C 701.614 65.921 702.149 66.037 702.149 66.777 L 702.139 70.075 L 702.113 70.091 L 702.086 70.12 L 698.21 65.731 C 697.949 65.731 697.698 65.769 697.428 65.769 C 697.114 65.769 696.79 65.733 696.475 65.731 L 696.475 65.92 L 696.547 65.92 C 696.956 65.92 697.379 66.23 697.379 66.742 L 697.379 70.411 C 697.379 71.108 697.186 71.556 696.556 71.559 L 696.475 71.555 L 696.475 71.742 C 696.848 71.737 697.24 71.706 697.618 71.706 C 697.982 71.706 698.347 71.737 698.706 71.742 L 698.706 71.559 L 698.598 71.559 C 697.915 71.555 697.74 71.26 697.74 70.498 L 697.74 66.81 L 702.265 71.877 L 702.265 71.877 Z  M 702.598 71.948 L 702.239 71.937 L 697.814 67.004 L 697.814 70.5 C 697.824 71.262 697.94 71.474 698.596 71.479 L 698.777 71.479 L 698.777 71.518 L 698.777 71.817 L 698.741 71.817 C 698.368 71.817 697.994 71.783 697.617 71.783 C 697.23 71.783 696.825 71.817 696.429 71.817 L 696.393 71.817 L 696.393 71.781 L 696.393 71.48 L 696.429 71.48 L 696.555 71.48 C 697.13 71.478 697.292 71.11 697.306 70.413 L 697.306 66.744 C 697.306 66.276 696.919 65.998 696.546 65.998 L 696.393 65.998 L 696.393 65.955 L 696.393 65.66 L 696.429 65.66 C 696.767 65.66 697.108 65.689 697.427 65.689 C 697.688 65.689 697.945 65.66 698.241 65.671 L 702.071 69.987 L 702.071 66.777 C 702.067 66.085 701.599 66.004 701.347 65.997 L 701.122 65.997 L 701.122 65.954 L 701.122 65.66 L 701.158 65.66 C 701.567 65.66 701.967 65.689 702.381 65.689 C 702.736 65.689 703.091 65.66 703.446 65.66 L 703.487 65.66 L 703.487 65.699 L 703.487 65.998 L 703.446 65.998 L 703.316 65.998 C 702.956 66.009 702.587 66.038 702.583 67.063 L 702.583 71.031 C 702.583 71.337 702.588 71.64 702.628 71.906 L 702.637 71.948 L 702.598 71.948 L 702.598 71.948 Z " fill="rgb(255,255,255)"/><path d=" M 704.756 66.131 C 704.104 66.131 704.077 66.29 703.946 66.922 L 703.685 66.922 C 703.716 66.679 703.761 66.437 703.793 66.183 C 703.828 65.938 703.838 65.7 703.838 65.446 L 704.049 65.446 C 704.116 65.707 704.341 65.7 704.575 65.7 L 709.071 65.7 C 709.304 65.7 709.529 65.688 709.543 65.426 L 709.75 65.464 C 709.719 65.7 709.683 65.934 709.655 66.17 C 709.637 66.403 709.637 66.64 709.637 66.873 L 709.376 66.968 C 709.357 66.651 709.313 66.132 708.729 66.132 L 707.299 66.132 L 707.299 70.774 C 707.299 71.442 707.609 71.521 708.018 71.521 L 708.189 71.521 L 708.189 71.784 C 707.852 71.784 707.236 71.748 706.768 71.748 C 706.247 71.748 705.635 71.784 705.293 71.784 L 705.293 71.52 L 705.46 71.52 C 705.94 71.52 706.184 71.479 706.184 70.789 L 706.184 66.132 L 704.756 66.132 L 704.756 66.131 Z " fill="rgb(255,255,255)"/><path d=" M 708.191 71.818 C 707.854 71.818 707.238 71.784 706.77 71.784 C 706.249 71.784 705.637 71.818 705.295 71.818 L 705.259 71.818 L 705.259 71.782 L 705.259 71.48 L 705.295 71.48 L 705.462 71.48 C 705.942 71.474 706.136 71.462 706.15 70.788 L 706.15 66.171 L 704.756 66.171 L 704.756 66.131 L 704.756 66.097 L 706.222 66.097 L 706.222 70.788 C 706.222 71.49 705.943 71.558 705.462 71.561 L 705.336 71.561 L 705.336 71.744 C 705.682 71.739 706.267 71.708 706.77 71.708 C 707.229 71.708 707.814 71.739 708.155 71.744 L 708.155 71.561 L 708.02 71.561 C 707.602 71.557 707.265 71.456 707.265 70.772 L 707.265 66.096 L 708.731 66.096 C 709.315 66.096 709.392 66.595 709.41 66.914 L 709.603 66.845 C 709.603 66.622 709.603 66.391 709.621 66.163 C 709.64 65.936 709.676 65.716 709.711 65.493 L 709.576 65.473 C 709.536 65.722 709.289 65.738 709.073 65.731 L 704.577 65.731 L 704.532 65.731 C 704.329 65.731 704.1 65.722 704.019 65.479 L 703.874 65.479 C 703.874 65.722 703.856 65.954 703.829 66.19 C 703.803 66.428 703.762 66.655 703.73 66.886 L 703.915 66.886 C 704.032 66.28 704.103 66.084 704.756 66.095 L 704.756 66.129 L 704.756 66.169 C 704.112 66.181 704.126 66.288 703.983 66.932 L 703.974 66.965 L 703.947 66.965 L 703.633 66.965 L 703.647 66.92 C 703.678 66.675 703.728 66.428 703.751 66.178 C 703.786 65.936 703.805 65.693 703.805 65.444 L 703.805 65.405 L 703.841 65.405 L 704.083 65.405 L 704.088 65.432 C 704.147 65.65 704.308 65.65 704.533 65.659 L 704.578 65.659 L 709.074 65.659 C 709.316 65.65 709.492 65.65 709.506 65.421 L 709.51 65.383 L 709.551 65.39 L 709.798 65.429 L 709.784 65.467 C 709.753 65.698 709.721 65.937 709.694 66.17 C 709.676 66.401 709.676 66.638 709.676 66.871 L 709.676 66.898 L 709.654 66.905 L 709.343 67.019 L 709.338 66.965 C 709.316 66.644 709.289 66.169 708.732 66.169 L 707.342 66.169 L 707.342 70.771 C 707.347 71.428 707.612 71.473 708.021 71.479 L 708.228 71.479 L 708.228 71.518 L 708.228 71.817 L 708.191 71.817 L 708.191 71.818 Z " fill="rgb(255,255,255)"/><path d=" M 710.026 71.52 L 710.161 71.52 C 710.467 71.52 710.8 71.479 710.8 71.023 L 710.8 66.458 C 710.8 66.006 710.467 65.956 710.161 65.956 L 710.026 65.956 L 710.026 65.7 C 710.556 65.7 711.469 65.733 712.202 65.733 C 712.931 65.733 713.839 65.7 714.432 65.7 C 714.418 66.071 714.422 66.65 714.45 67.028 L 714.189 67.1 C 714.144 66.536 714.036 66.086 713.119 66.086 L 711.914 66.086 L 711.914 68.367 L 712.948 68.367 C 713.474 68.367 713.587 68.07 713.64 67.596 L 713.901 67.596 C 713.887 67.938 713.875 68.28 713.875 68.617 C 713.875 68.949 713.888 69.284 713.901 69.608 L 713.64 69.662 C 713.586 69.139 713.559 68.801 712.956 68.801 L 711.913 68.801 L 711.913 70.829 C 711.913 71.397 712.417 71.397 712.975 71.397 C 714.023 71.397 714.481 71.33 714.746 70.336 L 714.988 70.394 C 714.876 70.855 714.768 71.319 714.692 71.782 C 714.134 71.782 713.131 71.746 712.344 71.746 C 711.558 71.746 710.528 71.782 710.025 71.782 L 710.025 71.52 L 710.026 71.52 Z " fill="rgb(255,255,255)"/><path d=" M 714.657 71.744 C 714.738 71.303 714.837 70.865 714.94 70.42 L 714.769 70.379 C 714.508 71.358 714.004 71.441 712.975 71.436 C 712.426 71.436 711.878 71.436 711.878 70.83 L 711.878 68.764 L 712.956 68.764 C 713.563 68.757 713.631 69.126 713.672 69.623 L 713.86 69.58 C 713.838 69.259 713.838 68.939 713.838 68.618 C 713.838 68.287 713.838 67.966 713.86 67.636 L 713.672 67.636 C 713.622 68.09 713.479 68.409 712.947 68.405 L 711.878 68.405 L 711.878 66.045 L 713.118 66.045 C 714.035 66.038 714.18 66.504 714.22 67.052 L 714.405 67.005 C 714.396 66.758 714.383 66.442 714.383 66.151 C 714.383 66.003 714.383 65.859 714.392 65.735 C 713.803 65.737 712.917 65.773 712.203 65.773 C 711.483 65.773 710.602 65.737 710.067 65.735 L 710.067 65.924 L 710.162 65.924 C 710.463 65.924 710.836 65.978 710.836 66.459 L 710.836 71.024 C 710.836 71.507 710.463 71.559 710.162 71.563 L 710.067 71.563 L 710.067 71.746 C 710.58 71.746 711.583 71.71 712.346 71.71 C 713.119 71.708 714.099 71.744 714.657 71.744 Z  M 714.693 71.818 C 714.135 71.818 713.132 71.784 712.345 71.784 C 711.559 71.784 710.529 71.818 710.026 71.818 L 709.994 71.818 L 709.994 71.782 L 709.994 71.52 L 709.994 71.48 L 710.026 71.48 L 710.161 71.48 C 710.467 71.478 710.755 71.447 710.764 71.022 L 710.764 66.457 C 710.755 66.031 710.467 66.005 710.161 65.998 L 709.994 65.998 L 709.994 65.955 L 709.994 65.66 L 710.026 65.66 C 710.556 65.66 711.469 65.689 712.202 65.689 C 712.931 65.689 713.839 65.66 714.432 65.66 L 714.467 65.66 L 714.467 65.699 C 714.463 65.832 714.458 65.986 714.458 66.148 C 714.458 66.447 714.467 66.778 714.485 67.027 L 714.485 67.058 L 714.458 67.065 L 714.152 67.148 L 714.152 67.103 C 714.098 66.54 714.022 66.125 713.118 66.119 L 711.945 66.119 L 711.945 68.324 L 712.947 68.324 C 713.451 68.32 713.541 68.063 713.603 67.594 L 713.603 67.558 L 713.639 67.558 L 713.936 67.558 L 713.932 67.596 C 713.918 67.938 713.91 68.28 713.91 68.617 C 713.91 68.945 713.919 69.28 713.932 69.608 L 713.936 69.644 L 713.905 69.646 L 713.603 69.711 L 713.603 69.666 C 713.54 69.131 713.532 68.843 712.956 68.839 L 711.945 68.839 L 711.945 70.828 C 711.949 71.358 712.412 71.356 712.974 71.358 C 714.022 71.351 714.449 71.301 714.709 70.32 L 714.718 70.291 L 714.754 70.295 L 715.033 70.367 L 715.023 70.405 C 714.911 70.864 714.807 71.325 714.726 71.788 L 714.717 71.817 L 714.693 71.817 L 714.693 71.818 Z " fill="rgb(255,255,255)"/><path d=" M 717.282 68.64 L 717.705 68.64 C 718.577 68.64 719.05 68.314 719.05 67.282 C 719.05 66.509 718.56 66.012 717.778 66.012 C 717.517 66.012 717.405 66.038 717.283 66.043 L 717.283 68.64 L 717.282 68.64 Z  M 716.167 66.623 C 716.167 65.986 715.816 65.955 715.542 65.955 L 715.385 65.955 L 715.385 65.699 C 715.672 65.699 716.203 65.732 716.742 65.732 C 717.268 65.732 717.678 65.699 718.144 65.699 C 719.242 65.699 720.221 65.993 720.221 67.232 C 720.221 68.014 719.696 68.495 719.007 68.767 L 720.495 70.997 C 720.743 71.363 720.914 71.469 721.345 71.518 L 721.345 71.781 C 721.058 71.781 720.779 71.745 720.491 71.745 C 720.22 71.745 719.937 71.781 719.668 71.781 C 718.994 70.899 718.423 69.96 717.856 68.955 L 717.28 68.955 L 717.28 70.825 C 717.28 71.495 717.591 71.518 717.991 71.518 L 718.148 71.518 L 718.148 71.781 C 717.658 71.781 717.155 71.745 716.651 71.745 C 716.228 71.745 715.824 71.781 715.383 71.781 L 715.383 71.52 L 715.54 71.52 C 715.868 71.52 716.165 71.372 716.165 71.049 L 716.165 66.623 L 716.167 66.623 Z " fill="rgb(255,255,255)"/><path d=" M 717.705 68.605 C 718.568 68.596 719.009 68.297 719.018 67.286 C 719.008 66.523 718.537 66.05 717.777 66.05 C 717.544 66.05 717.43 66.071 717.318 66.076 L 717.318 68.605 L 717.705 68.605 L 717.705 68.605 Z  M 717.282 68.68 L 717.242 68.68 L 717.242 66.012 L 717.282 66.009 C 717.399 65.998 717.508 65.976 717.777 65.976 C 718.568 65.976 719.09 66.491 719.09 67.287 C 719.09 68.325 718.587 68.679 717.705 68.681 L 717.282 68.681 L 717.282 68.68 Z  M 717.282 68.92 L 717.885 68.92 L 717.89 68.939 C 718.461 69.939 719.028 70.879 719.67 71.745 C 719.936 71.745 720.214 71.709 720.484 71.709 C 720.767 71.709 721.032 71.74 721.311 71.745 L 721.311 71.554 C 720.897 71.502 720.708 71.381 720.465 71.021 L 718.95 68.747 L 718.99 68.731 C 719.674 68.463 720.181 67.996 720.181 67.234 C 720.181 66.022 719.237 65.741 718.144 65.734 C 717.677 65.734 717.268 65.772 716.742 65.772 C 716.229 65.772 715.713 65.736 715.425 65.734 L 715.425 65.923 L 715.542 65.923 C 715.816 65.923 716.203 65.965 716.203 66.624 L 716.203 71.05 C 716.203 71.399 715.879 71.559 715.542 71.563 L 715.425 71.563 L 715.425 71.746 C 715.843 71.746 716.243 71.71 716.653 71.71 C 717.138 71.71 717.633 71.746 718.11 71.746 L 718.11 71.563 L 717.993 71.563 C 717.593 71.559 717.242 71.514 717.242 70.824 L 717.242 68.92 L 717.282 68.92 L 717.282 68.92 Z  M 721.346 71.818 C 721.05 71.818 720.771 71.784 720.484 71.784 C 720.222 71.784 719.949 71.818 719.638 71.805 C 718.968 70.926 718.397 69.992 717.83 68.994 L 717.317 68.994 L 717.317 70.822 C 717.327 71.478 717.591 71.474 717.992 71.48 L 718.189 71.48 L 718.189 71.519 L 718.189 71.818 L 718.149 71.818 C 717.659 71.818 717.146 71.784 716.652 71.784 C 716.238 71.784 715.825 71.818 715.384 71.818 L 715.348 71.818 L 715.348 71.782 L 715.348 71.48 L 715.384 71.48 L 715.541 71.48 C 715.855 71.478 716.121 71.345 716.125 71.048 L 716.125 66.622 C 716.121 66.004 715.815 66.004 715.541 65.997 L 715.348 65.997 L 715.348 65.954 L 715.348 65.66 L 715.384 65.66 C 715.671 65.66 716.202 65.689 716.741 65.689 C 717.258 65.689 717.677 65.66 718.143 65.66 C 719.241 65.66 720.252 65.964 720.252 67.232 C 720.252 68.016 719.734 68.511 719.064 68.783 L 720.526 70.977 C 720.768 71.336 720.922 71.429 721.343 71.48 L 721.379 71.485 L 721.379 71.519 L 721.379 71.818 L 721.346 71.818 L 721.346 71.818 Z " fill="rgb(255,255,255)"/><path d=" M 727.263 70.064 L 727.277 70.043 L 727.277 66.777 C 727.277 66.059 726.778 65.954 726.517 65.954 L 726.329 65.954 L 726.329 65.698 C 726.733 65.698 727.138 65.731 727.547 65.731 C 727.907 65.731 728.262 65.698 728.622 65.698 L 728.622 65.954 L 728.496 65.954 C 728.127 65.954 727.718 66.026 727.718 67.064 L 727.718 71.03 C 727.718 71.336 727.723 71.639 727.763 71.914 L 727.435 71.914 L 722.949 66.905 L 722.949 70.5 C 722.949 71.262 723.096 71.519 723.766 71.519 L 723.919 71.519 L 723.919 71.782 C 723.541 71.782 723.163 71.746 722.79 71.746 C 722.399 71.746 721.999 71.782 721.608 71.782 L 721.608 71.52 L 721.724 71.52 C 722.327 71.52 722.516 71.111 722.516 70.414 L 722.516 66.745 C 722.516 66.255 722.107 65.956 721.715 65.956 L 721.608 65.956 L 721.608 65.7 C 721.931 65.7 722.273 65.733 722.606 65.733 C 722.867 65.733 723.118 65.7 723.378 65.7 L 727.263 70.064 L 727.263 70.064 Z " fill="rgb(255,255,255)"/><path d=" M 727.237 70.044 L 727.237 70.044 L 727.237 70.037 L 727.237 70.044 L 727.237 70.044 Z  M 727.263 70.064 L 727.29 70.037 L 727.263 70.064 L 727.263 70.064 Z  M 727.434 71.877 L 727.722 71.877 C 727.686 71.613 727.677 71.323 727.677 71.031 L 727.677 67.063 C 727.677 66.02 728.117 65.921 728.495 65.921 L 728.585 65.921 L 728.585 65.732 C 728.238 65.734 727.893 65.77 727.546 65.77 C 727.147 65.77 726.76 65.734 726.368 65.732 L 726.368 65.921 L 726.516 65.921 C 726.786 65.921 727.317 66.037 727.317 66.777 L 727.303 70.075 L 727.289 70.091 L 727.262 70.12 L 723.377 65.731 C 723.121 65.731 722.865 65.769 722.605 65.769 C 722.281 65.769 721.958 65.733 721.633 65.731 L 721.633 65.92 L 721.714 65.92 C 722.128 65.92 722.541 66.23 722.541 66.742 L 722.541 70.411 C 722.541 71.108 722.353 71.556 721.723 71.559 L 721.633 71.555 L 721.633 71.742 C 722.015 71.737 722.402 71.706 722.788 71.706 C 723.152 71.706 723.517 71.737 723.877 71.742 L 723.877 71.559 L 723.764 71.559 C 723.081 71.555 722.91 71.26 722.91 70.498 L 722.91 66.809 L 727.434 71.877 L 727.434 71.877 Z  M 727.762 71.948 L 727.408 71.937 L 722.988 67.004 L 722.988 70.5 C 723.002 71.262 723.109 71.474 723.765 71.479 L 723.954 71.479 L 723.954 71.518 L 723.954 71.817 L 723.909 71.817 C 723.536 71.817 723.162 71.783 722.789 71.783 C 722.398 71.783 721.998 71.817 721.607 71.817 L 721.561 71.817 L 721.561 71.781 L 721.561 71.48 L 721.607 71.48 L 721.723 71.48 C 722.299 71.478 722.469 71.11 722.469 70.413 L 722.469 66.744 C 722.469 66.276 722.087 65.998 721.714 65.998 L 721.561 65.998 L 721.561 65.955 L 721.561 65.66 L 721.607 65.66 C 721.939 65.66 722.277 65.689 722.605 65.689 C 722.861 65.689 723.108 65.66 723.405 65.668 L 727.236 69.988 L 727.236 66.778 C 727.236 66.086 726.772 66 726.516 65.998 L 726.287 65.998 L 726.287 65.955 L 726.287 65.66 L 726.328 65.66 C 726.741 65.66 727.137 65.689 727.546 65.689 C 727.906 65.689 728.261 65.66 728.621 65.66 L 728.661 65.66 L 728.661 65.699 L 728.661 65.998 L 728.621 65.998 L 728.495 65.998 C 728.131 66.005 727.762 66.038 727.749 67.063 L 727.749 71.031 C 727.749 71.337 727.758 71.64 727.803 71.906 L 727.807 71.948 L 727.762 71.948 L 727.762 71.948 Z " fill="rgb(255,255,255)"/><path d=" M 731.292 66.672 L 731.274 66.672 L 730.469 69.139 L 732.092 69.139 L 731.292 66.672 L 731.292 66.672 Z  M 730.024 70.534 C 729.939 70.829 729.827 71.06 729.827 71.216 C 729.827 71.479 730.2 71.52 730.483 71.52 L 730.582 71.52 L 730.582 71.783 C 730.231 71.762 729.881 71.747 729.525 71.747 C 729.211 71.747 728.9 71.763 728.586 71.783 L 728.586 71.52 L 728.64 71.52 C 728.973 71.52 729.27 71.32 729.396 70.951 L 730.79 66.954 C 730.907 66.631 731.064 66.194 731.118 65.873 C 731.392 65.774 731.738 65.601 731.909 65.497 C 731.931 65.491 731.95 65.479 731.976 65.479 C 732.003 65.479 732.021 65.479 732.039 65.508 C 732.061 65.573 732.093 65.652 732.12 65.724 L 733.721 70.286 C 733.825 70.589 733.927 70.911 734.044 71.176 C 734.143 71.419 734.327 71.521 734.619 71.521 L 734.674 71.521 L 734.674 71.784 C 734.278 71.763 733.887 71.748 733.469 71.748 C 733.041 71.748 732.606 71.764 732.16 71.784 L 732.16 71.52 L 732.259 71.52 C 732.452 71.52 732.794 71.486 732.794 71.27 C 732.794 71.156 732.723 70.921 732.623 70.641 L 732.281 69.629 L 730.303 69.629 L 730.024 70.534 L 730.024 70.534 Z " fill="rgb(255,255,255)"/><path d=" M 731.26 66.684 L 731.274 66.679 L 731.26 66.684 L 731.26 66.684 Z  M 730.519 69.103 L 732.047 69.103 L 731.291 66.767 L 730.519 69.103 L 730.519 69.103 Z  M 730.411 69.177 L 731.247 66.639 L 731.274 66.639 L 731.292 66.639 L 731.292 66.672 L 731.292 66.677 L 731.292 66.672 L 731.292 66.639 L 731.319 66.639 L 732.155 69.177 L 730.411 69.177 L 730.411 69.177 Z  M 732.196 71.739 C 732.623 71.723 733.054 71.708 733.468 71.708 C 733.872 71.708 734.25 71.724 734.628 71.739 L 734.628 71.557 L 734.618 71.557 C 734.322 71.561 734.11 71.442 734.007 71.186 C 733.891 70.925 733.782 70.599 733.684 70.295 L 732.079 65.732 C 732.053 65.663 732.03 65.584 732.008 65.523 C 731.994 65.516 732.003 65.516 731.994 65.516 L 731.975 65.516 C 731.957 65.516 731.949 65.519 731.921 65.528 C 731.759 65.638 731.408 65.811 731.148 65.881 C 731.099 66.205 730.932 66.641 730.825 66.967 L 729.43 70.966 C 729.295 71.349 728.994 71.562 728.639 71.558 L 728.621 71.558 L 728.621 71.74 C 728.922 71.724 729.224 71.709 729.524 71.709 C 729.866 71.709 730.212 71.725 730.536 71.74 L 730.536 71.558 L 730.482 71.558 C 730.199 71.553 729.798 71.524 729.794 71.216 C 729.794 71.043 729.898 70.818 729.987 70.526 L 730.023 70.535 L 729.987 70.524 L 730.27 69.59 L 732.307 69.59 L 732.653 70.629 C 732.748 70.905 732.834 71.137 732.834 71.27 C 732.82 71.536 732.451 71.553 732.254 71.558 L 732.195 71.558 L 732.195 71.739 L 732.196 71.739 Z  M 734.668 71.818 C 734.277 71.804 733.881 71.784 733.468 71.784 C 733.04 71.784 732.605 71.805 732.159 71.818 L 732.119 71.818 L 732.119 71.782 L 732.119 71.478 L 732.159 71.478 L 732.254 71.478 C 732.451 71.478 732.753 71.435 732.753 71.269 C 732.757 71.17 732.681 70.927 732.577 70.651 L 732.254 69.662 L 730.329 69.662 L 730.059 70.546 C 729.978 70.845 729.866 71.071 729.866 71.216 C 729.866 71.43 730.194 71.479 730.482 71.479 L 730.617 71.479 L 730.617 71.52 L 730.617 71.819 L 730.581 71.819 C 730.23 71.805 729.871 71.785 729.524 71.785 C 729.213 71.785 728.899 71.806 728.588 71.819 L 728.548 71.819 L 728.548 71.783 L 728.548 71.479 L 728.584 71.479 L 728.638 71.479 C 728.962 71.479 729.232 71.297 729.358 70.94 L 730.756 66.943 C 730.868 66.617 731.026 66.183 731.102 65.835 C 731.372 65.74 731.722 65.567 731.889 65.459 C 731.92 65.452 731.943 65.441 731.974 65.441 C 731.993 65.441 732.046 65.446 732.074 65.491 C 732.092 65.562 732.123 65.641 732.154 65.711 L 733.755 70.274 C 733.863 70.573 733.962 70.899 734.079 71.156 C 734.178 71.391 734.34 71.479 734.618 71.479 L 734.708 71.479 L 734.708 71.52 L 734.708 71.819 L 734.668 71.819 L 734.668 71.818 Z " fill="rgb(255,255,255)"/><path d=" M 735.055 66.131 C 734.399 66.131 734.371 66.29 734.242 66.922 L 733.981 66.922 C 734.016 66.679 734.062 66.437 734.085 66.183 C 734.125 65.938 734.139 65.7 734.139 65.446 L 734.346 65.446 C 734.417 65.707 734.638 65.7 734.871 65.7 L 739.367 65.7 C 739.61 65.7 739.817 65.688 739.835 65.426 L 740.046 65.464 C 740.015 65.7 739.979 65.934 739.952 66.17 C 739.933 66.403 739.933 66.64 739.933 66.873 L 739.672 66.968 C 739.654 66.651 739.613 66.132 739.029 66.132 L 737.594 66.132 L 737.594 70.774 C 737.594 71.442 737.9 71.521 738.323 71.521 L 738.485 71.521 L 738.485 71.784 C 738.148 71.784 737.541 71.748 737.064 71.748 C 736.543 71.748 735.931 71.784 735.589 71.784 L 735.589 71.52 L 735.755 71.52 C 736.236 71.52 736.479 71.479 736.479 70.789 L 736.479 66.132 L 735.055 66.132 L 735.055 66.131 Z " fill="rgb(255,255,255)"/><path d=" M 738.486 71.818 C 738.144 71.818 737.533 71.784 737.065 71.784 C 736.544 71.784 735.941 71.818 735.59 71.818 L 735.554 71.818 L 735.554 71.782 L 735.554 71.48 L 735.59 71.48 L 735.756 71.48 C 736.237 71.474 736.431 71.462 736.444 70.788 L 736.444 66.171 L 735.054 66.171 L 735.054 66.131 L 735.054 66.097 L 736.52 66.097 L 736.52 70.788 C 736.52 71.49 736.237 71.558 735.755 71.558 L 735.629 71.558 L 735.629 71.745 C 735.976 71.74 736.56 71.709 737.064 71.709 C 737.523 71.709 738.107 71.74 738.449 71.745 L 738.449 71.558 L 738.323 71.558 C 737.9 71.558 737.558 71.456 737.558 70.773 L 737.558 66.097 L 739.029 66.097 C 739.613 66.097 739.69 66.596 739.704 66.915 L 739.896 66.846 C 739.896 66.623 739.901 66.392 739.915 66.164 C 739.942 65.937 739.969 65.717 740 65.494 L 739.87 65.474 C 739.825 65.723 739.587 65.739 739.366 65.732 L 734.87 65.732 L 734.825 65.732 C 734.623 65.734 734.398 65.723 734.312 65.48 L 734.177 65.48 C 734.177 65.723 734.159 65.955 734.123 66.191 C 734.096 66.429 734.056 66.661 734.024 66.887 L 734.208 66.887 C 734.321 66.281 734.401 66.085 735.054 66.096 L 735.054 66.13 L 735.054 66.17 C 734.402 66.182 734.424 66.289 734.277 66.933 L 734.272 66.966 L 734.241 66.966 L 733.935 66.966 L 733.944 66.921 C 733.98 66.676 734.02 66.429 734.043 66.179 C 734.079 65.937 734.097 65.694 734.097 65.445 L 734.097 65.406 L 734.138 65.406 L 734.376 65.406 L 734.38 65.433 C 734.443 65.651 734.601 65.651 734.825 65.66 C 734.839 65.66 734.852 65.66 734.87 65.66 L 739.366 65.66 C 739.609 65.651 739.789 65.651 739.798 65.425 L 739.803 65.384 L 739.843 65.391 L 740.09 65.43 L 740.077 65.468 C 740.045 65.699 740.014 65.938 739.987 66.171 C 739.968 66.402 739.968 66.639 739.968 66.872 L 739.968 66.899 L 739.946 66.906 L 739.635 67.02 L 739.635 66.966 C 739.613 66.645 739.581 66.17 739.029 66.17 L 737.635 66.17 L 737.635 70.772 C 737.639 71.429 737.905 71.474 738.323 71.48 L 738.525 71.48 L 738.525 71.519 L 738.525 71.818 L 738.486 71.818 L 738.486 71.818 Z " fill="rgb(255,255,255)"/><path d=" M 740.37 71.52 L 740.491 71.52 C 740.805 71.52 741.135 71.479 741.135 71.023 L 741.135 66.458 C 741.135 66.006 740.806 65.956 740.491 65.956 L 740.37 65.956 L 740.37 65.7 C 740.707 65.7 741.233 65.733 741.66 65.733 C 742.092 65.733 742.622 65.7 743.027 65.7 L 743.027 65.956 L 742.901 65.956 C 742.587 65.956 742.254 66.006 742.254 66.458 L 742.254 71.023 C 742.254 71.479 742.587 71.52 742.901 71.52 L 743.027 71.52 L 743.027 71.783 C 742.609 71.783 742.083 71.747 741.651 71.747 C 741.219 71.747 740.707 71.783 740.37 71.783 L 740.37 71.52 L 740.37 71.52 Z " fill="rgb(255,255,255)"/><path d=" M 742.991 71.744 L 742.991 71.557 L 742.901 71.557 C 742.595 71.557 742.222 71.505 742.222 71.022 L 742.222 66.457 C 742.222 65.976 742.595 65.922 742.901 65.922 L 742.991 65.922 L 742.991 65.733 C 742.587 65.735 742.083 65.771 741.66 65.771 C 741.247 65.771 740.743 65.735 740.406 65.733 L 740.406 65.922 L 740.491 65.922 C 740.805 65.922 741.175 65.976 741.175 66.457 L 741.175 71.022 C 741.175 71.505 740.806 71.557 740.491 71.557 L 740.406 71.557 L 740.406 71.744 C 740.743 71.739 741.233 71.708 741.651 71.708 C 742.069 71.708 742.577 71.739 742.991 71.744 Z  M 743.027 71.818 C 742.604 71.818 742.083 71.784 741.651 71.784 C 741.219 71.784 740.707 71.818 740.37 71.818 L 740.329 71.818 L 740.329 71.782 L 740.329 71.52 L 740.329 71.48 L 740.37 71.48 L 740.491 71.48 C 740.805 71.478 741.094 71.447 741.102 71.022 L 741.102 66.457 C 741.093 66.031 740.805 66.005 740.491 65.998 L 740.329 65.998 L 740.329 65.955 L 740.329 65.66 L 740.37 65.66 C 740.707 65.66 741.233 65.689 741.66 65.689 C 742.092 65.689 742.613 65.66 743.027 65.66 L 743.063 65.66 L 743.063 65.699 L 743.063 65.998 L 743.027 65.998 L 742.901 65.998 C 742.587 66.005 742.298 66.031 742.298 66.457 L 742.298 71.022 C 742.298 71.447 742.586 71.478 742.901 71.48 L 743.063 71.48 L 743.063 71.519 L 743.063 71.818 L 743.027 71.818 L 743.027 71.818 Z " fill="rgb(255,255,255)"/><path d=" M 746.637 71.528 C 748.327 71.528 748.624 70.037 748.624 68.767 C 748.624 67.495 747.936 65.953 746.488 65.953 C 744.968 65.953 744.509 67.308 744.509 68.475 C 744.51 70.037 745.221 71.528 746.637 71.528 Z  M 746.506 65.566 C 748.367 65.566 749.842 66.716 749.842 68.574 C 749.842 70.579 748.404 71.915 746.551 71.915 C 744.699 71.915 743.287 70.656 743.287 68.783 C 743.288 66.967 744.69 65.566 746.506 65.566 Z " fill="rgb(255,255,255)"/><path d=" M 744.47 68.476 C 744.474 67.304 744.928 65.915 746.489 65.915 C 747.968 65.915 748.656 67.486 748.661 68.768 C 748.656 70.038 748.359 71.562 746.638 71.562 L 746.638 71.529 L 746.638 71.49 C 748.297 71.49 748.584 70.037 748.589 68.767 C 748.589 67.501 747.901 65.989 746.489 65.986 C 744.992 65.989 744.547 67.312 744.547 68.475 C 744.547 70.026 745.257 71.49 746.638 71.49 L 746.638 71.528 L 746.638 71.561 C 745.189 71.562 744.474 70.044 744.47 68.476 Z  M 743.251 68.783 C 743.251 66.949 744.672 65.535 746.506 65.528 L 746.506 65.566 L 746.506 65.602 C 744.712 65.602 743.323 66.987 743.323 68.783 C 743.323 70.636 744.717 71.877 746.551 71.877 C 748.386 71.877 749.807 70.562 749.807 68.574 C 749.807 66.74 748.35 65.606 746.506 65.602 L 746.506 65.566 L 746.506 65.528 C 748.377 65.53 749.874 66.695 749.878 68.574 C 749.878 70.599 748.422 71.944 746.551 71.948 C 744.681 71.944 743.251 70.679 743.251 68.783 Z " fill="rgb(255,255,255)"/><path d=" M 755.719 70.064 L 755.737 70.043 L 755.737 66.777 C 755.737 66.059 755.238 65.954 754.977 65.954 L 754.789 65.954 L 754.789 65.698 C 755.193 65.698 755.599 65.731 756.003 65.731 C 756.362 65.731 756.723 65.698 757.082 65.698 L 757.082 65.954 L 756.951 65.954 C 756.578 65.954 756.169 66.026 756.169 67.064 L 756.169 71.03 C 756.169 71.336 756.178 71.639 756.228 71.914 L 755.895 71.914 L 751.409 66.905 L 751.409 70.5 C 751.409 71.262 751.544 71.519 752.227 71.519 L 752.371 71.519 L 752.371 71.782 C 752.002 71.782 751.625 71.746 751.252 71.746 C 750.852 71.746 750.456 71.782 750.06 71.782 L 750.06 71.52 L 750.186 71.52 C 750.789 71.52 750.968 71.111 750.968 70.414 L 750.968 66.745 C 750.968 66.255 750.569 65.956 750.177 65.956 L 750.06 65.956 L 750.06 65.7 C 750.393 65.7 750.726 65.733 751.068 65.733 C 751.324 65.733 751.581 65.7 751.841 65.7 L 755.719 70.064 L 755.719 70.064 Z " fill="rgb(255,255,255)"/><path d=" M 755.697 70.044 L 755.697 70.044 L 755.692 70.037 L 755.697 70.044 L 755.697 70.044 Z  M 755.719 70.064 L 755.741 70.037 L 755.719 70.064 L 755.719 70.064 Z  M 755.894 71.877 L 756.177 71.877 C 756.137 71.611 756.137 71.323 756.137 71.031 L 756.137 67.063 C 756.137 66.02 756.577 65.921 756.95 65.921 L 757.04 65.921 L 757.04 65.732 C 756.694 65.734 756.352 65.77 756.002 65.77 C 755.606 65.77 755.22 65.734 754.824 65.732 L 754.824 65.921 L 754.976 65.921 C 755.246 65.921 755.768 66.042 755.768 66.777 L 755.763 70.075 L 755.741 70.091 L 755.719 70.12 L 751.839 65.731 C 751.578 65.731 751.326 65.769 751.066 65.769 C 750.742 65.769 750.419 65.733 750.094 65.731 L 750.094 65.92 L 750.175 65.92 C 750.58 65.92 751.002 66.23 751.002 66.742 L 751.002 70.411 C 751.002 71.108 750.809 71.556 750.184 71.559 L 750.094 71.555 L 750.094 71.742 C 750.481 71.737 750.864 71.706 751.245 71.706 C 751.613 71.706 751.974 71.737 752.333 71.742 L 752.333 71.559 L 752.221 71.559 C 751.533 71.555 751.363 71.26 751.363 70.498 L 751.363 66.81 L 755.894 71.877 L 755.894 71.877 Z  M 756.227 71.948 L 755.863 71.937 L 751.439 67.004 L 751.439 70.5 C 751.453 71.262 751.569 71.474 752.221 71.478 L 752.409 71.478 L 752.409 71.519 L 752.409 71.818 L 752.369 71.818 C 751.991 71.818 751.613 71.784 751.245 71.784 C 750.858 71.784 750.454 71.818 750.057 71.818 L 750.022 71.818 L 750.022 71.782 L 750.022 71.478 L 750.057 71.478 L 750.183 71.478 C 750.759 71.478 750.92 71.11 750.93 70.413 L 750.93 66.744 C 750.93 66.276 750.543 65.998 750.174 65.998 L 750.022 65.998 L 750.022 65.955 L 750.022 65.66 L 750.057 65.66 C 750.39 65.66 750.732 65.689 751.065 65.689 C 751.317 65.689 751.568 65.66 751.865 65.671 L 755.696 69.987 L 755.696 66.777 C 755.696 66.085 755.228 66.004 754.976 65.997 L 754.743 65.997 L 754.743 65.954 L 754.743 65.66 L 754.788 65.66 C 755.201 65.66 755.598 65.689 756.002 65.689 C 756.361 65.689 756.722 65.66 757.081 65.66 L 757.117 65.66 L 757.117 65.699 L 757.117 65.998 L 757.081 65.998 L 756.95 65.998 C 756.586 66.009 756.218 66.038 756.209 67.063 L 756.209 71.031 C 756.209 71.337 756.218 71.64 756.263 71.906 L 756.263 71.948 L 756.227 71.948 L 756.227 71.948 Z " fill="rgb(255,255,255)"/><path d=" M 759.761 66.672 L 759.734 66.672 L 758.924 69.139 L 760.561 69.139 L 759.761 66.672 L 759.761 66.672 Z  M 758.484 70.534 C 758.394 70.829 758.287 71.06 758.287 71.216 C 758.287 71.479 758.655 71.52 758.943 71.52 L 759.042 71.52 L 759.042 71.783 C 758.691 71.762 758.332 71.747 757.981 71.747 C 757.666 71.747 757.356 71.763 757.045 71.783 L 757.045 71.52 L 757.095 71.52 C 757.432 71.52 757.724 71.32 757.855 70.951 L 759.249 66.954 C 759.361 66.631 759.519 66.194 759.563 65.873 C 759.851 65.774 760.197 65.601 760.364 65.497 C 760.39 65.491 760.404 65.479 760.427 65.479 C 760.454 65.479 760.481 65.479 760.494 65.508 C 760.521 65.573 760.549 65.652 760.571 65.724 L 762.18 70.286 C 762.279 70.589 762.387 70.911 762.499 71.176 C 762.603 71.419 762.782 71.521 763.069 71.521 L 763.128 71.521 L 763.128 71.784 C 762.732 71.763 762.342 71.748 761.919 71.748 C 761.496 71.748 761.065 71.764 760.615 71.784 L 760.615 71.52 L 760.714 71.52 C 760.911 71.52 761.253 71.486 761.253 71.27 C 761.253 71.156 761.172 70.921 761.073 70.641 L 760.736 69.629 L 758.754 69.629 L 758.484 70.534 L 758.484 70.534 Z " fill="rgb(255,255,255)"/><path d=" M 759.72 66.684 L 759.734 66.679 L 759.72 66.684 L 759.72 66.684 Z  M 758.979 69.103 L 760.499 69.103 L 759.739 66.767 L 758.979 69.103 L 758.979 69.103 Z  M 758.871 69.177 L 759.708 66.639 L 759.734 66.639 L 759.761 66.639 L 759.761 66.672 L 759.739 66.677 L 759.761 66.672 L 759.761 66.639 L 759.779 66.639 L 760.606 69.177 L 758.871 69.177 L 758.871 69.177 Z  M 760.651 71.744 C 761.083 71.723 761.51 71.708 761.92 71.708 C 762.33 71.708 762.711 71.724 763.089 71.739 L 763.084 71.557 L 763.07 71.557 C 762.783 71.561 762.576 71.442 762.467 71.186 C 762.351 70.925 762.242 70.599 762.139 70.295 L 760.535 65.732 C 760.508 65.663 760.48 65.584 760.463 65.528 C 760.454 65.516 760.454 65.516 760.454 65.516 L 760.427 65.516 C 760.418 65.516 760.405 65.519 760.382 65.528 C 760.211 65.638 759.869 65.811 759.609 65.881 C 759.555 66.205 759.393 66.641 759.281 66.967 L 757.887 70.966 C 757.756 71.349 757.45 71.562 757.096 71.558 L 757.082 71.558 L 757.082 71.74 C 757.383 71.724 757.676 71.709 757.981 71.709 C 758.323 71.709 758.664 71.725 759.002 71.74 L 759.002 71.558 L 758.943 71.558 C 758.655 71.553 758.259 71.524 758.251 71.216 C 758.251 71.043 758.358 70.818 758.444 70.526 L 758.484 70.535 L 758.444 70.524 L 758.732 69.59 L 760.764 69.59 L 761.11 70.629 C 761.209 70.905 761.29 71.137 761.29 71.27 C 761.281 71.536 760.912 71.553 760.715 71.558 L 760.652 71.558 L 760.652 71.744 L 760.651 71.744 Z  M 763.128 71.818 C 762.728 71.804 762.342 71.784 761.919 71.784 C 761.496 71.784 761.065 71.805 760.619 71.818 L 760.579 71.818 L 760.579 71.782 L 760.579 71.48 L 760.615 71.48 L 760.714 71.48 C 760.911 71.48 761.213 71.435 761.213 71.269 C 761.213 71.17 761.137 70.932 761.037 70.651 L 760.709 69.662 L 758.785 69.662 L 758.519 70.546 C 758.429 70.845 758.322 71.071 758.326 71.216 C 758.326 71.43 758.654 71.481 758.942 71.481 L 759.077 71.481 L 759.077 71.52 L 759.077 71.819 L 759.032 71.819 C 758.685 71.805 758.331 71.785 757.98 71.785 C 757.674 71.785 757.359 71.806 757.044 71.819 L 757 71.819 L 757 71.783 L 757 71.48 L 757.045 71.48 L 757.095 71.48 C 757.414 71.478 757.688 71.296 757.814 70.939 L 759.212 66.942 C 759.32 66.616 759.482 66.182 759.554 65.834 C 759.832 65.739 760.184 65.566 760.355 65.458 C 760.373 65.451 760.395 65.44 760.426 65.44 C 760.453 65.44 760.498 65.445 760.526 65.494 C 760.552 65.561 760.58 65.64 760.611 65.71 L 762.212 70.273 C 762.316 70.572 762.423 70.898 762.531 71.155 C 762.638 71.39 762.792 71.478 763.07 71.48 L 763.17 71.48 L 763.17 71.519 L 763.17 71.818 L 763.128 71.818 L 763.128 71.818 Z " fill="rgb(255,255,255)"/><path d=" M 765.323 70.926 C 765.323 71.277 765.57 71.384 765.849 71.418 C 766.2 71.44 766.595 71.44 766.999 71.397 C 767.359 71.352 767.674 71.143 767.831 70.925 C 767.971 70.732 768.047 70.491 768.101 70.298 L 768.358 70.298 C 768.258 70.794 768.142 71.284 768.034 71.781 C 767.269 71.781 766.497 71.745 765.732 71.745 C 764.967 71.745 764.194 71.781 763.43 71.781 L 763.43 71.52 L 763.556 71.52 C 763.862 71.52 764.207 71.479 764.207 70.937 L 764.207 66.458 C 764.207 66.006 763.861 65.956 763.556 65.956 L 763.43 65.956 L 763.43 65.7 C 763.893 65.7 764.347 65.733 764.81 65.733 C 765.255 65.733 765.687 65.7 766.127 65.7 L 766.127 65.956 L 765.911 65.956 C 765.588 65.956 765.322 65.965 765.322 66.431 L 765.322 70.926 L 765.323 70.926 Z " fill="rgb(255,255,255)"/><path d=" M 768.002 71.744 C 768.101 71.269 768.213 70.806 768.308 70.337 L 768.132 70.337 C 768.078 70.525 767.997 70.762 767.862 70.95 C 767.7 71.175 767.377 71.39 766.999 71.435 C 766.77 71.457 766.541 71.474 766.329 71.474 C 766.163 71.474 765.997 71.462 765.839 71.451 C 765.552 71.42 765.282 71.303 765.282 70.926 L 765.282 66.43 C 765.282 65.945 765.588 65.922 765.911 65.922 L 766.091 65.922 L 766.091 65.733 C 765.664 65.735 765.241 65.771 764.81 65.771 C 764.356 65.771 763.915 65.735 763.466 65.733 L 763.466 65.922 L 763.556 65.922 C 763.862 65.922 764.248 65.976 764.248 66.457 L 764.248 70.936 C 764.248 71.5 763.861 71.557 763.556 71.557 L 763.466 71.557 L 763.466 71.744 C 764.221 71.744 764.976 71.708 765.732 71.708 C 766.487 71.708 767.247 71.744 768.002 71.744 Z  M 768.034 71.818 C 767.261 71.818 766.497 71.784 765.732 71.784 C 764.967 71.784 764.194 71.818 763.43 71.818 L 763.394 71.818 L 763.394 71.782 L 763.394 71.48 L 763.43 71.48 L 763.556 71.48 C 763.862 71.478 764.162 71.451 764.167 70.936 L 764.167 66.457 C 764.162 66.031 763.87 66.005 763.556 65.998 L 763.394 65.998 L 763.394 65.955 L 763.394 65.66 L 763.43 65.66 C 763.893 65.66 764.347 65.689 764.81 65.689 C 765.25 65.689 765.682 65.66 766.127 65.66 L 766.167 65.66 L 766.167 65.699 L 766.167 65.998 L 766.127 65.998 L 765.911 65.998 C 765.578 66.005 765.367 65.989 765.353 66.43 L 765.353 70.926 C 765.362 71.249 765.569 71.337 765.848 71.375 C 766 71.391 766.162 71.396 766.328 71.396 C 766.54 71.396 766.765 71.384 766.989 71.36 C 767.344 71.32 767.654 71.115 767.799 70.906 C 767.934 70.719 768.015 70.481 768.06 70.293 L 768.074 70.261 L 768.1 70.261 L 768.402 70.261 L 768.392 70.309 C 768.293 70.808 768.176 71.298 768.064 71.79 L 768.06 71.819 L 768.034 71.819 L 768.034 71.818 Z " fill="rgb(255,255,255)"/></g></g></svg>