<?xml version="1.0" encoding="UTF-8" standalone="no"?><!-- Generator: Gravit.io --><svg xmlns="http://www.w3.org/2000/svg" xmlns:xlink="http://www.w3.org/1999/xlink" style="isolation:isolate" viewBox="493.207 0 146.59 91.623" width="146.59pt" height="91.623pt"><g><path d=" M 639.797 86.733 C 639.797 89.431 637.608 91.623 634.911 91.623 L 498.092 91.623 C 495.399 91.623 493.207 89.432 493.207 86.733 L 493.207 4.89 C 493.207 2.188 495.398 0 498.092 0 L 634.911 0 C 637.607 0 639.797 2.188 639.797 4.89 L 639.797 86.733 L 639.797 86.733 Z " fill="rgb(249,249,249)"/><path d=" M 533.501 91.623 L 634.911 91.623 C 637.607 91.623 639.797 89.432 639.797 86.733 L 639.797 52.429 C 630.065 58.6 593.373 79.873 533.501 91.623 Z " fill="rgb(245,130,32)"/><g><radialGradient id="_rgradient_1" fx="0.4997157416661082" fy="0.49997133085970047" cx="0.4997157416661082" cy="0.49997133085970047" r="1" gradientTransform="matrix(14.609,0,0,14.284,560.979,38.675)" gradientUnits="userSpaceOnUse"><stop offset="0.5599999999999999%" stop-opacity="1" style="stop-color:rgb(255,238,224)"/><stop offset="10.96%" stop-opacity="1" style="stop-color:rgb(254,233,215)"/><stop offset="27.93%" stop-opacity="1" style="stop-color:rgb(253,219,191)"/><stop offset="49.35%" stop-opacity="1" style="stop-color:rgb(251,197,151)"/><stop offset="74.4%" stop-opacity="1" style="stop-color:rgb(248,165,96)"/><stop offset="100%" stop-opacity="1" style="stop-color:rgb(244,129,32)"/></radialGradient><path d=" M 568.293 38.675 C 564.249 38.675 560.979 41.831 560.979 45.725 C 560.979 49.867 564.113 52.959 568.293 52.959 C 572.367 52.959 575.588 49.821 575.588 45.804 C 575.588 41.813 572.39 38.675 568.293 38.675 Z " fill="url(#_rgradient_1)"/><path d=" M 526.766 38.932 L 522.828 38.932 L 522.828 52.649 L 526.746 52.649 C 528.818 52.649 530.316 52.157 531.64 51.069 C 533.201 49.767 534.131 47.816 534.131 45.798 C 534.13 41.748 531.098 38.932 526.766 38.932 Z  M 529.893 49.236 C 529.047 49.996 527.959 50.324 526.226 50.324 L 525.507 50.324 L 525.507 41.256 L 526.226 41.256 C 527.959 41.256 529 41.562 529.893 42.362 C 530.817 43.189 531.366 44.462 531.366 45.776 C 531.366 47.092 530.817 48.416 529.893 49.236 Z " fill="rgb(0,23,34)"/><rect x="535.36" y="38.932" width="2.673" height="13.717" transform="matrix(1,0,0,1,0,0)" fill="rgb(0,23,34)"/><path d=" M 544.58 44.189 C 542.968 43.6 542.498 43.207 542.498 42.464 C 542.498 41.599 543.337 40.944 544.497 40.944 C 545.299 40.944 545.956 41.272 546.652 42.05 L 548.05 40.223 C 546.902 39.215 545.524 38.702 544.017 38.702 C 541.591 38.702 539.742 40.389 539.742 42.63 C 539.742 44.526 540.607 45.491 543.116 46.393 C 544.166 46.764 544.696 47.012 544.969 47.178 C 545.499 47.531 545.774 48.019 545.774 48.596 C 545.774 49.709 544.886 50.528 543.69 50.528 C 542.416 50.528 541.388 49.891 540.77 48.698 L 539.041 50.366 C 540.277 52.178 541.756 52.976 543.795 52.976 C 546.569 52.976 548.527 51.127 548.527 48.475 C 548.527 46.291 547.619 45.307 544.58 44.189 Z " fill="rgb(0,23,34)"/><path d=" M 549.37 45.797 C 549.37 49.832 552.535 52.959 556.609 52.959 C 557.764 52.959 558.751 52.732 559.963 52.156 L 559.963 49.01 C 558.896 50.079 557.942 50.507 556.735 50.507 C 554.039 50.507 552.122 48.551 552.122 45.777 C 552.122 43.147 554.101 41.065 556.609 41.065 C 557.881 41.065 558.847 41.522 559.963 42.612 L 559.963 39.463 C 558.792 38.869 557.82 38.622 556.674 38.622 C 552.619 38.621 549.37 41.813 549.37 45.797 Z " fill="rgb(0,23,34)"/><path d=" M 581.643 48.146 L 577.981 38.932 L 575.058 38.932 L 580.885 53.002 L 582.322 53.002 L 588.245 38.932 L 585.345 38.932 L 581.643 48.146 Z " fill="rgb(0,23,34)"/><path d=" M 589.461 52.648 L 597.053 52.648 L 597.053 50.324 L 592.134 50.324 L 592.134 46.617 L 596.864 46.617 L 596.864 44.3 L 592.134 44.3 L 592.134 41.256 L 597.053 41.256 L 597.053 38.932 L 589.461 38.932 L 589.461 52.648 Z " fill="rgb(0,23,34)"/><path d=" M 607.646 42.984 C 607.646 40.41 605.872 38.931 602.788 38.931 L 598.82 38.931 L 598.82 52.648 L 601.495 52.648 L 601.495 47.136 L 601.849 47.136 L 605.547 52.648 L 608.838 52.648 L 604.513 46.869 C 606.533 46.46 607.646 45.08 607.646 42.984 Z  M 602.273 45.246 L 601.495 45.246 L 601.495 41.09 L 602.313 41.09 C 603.986 41.09 604.889 41.791 604.889 43.124 C 604.889 44.5 603.986 45.246 602.273 45.246 Z " fill="rgb(0,23,34)"/><path d=" M 609.53 39.957 C 609.53 39.716 609.368 39.581 609.076 39.581 L 608.684 39.581 L 608.684 40.788 L 608.972 40.788 L 608.972 40.318 L 609.309 40.788 L 609.666 40.788 L 609.269 40.294 C 609.435 40.246 609.53 40.123 609.53 39.957 Z  M 609.026 40.118 L 608.972 40.118 L 608.972 39.804 L 609.031 39.804 C 609.17 39.804 609.242 39.854 609.242 39.959 C 609.242 40.063 609.166 40.118 609.026 40.118 Z " fill="rgb(35,31,32)"/><path d=" M 609.131 39.129 C 608.549 39.129 608.077 39.595 608.077 40.184 C 608.077 40.771 608.549 41.236 609.131 41.236 C 609.704 41.236 610.174 40.764 610.174 40.184 C 610.174 39.604 609.705 39.129 609.131 39.129 Z  M 609.127 41.047 C 608.661 41.047 608.286 40.665 608.286 40.186 C 608.286 39.701 608.661 39.319 609.127 39.319 C 609.585 39.319 609.961 39.71 609.961 40.186 C 609.961 40.66 609.585 41.047 609.127 41.047 Z " fill="rgb(35,31,32)"/></g></g></svg>