<?xml version="1.0" encoding="UTF-8" standalone="no"?><!-- Generator: Gravit.io --><svg xmlns="http://www.w3.org/2000/svg" xmlns:xlink="http://www.w3.org/1999/xlink" style="isolation:isolate" viewBox="822.013 0 146.59 91.623" width="146.59pt" height="91.623pt"><g><path d=" M 968.603 86.733 C 968.603 89.435 966.41 91.623 963.716 91.623 L 826.901 91.623 C 824.199 91.623 822.013 89.435 822.013 86.733 L 822.013 4.885 C 822.013 2.189 824.199 0 826.901 0 L 963.716 0 C 966.409 0 968.603 2.189 968.603 4.885 L 968.603 86.733 L 968.603 86.733 Z " fill="rgb(249,249,249)"/><g><path d=" M 920.824 48.92 C 921 54.259 921.183 59.777 920.909 65.204 C 920.738 67.34 919.403 69.391 917.443 70.636 C 915.927 71.612 914.057 71.701 912.101 71.793 L 905.029 71.701 L 904.984 26.401 C 905.343 23.378 907.565 20.797 910.411 19.997 C 913.887 19.554 917.088 19.731 920.738 19.642 L 920.909 21.957 L 920.909 47.677 L 920.824 47.764 L 920.824 48.92 L 920.824 48.92 Z " fill="rgb(0,165,81)"/><path d=" M 869.564 47.229 L 869.564 25.871 C 870.009 23.465 871.964 21.245 874.281 20.354 C 877.747 19.284 881.758 19.913 885.314 19.814 C 885.489 23.29 885.314 27.648 885.404 30.676 L 885.588 58.53 C 885.139 62.801 886.739 68.585 881.399 70.988 C 878.018 72.678 873.481 71.611 869.655 71.97 L 869.565 71.348 L 869.565 48.119 L 869.565 47.229 L 869.564 47.229 Z " fill="rgb(0,113,187)"/><path d=" M 869.564 48.119 C 870.985 49.987 872.945 51.408 875.35 51.5 C 878.287 51.771 882.117 52.035 884.068 49.274 C 885.404 47.849 884.608 45.898 884.873 44.025 L 884.783 40.644 C 883.089 40.285 881.578 40.644 879.617 40.554 C 878.638 44.202 881.227 48.296 877.041 50.166 C 876.057 50.434 874.636 50.252 873.656 49.631 C 872.059 49.274 872.945 46.693 870.814 47.405 L 869.564 47.228 L 869.564 48.119 L 869.564 48.119 Z " fill="rgb(255,255,255)"/><path d=" M 903.114 22.757 L 903.204 66.097 C 902.584 68.138 900.978 70.368 898.758 71.166 C 895.372 72.324 891.191 71.793 887.449 71.793 L 887.274 26.136 C 887.449 24.003 888.879 22.135 890.745 20.974 C 892.081 20.084 893.682 19.814 895.372 19.731 L 902.938 19.731 L 903.114 22.757 L 903.114 22.757 Z " fill="rgb(236,28,36)"/><path d=" M 902.404 40.645 C 902.584 41.175 902.404 41.623 902.494 42.246 C 899.818 41.533 896.531 40.733 894.127 42.693 C 893.24 43.756 892.701 44.831 892.791 46.252 C 893.057 47.851 894.041 49.363 895.552 49.988 C 897.864 50.701 900.264 50.081 902.405 49.541 C 902.495 49.988 902.585 50.611 902.405 50.964 L 892.167 50.964 C 890.392 50.611 888.962 49.633 888.165 47.851 C 887.45 46.161 887.811 43.849 889.056 42.429 C 890.121 41.176 891.637 40.468 893.327 40.556 L 902.404 40.645 L 902.404 40.645 Z " fill="rgb(255,255,255)"/><path d=" M 920.824 48.92 C 920.558 49.987 919.669 50.963 918.598 51.143 L 906.135 51.143 L 905.695 50.963 C 905.695 47.406 905.605 44.025 905.785 40.555 L 913.702 40.555 C 916.197 40.821 918.958 39.754 920.109 42.068 C 920.468 42.871 920.379 43.938 919.754 44.561 C 919.403 45.182 918.599 45.274 918.419 45.716 C 919.403 45.982 920.469 46.781 920.824 47.764 L 920.824 48.92 L 920.824 48.92 Z  M 910.146 41.622 C 909.88 42.598 909.88 43.937 910.055 45.001 C 911.925 44.916 914.331 45.626 915.576 44.203 C 916.016 43.666 915.751 42.78 915.481 42.333 C 914.057 41.09 911.925 41.888 910.146 41.622 Z  M 914.952 46.517 C 913.258 46.251 911.566 46.339 909.966 46.429 C 909.881 47.764 909.966 48.832 910.147 50.08 C 911.926 50.08 913.887 50.34 915.483 49.54 C 915.928 49.098 916.198 48.389 916.018 47.764 C 915.927 47.229 915.482 46.781 914.952 46.517 Z " fill="rgb(255,255,255)"/></g></g></svg>