<?xml version="1.0" encoding="UTF-8" standalone="no"?><!-- Generator: Gravit.io --><svg xmlns="http://www.w3.org/2000/svg" xmlns:xlink="http://www.w3.org/1999/xlink" style="isolation:isolate" viewBox="164.403 0 146.59 91.619" width="146.59pt" height="91.619pt"><g><path d=" M 310.993 86.733 C 310.993 89.435 308.808 91.619 306.108 91.619 L 169.288 91.619 C 166.59 91.619 164.403 89.435 164.403 86.733 L 164.403 4.89 C 164.403 2.19 166.59 0 169.288 0 L 306.108 0 C 308.808 0 310.993 2.189 310.993 4.89 L 310.993 86.733 L 310.993 86.733 Z " fill="rgb(249,249,249)"/><g><path d=" M 255.287 72.11 L 256.644 72.076 L 257.987 71.978 L 259.299 71.812 L 260.601 71.58 L 261.872 71.285 L 263.121 70.933 L 264.348 70.514 L 265.546 70.042 L 266.713 69.512 L 267.846 68.934 L 268.95 68.298 L 270.023 67.616 L 271.054 66.877 L 272.043 66.099 L 273.005 65.273 L 273.918 64.395 L 274.797 63.478 L 275.62 62.518 L 276.403 61.528 L 277.14 60.497 L 277.823 59.425 L 278.459 58.325 L 279.04 57.189 L 279.565 56.019 L 280.04 54.825 L 280.458 53.596 L 280.813 52.35 L 281.101 51.08 L 281.333 49.771 L 281.503 48.461 L 281.602 47.123 L 281.636 45.761 L 281.602 44.412 L 281.503 43.086 L 281.333 41.771 L 281.101 40.482 L 280.813 39.217 L 280.458 37.974 L 280.04 36.749 L 279.565 35.562 L 279.04 34.399 L 278.459 33.267 L 277.823 32.174 L 277.14 31.102 L 276.403 30.069 L 275.62 29.085 L 274.797 28.13 L 273.918 27.212 L 273.005 26.343 L 272.043 25.52 L 271.054 24.737 L 270.023 24.002 L 268.95 23.321 L 267.846 22.687 L 266.713 22.116 L 265.546 21.577 L 264.348 21.107 L 263.121 20.693 L 261.872 20.338 L 260.601 20.046 L 259.299 19.814 L 257.987 19.648 L 256.644 19.549 L 255.287 19.515 L 253.942 19.549 L 252.6 19.648 L 251.288 19.814 L 249.993 20.046 L 248.727 20.338 L 247.472 20.693 L 246.258 21.107 L 245.06 21.577 L 243.898 22.116 L 242.772 22.687 L 241.668 23.321 L 240.607 24.002 L 239.578 24.737 L 238.583 25.52 L 237.633 26.343 L 236.72 27.212 L 235.855 28.13 L 235.025 29.085 L 234.245 30.069 L 233.521 31.102 L 232.837 32.174 L 232.207 33.267 L 231.622 34.399 L 231.098 35.562 L 230.628 36.749 L 230.219 37.974 L 229.864 39.217 L 229.572 40.482 L 229.339 41.771 L 229.175 43.086 L 229.075 44.412 L 229.037 45.761 L 229.075 47.123 L 229.175 48.461 L 229.339 49.771 L 229.572 51.08 L 229.864 52.35 L 230.219 53.596 L 230.628 54.825 L 231.098 56.019 L 231.622 57.189 L 232.207 58.325 L 232.837 59.425 L 233.521 60.497 L 234.245 61.528 L 235.025 62.518 L 235.855 63.478 L 236.72 64.395 L 237.633 65.273 L 238.583 66.099 L 239.578 66.877 L 240.607 67.616 L 241.668 68.298 L 242.772 68.934 L 243.898 69.512 L 245.06 70.042 L 246.258 70.514 L 247.472 70.933 L 248.727 71.285 L 249.993 71.58 L 251.288 71.812 L 252.6 71.978 L 253.942 72.076 L 255.287 72.11 L 255.287 72.11 L 255.287 72.11 Z " fill-rule="evenodd" fill="rgb(251,178,49)"/><path d=" M 220.103 72.11 L 221.452 72.076 L 222.793 71.978 L 224.106 71.812 L 225.401 71.58 L 226.671 71.285 L 227.919 70.933 L 229.135 70.514 L 230.333 70.042 L 231.496 69.512 L 232.622 68.934 L 233.721 68.298 L 234.783 67.616 L 235.817 66.877 L 236.81 66.099 L 237.758 65.273 L 238.676 64.395 L 239.543 63.478 L 240.369 62.518 L 241.147 61.528 L 241.873 60.497 L 242.56 59.425 L 243.19 58.325 L 243.777 57.189 L 244.296 56.019 L 244.768 54.825 L 245.175 53.596 L 245.528 52.35 L 245.823 51.08 L 246.054 49.771 L 246.225 48.461 L 246.319 47.123 L 246.358 45.761 L 246.319 44.412 L 246.225 43.086 L 246.054 41.771 L 245.823 40.482 L 245.528 39.217 L 245.175 37.974 L 244.768 36.749 L 244.296 35.562 L 243.777 34.399 L 243.19 33.267 L 242.56 32.174 L 241.873 31.102 L 241.147 30.069 L 240.369 29.085 L 239.543 28.13 L 238.676 27.212 L 237.758 26.343 L 236.81 25.52 L 235.817 24.737 L 234.783 24.002 L 233.721 23.321 L 232.622 22.687 L 231.496 22.116 L 230.333 21.577 L 229.135 21.107 L 227.919 20.693 L 226.671 20.338 L 225.401 20.046 L 224.106 19.814 L 222.793 19.648 L 221.452 19.549 L 220.103 19.515 L 218.748 19.549 L 217.41 19.648 L 216.096 19.814 L 214.789 20.046 L 213.523 20.338 L 212.268 20.693 L 211.045 21.107 L 209.852 21.577 L 208.676 22.116 L 207.542 22.687 L 206.444 23.321 L 205.372 24.002 L 204.339 24.737 L 203.348 25.52 L 202.393 26.343 L 201.475 27.212 L 200.596 28.13 L 199.774 29.085 L 198.992 30.069 L 198.254 31.102 L 197.571 32.174 L 196.93 33.267 L 196.359 34.399 L 195.824 35.562 L 195.354 36.749 L 194.936 37.974 L 194.585 39.217 L 194.289 40.482 L 194.057 41.771 L 193.89 43.086 L 193.792 44.412 L 193.758 45.761 L 193.792 47.123 L 193.89 48.461 L 194.057 49.771 L 194.289 51.08 L 194.585 52.35 L 194.936 53.596 L 195.354 54.825 L 195.824 56.019 L 196.359 57.189 L 196.93 58.325 L 197.571 59.425 L 198.254 60.497 L 198.992 61.528 L 199.774 62.518 L 200.596 63.478 L 201.475 64.395 L 202.393 65.273 L 203.348 66.099 L 204.339 66.877 L 205.372 67.616 L 206.444 68.298 L 207.542 68.934 L 208.676 69.512 L 209.852 70.042 L 211.045 70.514 L 212.268 70.933 L 213.523 71.285 L 214.789 71.58 L 216.096 71.812 L 217.41 71.978 L 218.748 72.076 L 220.103 72.11 L 220.103 72.11 L 220.103 72.11 Z " fill-rule="evenodd" fill="rgb(236,28,46)"/><path d=" M 234.621 29.6 L 248.594 29.6 L 248.594 28.172 L 235.826 28.172 L 234.621 29.6 L 234.621 29.6 L 234.621 29.6 Z " fill-rule="evenodd" fill="rgb(251,178,49)"/><path d=" M 232.528 32.776 L 248.594 32.776 L 248.594 31.345 L 233.369 31.345 L 232.528 32.776 L 232.528 32.776 L 232.528 32.776 Z " fill-rule="evenodd" fill="rgb(251,178,49)"/><path d=" M 230.965 35.946 L 248.594 35.946 L 248.594 34.512 L 231.583 34.512 L 230.965 35.946 L 230.965 35.946 L 230.965 35.946 Z " fill-rule="evenodd" fill="rgb(251,178,49)"/><path d=" M 229.888 39.118 L 248.594 39.118 L 248.594 37.692 L 230.333 37.692 L 229.888 39.118 L 229.888 39.118 L 229.888 39.118 Z " fill-rule="evenodd" fill="rgb(251,178,49)"/><path d=" M 230.511 54.468 L 248.634 54.468 L 248.634 53.038 L 230.068 53.038 L 230.511 54.468 L 230.511 54.468 L 230.511 54.468 Z " fill-rule="evenodd" fill="rgb(251,178,49)"/><path d=" M 231.848 57.645 L 248.634 57.645 L 248.634 56.212 L 231.185 56.212 L 231.848 57.645 L 231.848 57.645 L 231.848 57.645 Z " fill-rule="evenodd" fill="rgb(251,178,49)"/><path d=" M 233.728 60.81 L 248.634 60.81 L 248.634 59.384 L 232.837 59.384 L 233.728 60.81 L 233.728 60.81 L 233.728 60.81 Z " fill-rule="evenodd" fill="rgb(251,178,49)"/><path d=" M 236.32 63.983 L 248.634 63.983 L 248.634 62.549 L 235.07 62.549 L 236.32 63.983 L 236.32 63.983 L 236.32 63.983 Z " fill-rule="evenodd" fill="rgb(251,178,49)"/><path d=" M 229.261 42.285 L 248.594 42.285 L 248.594 40.858 L 229.538 40.858 L 229.261 42.285 L 229.261 42.285 L 229.261 42.285 Z " fill-rule="evenodd" fill="rgb(251,178,49)"/><path d=" M 241.041 51.3 L 248.413 51.3 L 248.413 49.87 L 241.308 49.87 L 241.041 51.3 L 241.041 51.3 L 241.041 51.3 Z " fill-rule="evenodd" fill="rgb(251,178,49)"/><path d=" M 241.632 48.131 L 248.413 48.131 L 248.413 46.694 L 241.897 46.694 L 241.632 48.131 L 241.632 48.131 L 241.632 48.131 Z " fill-rule="evenodd" fill="rgb(251,178,49)"/><path d=" M 228.771 46.694 L 230.689 46.694 L 230.689 48.131 L 228.861 48.131 L 228.771 46.694 L 228.771 46.694 L 228.771 46.694 Z " fill-rule="evenodd" fill="rgb(251,178,49)"/><path d=" M 225.197 44.965 L 225.073 44.959 L 224.952 44.938 L 224.831 44.925 L 224.72 44.904 L 224.615 44.887 L 224.496 44.866 L 224.383 44.853 L 224.252 44.83 L 224.131 44.819 L 223.992 44.804 L 223.83 44.794 L 223.662 44.787 L 223.477 44.787 L 223.272 44.794 L 223.041 44.819 L 222.783 44.83 L 222.609 44.859 L 222.438 44.887 L 222.286 44.938 L 222.153 44.992 L 222.029 45.053 L 221.919 45.12 L 221.825 45.217 L 221.744 45.296 L 221.692 45.39 L 221.649 45.489 L 221.631 45.595 L 221.631 45.7 L 221.659 45.819 L 221.692 45.932 L 221.764 46.047 L 221.852 46.163 L 222.029 46.33 L 222.241 46.467 L 222.49 46.582 L 222.755 46.676 L 223.041 46.766 L 223.333 46.865 L 223.627 46.966 L 223.909 47.085 L 224.178 47.235 L 224.423 47.422 L 224.644 47.645 L 224.831 47.919 L 224.974 48.256 L 225.064 48.654 L 225.098 49.135 L 225.064 49.695 L 225.003 50.113 L 224.898 50.478 L 224.753 50.814 L 224.577 51.106 L 224.374 51.363 L 224.14 51.583 L 223.893 51.781 L 223.617 51.947 L 223.333 52.08 L 223.041 52.192 L 222.742 52.28 L 222.427 52.353 L 222.128 52.41 L 221.835 52.436 L 221.543 52.451 L 221.267 52.463 L 220.885 52.463 L 220.532 52.451 L 220.217 52.451 L 219.929 52.446 L 219.66 52.436 L 219.421 52.417 L 219.208 52.397 L 219.003 52.372 L 218.819 52.353 L 218.651 52.323 L 218.482 52.291 L 218.329 52.246 L 218.178 52.213 L 218.037 52.159 L 217.893 52.107 L 217.747 52.053 L 218.145 50.093 L 218.223 50.113 L 218.322 50.136 L 218.448 50.174 L 218.599 50.208 L 218.758 50.241 L 218.931 50.279 L 219.129 50.322 L 219.34 50.358 L 219.565 50.395 L 219.792 50.428 L 220.036 50.455 L 220.283 50.484 L 220.539 50.491 L 220.797 50.5 L 221.051 50.5 L 221.312 50.491 L 221.571 50.439 L 221.771 50.369 L 221.93 50.269 L 222.054 50.146 L 222.146 50.021 L 222.213 49.877 L 222.261 49.738 L 222.294 49.605 L 222.317 49.347 L 222.236 49.129 L 222.081 48.946 L 221.863 48.798 L 221.595 48.661 L 221.285 48.533 L 220.941 48.407 L 220.595 48.268 L 220.24 48.104 L 219.903 47.919 L 219.592 47.688 L 219.307 47.413 L 219.084 47.074 L 218.924 46.676 L 218.844 46.197 L 218.853 45.633 L 218.898 45.284 L 218.963 44.959 L 219.053 44.655 L 219.156 44.372 L 219.295 44.106 L 219.459 43.875 L 219.644 43.654 L 219.865 43.457 L 220.123 43.29 L 220.406 43.146 L 220.728 43.014 L 221.081 42.915 L 221.478 42.836 L 221.919 42.771 L 222.396 42.737 L 222.919 42.73 L 223.246 42.73 L 223.549 42.737 L 223.821 42.749 L 224.071 42.756 L 224.295 42.771 L 224.496 42.791 L 224.675 42.81 L 224.831 42.827 L 224.986 42.848 L 225.109 42.87 L 225.224 42.888 L 225.33 42.903 L 225.421 42.926 L 225.496 42.936 L 225.579 42.953 L 225.649 42.96 L 225.197 44.965 L 225.197 44.965 L 225.197 44.965 Z " fill-rule="evenodd" fill="rgb(255,255,255)"/><mask id="_mask_JzOZfAyf9ngmBXIZeNc6aRU2HOtSqGID" x="-200%" y="-200%" width="400%" height="400%"><rect x="-200%" y="-200%" width="400%" height="400%" style="fill:white;"/><path d=" M 225.197 44.965 L 225.197 44.965 L 225.073 44.959 L 224.952 44.938 L 224.831 44.925 L 224.72 44.904 L 224.615 44.887 L 224.496 44.866 L 224.383 44.853 L 224.252 44.83 L 224.131 44.819 L 223.992 44.804 L 223.83 44.794 L 223.662 44.787 L 223.477 44.787 L 223.272 44.794 L 223.041 44.819 L 222.783 44.83 L 222.783 44.83 L 222.609 44.859 L 222.438 44.887 L 222.286 44.938 L 222.153 44.992 L 222.029 45.053 L 221.919 45.12 L 221.825 45.217 L 221.744 45.296 L 221.692 45.39 L 221.649 45.489 L 221.631 45.595 L 221.631 45.7 L 221.659 45.819 L 221.692 45.932 L 221.764 46.047 L 221.852 46.163 L 221.852 46.163 L 222.029 46.33 L 222.241 46.467 L 222.49 46.582 L 222.755 46.676 L 223.041 46.766 L 223.333 46.865 L 223.627 46.966 L 223.909 47.085 L 224.178 47.235 L 224.423 47.422 L 224.644 47.645 L 224.831 47.919 L 224.974 48.256 L 225.064 48.654 L 225.098 49.135 L 225.064 49.695 L 225.064 49.695 L 225.003 50.113 L 224.898 50.478 L 224.753 50.814 L 224.577 51.106 L 224.374 51.363 L 224.14 51.583 L 223.893 51.781 L 223.617 51.947 L 223.333 52.08 L 223.041 52.192 L 222.742 52.28 L 222.427 52.353 L 222.128 52.41 L 221.835 52.436 L 221.543 52.451 L 221.267 52.463 L 221.267 52.463 L 220.885 52.463 L 220.532 52.451 L 220.217 52.451 L 219.929 52.446 L 219.66 52.436 L 219.421 52.417 L 219.208 52.397 L 219.003 52.372 L 218.819 52.353 L 218.651 52.323 L 218.482 52.291 L 218.329 52.246 L 218.178 52.213 L 218.037 52.159 L 217.893 52.107 L 217.747 52.053 L 218.145 50.093 L 218.145 50.093 L 218.223 50.113 L 218.322 50.136 L 218.448 50.174 L 218.599 50.208 L 218.758 50.241 L 218.931 50.279 L 219.129 50.322 L 219.34 50.358 L 219.565 50.395 L 219.792 50.428 L 220.036 50.455 L 220.283 50.484 L 220.539 50.491 L 220.797 50.5 L 221.051 50.5 L 221.312 50.491 L 221.312 50.491 L 221.571 50.439 L 221.771 50.369 L 221.93 50.269 L 222.054 50.146 L 222.146 50.021 L 222.213 49.877 L 222.261 49.738 L 222.294 49.605 L 222.294 49.605 L 222.317 49.347 L 222.236 49.129 L 222.081 48.946 L 221.863 48.798 L 221.595 48.661 L 221.285 48.533 L 220.941 48.407 L 220.595 48.268 L 220.24 48.104 L 219.903 47.919 L 219.592 47.688 L 219.307 47.413 L 219.084 47.074 L 218.924 46.676 L 218.844 46.197 L 218.853 45.633 L 218.853 45.633 L 218.898 45.284 L 218.963 44.959 L 219.053 44.655 L 219.156 44.372 L 219.295 44.106 L 219.459 43.875 L 219.644 43.654 L 219.865 43.457 L 220.123 43.29 L 220.406 43.146 L 220.728 43.014 L 221.081 42.915 L 221.478 42.836 L 221.919 42.771 L 222.396 42.737 L 222.919 42.73 L 222.919 42.73 L 223.246 42.73 L 223.549 42.737 L 223.821 42.749 L 224.071 42.756 L 224.295 42.771 L 224.496 42.791 L 224.675 42.81 L 224.831 42.827 L 224.986 42.848 L 225.109 42.87 L 225.224 42.888 L 225.33 42.903 L 225.421 42.926 L 225.496 42.936 L 225.579 42.953 L 225.649 42.96 L 225.197 44.965" fill="black" stroke="none"/></mask><path d=" M 225.197 44.965 L 225.197 44.965 L 225.073 44.959 L 224.952 44.938 L 224.831 44.925 L 224.72 44.904 L 224.615 44.887 L 224.496 44.866 L 224.383 44.853 L 224.252 44.83 L 224.131 44.819 L 223.992 44.804 L 223.83 44.794 L 223.662 44.787 L 223.477 44.787 L 223.272 44.794 L 223.041 44.819 L 222.783 44.83 L 222.783 44.83 L 222.609 44.859 L 222.438 44.887 L 222.286 44.938 L 222.153 44.992 L 222.029 45.053 L 221.919 45.12 L 221.825 45.217 L 221.744 45.296 L 221.692 45.39 L 221.649 45.489 L 221.631 45.595 L 221.631 45.7 L 221.659 45.819 L 221.692 45.932 L 221.764 46.047 L 221.852 46.163 L 221.852 46.163 L 222.029 46.33 L 222.241 46.467 L 222.49 46.582 L 222.755 46.676 L 223.041 46.766 L 223.333 46.865 L 223.627 46.966 L 223.909 47.085 L 224.178 47.235 L 224.423 47.422 L 224.644 47.645 L 224.831 47.919 L 224.974 48.256 L 225.064 48.654 L 225.098 49.135 L 225.064 49.695 L 225.064 49.695 L 225.003 50.113 L 224.898 50.478 L 224.753 50.814 L 224.577 51.106 L 224.374 51.363 L 224.14 51.583 L 223.893 51.781 L 223.617 51.947 L 223.333 52.08 L 223.041 52.192 L 222.742 52.28 L 222.427 52.353 L 222.128 52.41 L 221.835 52.436 L 221.543 52.451 L 221.267 52.463 L 221.267 52.463 L 220.885 52.463 L 220.532 52.451 L 220.217 52.451 L 219.929 52.446 L 219.66 52.436 L 219.421 52.417 L 219.208 52.397 L 219.003 52.372 L 218.819 52.353 L 218.651 52.323 L 218.482 52.291 L 218.329 52.246 L 218.178 52.213 L 218.037 52.159 L 217.893 52.107 L 217.747 52.053 L 218.145 50.093 L 218.145 50.093 L 218.223 50.113 L 218.322 50.136 L 218.448 50.174 L 218.599 50.208 L 218.758 50.241 L 218.931 50.279 L 219.129 50.322 L 219.34 50.358 L 219.565 50.395 L 219.792 50.428 L 220.036 50.455 L 220.283 50.484 L 220.539 50.491 L 220.797 50.5 L 221.051 50.5 L 221.312 50.491 L 221.312 50.491 L 221.571 50.439 L 221.771 50.369 L 221.93 50.269 L 222.054 50.146 L 222.146 50.021 L 222.213 49.877 L 222.261 49.738 L 222.294 49.605 L 222.294 49.605 L 222.317 49.347 L 222.236 49.129 L 222.081 48.946 L 221.863 48.798 L 221.595 48.661 L 221.285 48.533 L 220.941 48.407 L 220.595 48.268 L 220.24 48.104 L 219.903 47.919 L 219.592 47.688 L 219.307 47.413 L 219.084 47.074 L 218.924 46.676 L 218.844 46.197 L 218.853 45.633 L 218.853 45.633 L 218.898 45.284 L 218.963 44.959 L 219.053 44.655 L 219.156 44.372 L 219.295 44.106 L 219.459 43.875 L 219.644 43.654 L 219.865 43.457 L 220.123 43.29 L 220.406 43.146 L 220.728 43.014 L 221.081 42.915 L 221.478 42.836 L 221.919 42.771 L 222.396 42.737 L 222.919 42.73 L 222.919 42.73 L 223.246 42.73 L 223.549 42.737 L 223.821 42.749 L 224.071 42.756 L 224.295 42.771 L 224.496 42.791 L 224.675 42.81 L 224.831 42.827 L 224.986 42.848 L 225.109 42.87 L 225.224 42.888 L 225.33 42.903 L 225.421 42.926 L 225.496 42.936 L 225.579 42.953 L 225.649 42.96 L 225.197 44.965" fill="none"/><path d=" M 225.197 44.965 L 225.197 44.965 L 225.073 44.959 L 224.952 44.938 L 224.831 44.925 L 224.72 44.904 L 224.615 44.887 L 224.496 44.866 L 224.383 44.853 L 224.252 44.83 L 224.131 44.819 L 223.992 44.804 L 223.83 44.794 L 223.662 44.787 L 223.477 44.787 L 223.272 44.794 L 223.041 44.819 L 222.783 44.83 L 222.783 44.83 L 222.609 44.859 L 222.438 44.887 L 222.286 44.938 L 222.153 44.992 L 222.029 45.053 L 221.919 45.12 L 221.825 45.217 L 221.744 45.296 L 221.692 45.39 L 221.649 45.489 L 221.631 45.595 L 221.631 45.7 L 221.659 45.819 L 221.692 45.932 L 221.764 46.047 L 221.852 46.163 L 221.852 46.163 L 222.029 46.33 L 222.241 46.467 L 222.49 46.582 L 222.755 46.676 L 223.041 46.766 L 223.333 46.865 L 223.627 46.966 L 223.909 47.085 L 224.178 47.235 L 224.423 47.422 L 224.644 47.645 L 224.831 47.919 L 224.974 48.256 L 225.064 48.654 L 225.098 49.135 L 225.064 49.695 L 225.064 49.695 L 225.003 50.113 L 224.898 50.478 L 224.753 50.814 L 224.577 51.106 L 224.374 51.363 L 224.14 51.583 L 223.893 51.781 L 223.617 51.947 L 223.333 52.08 L 223.041 52.192 L 222.742 52.28 L 222.427 52.353 L 222.128 52.41 L 221.835 52.436 L 221.543 52.451 L 221.267 52.463 L 221.267 52.463 L 220.885 52.463 L 220.532 52.451 L 220.217 52.451 L 219.929 52.446 L 219.66 52.436 L 219.421 52.417 L 219.208 52.397 L 219.003 52.372 L 218.819 52.353 L 218.651 52.323 L 218.482 52.291 L 218.329 52.246 L 218.178 52.213 L 218.037 52.159 L 217.893 52.107 L 217.747 52.053 L 218.145 50.093 L 218.145 50.093 L 218.223 50.113 L 218.322 50.136 L 218.448 50.174 L 218.599 50.208 L 218.758 50.241 L 218.931 50.279 L 219.129 50.322 L 219.34 50.358 L 219.565 50.395 L 219.792 50.428 L 220.036 50.455 L 220.283 50.484 L 220.539 50.491 L 220.797 50.5 L 221.051 50.5 L 221.312 50.491 L 221.312 50.491 L 221.571 50.439 L 221.771 50.369 L 221.93 50.269 L 222.054 50.146 L 222.146 50.021 L 222.213 49.877 L 222.261 49.738 L 222.294 49.605 L 222.294 49.605 L 222.317 49.347 L 222.236 49.129 L 222.081 48.946 L 221.863 48.798 L 221.595 48.661 L 221.285 48.533 L 220.941 48.407 L 220.595 48.268 L 220.24 48.104 L 219.903 47.919 L 219.592 47.688 L 219.307 47.413 L 219.084 47.074 L 218.924 46.676 L 218.844 46.197 L 218.853 45.633 L 218.853 45.633 L 218.898 45.284 L 218.963 44.959 L 219.053 44.655 L 219.156 44.372 L 219.295 44.106 L 219.459 43.875 L 219.644 43.654 L 219.865 43.457 L 220.123 43.29 L 220.406 43.146 L 220.728 43.014 L 221.081 42.915 L 221.478 42.836 L 221.919 42.771 L 222.396 42.737 L 222.919 42.73 L 222.919 42.73 L 223.246 42.73 L 223.549 42.737 L 223.821 42.749 L 224.071 42.756 L 224.295 42.771 L 224.496 42.791 L 224.675 42.81 L 224.831 42.827 L 224.986 42.848 L 225.109 42.87 L 225.224 42.888 L 225.33 42.903 L 225.421 42.926 L 225.496 42.936 L 225.579 42.953 L 225.649 42.96 L 225.197 44.965" fill="none" mask="url(#_mask_JzOZfAyf9ngmBXIZeNc6aRU2HOtSqGID)" vector-effect="non-scaling-stroke" stroke-width="0.505" stroke="rgb(255,255,255)" stroke-linejoin="miter" stroke-linecap="butt" stroke-miterlimit="2.6131"/><path d=" M 227.301 40.766 L 229.755 40.766 L 229.394 42.915 L 230.875 42.915 L 230.556 44.925 L 228.996 44.88 L 228.146 49.828 L 228.135 50.003 L 228.175 50.153 L 228.267 50.269 L 228.38 50.369 L 228.544 50.428 L 228.717 50.484 L 228.915 50.522 L 229.128 50.538 L 229.32 50.529 L 229.5 50.511 L 229.659 50.484 L 229.803 50.446 L 229.919 50.412 L 229.997 50.385 L 230.048 50.369 L 230.068 50.358 L 229.755 52.008 L 229.695 52.053 L 229.632 52.087 L 229.572 52.125 L 229.51 52.159 L 229.446 52.186 L 229.374 52.213 L 229.294 52.24 L 229.214 52.267 L 229.128 52.291 L 229.037 52.312 L 228.931 52.325 L 228.828 52.35 L 228.71 52.368 L 228.578 52.384 L 228.434 52.397 L 228.284 52.417 L 227.607 52.417 L 227.256 52.391 L 226.944 52.353 L 226.665 52.301 L 226.422 52.24 L 226.217 52.159 L 226.046 52.076 L 225.903 51.966 L 225.781 51.849 L 225.694 51.723 L 225.628 51.576 L 225.587 51.424 L 225.561 51.253 L 225.554 51.068 L 225.554 50.875 L 225.579 50.671 L 225.606 50.446 L 227.301 40.766 L 227.301 40.766 L 227.301 40.766 Z " fill-rule="evenodd" fill="rgb(255,255,255)"/><mask id="_mask_GS9sKYrFK5O1cUzzr3Yap7cqDa9iEwQc" x="-200%" y="-200%" width="400%" height="400%"><rect x="-200%" y="-200%" width="400%" height="400%" style="fill:white;"/><path d=" M 227.301 40.766 L 229.755 40.766 L 229.394 42.915 L 230.875 42.915 L 230.556 44.925 L 228.996 44.88 L 228.146 49.828 L 228.146 49.828 L 228.135 50.003 L 228.175 50.153 L 228.267 50.269 L 228.38 50.369 L 228.544 50.428 L 228.717 50.484 L 228.915 50.522 L 229.128 50.538 L 229.128 50.538 L 229.32 50.529 L 229.5 50.511 L 229.659 50.484 L 229.803 50.446 L 229.919 50.412 L 229.997 50.385 L 230.048 50.369 L 230.068 50.358 L 229.755 52.008 L 229.755 52.008 L 229.695 52.053 L 229.632 52.087 L 229.572 52.125 L 229.51 52.159 L 229.446 52.186 L 229.374 52.213 L 229.294 52.24 L 229.214 52.267 L 229.128 52.291 L 229.037 52.312 L 228.931 52.325 L 228.828 52.35 L 228.71 52.368 L 228.578 52.384 L 228.434 52.397 L 228.284 52.417 L 227.607 52.417 L 227.607 52.417 L 227.256 52.391 L 226.944 52.353 L 226.665 52.301 L 226.422 52.24 L 226.217 52.159 L 226.046 52.076 L 225.903 51.966 L 225.781 51.849 L 225.694 51.723 L 225.628 51.576 L 225.587 51.424 L 225.561 51.253 L 225.554 51.068 L 225.554 50.875 L 225.579 50.671 L 225.606 50.446 L 227.301 40.766" fill="black" stroke="none"/></mask><path d=" M 227.301 40.766 L 229.755 40.766 L 229.394 42.915 L 230.875 42.915 L 230.556 44.925 L 228.996 44.88 L 228.146 49.828 L 228.146 49.828 L 228.135 50.003 L 228.175 50.153 L 228.267 50.269 L 228.38 50.369 L 228.544 50.428 L 228.717 50.484 L 228.915 50.522 L 229.128 50.538 L 229.128 50.538 L 229.32 50.529 L 229.5 50.511 L 229.659 50.484 L 229.803 50.446 L 229.919 50.412 L 229.997 50.385 L 230.048 50.369 L 230.068 50.358 L 229.755 52.008 L 229.755 52.008 L 229.695 52.053 L 229.632 52.087 L 229.572 52.125 L 229.51 52.159 L 229.446 52.186 L 229.374 52.213 L 229.294 52.24 L 229.214 52.267 L 229.128 52.291 L 229.037 52.312 L 228.931 52.325 L 228.828 52.35 L 228.71 52.368 L 228.578 52.384 L 228.434 52.397 L 228.284 52.417 L 227.607 52.417 L 227.607 52.417 L 227.256 52.391 L 226.944 52.353 L 226.665 52.301 L 226.422 52.24 L 226.217 52.159 L 226.046 52.076 L 225.903 51.966 L 225.781 51.849 L 225.694 51.723 L 225.628 51.576 L 225.587 51.424 L 225.561 51.253 L 225.554 51.068 L 225.554 50.875 L 225.579 50.671 L 225.606 50.446 L 227.301 40.766" fill="none"/><path d=" M 227.301 40.766 L 229.755 40.766 L 229.394 42.915 L 230.875 42.915 L 230.556 44.925 L 228.996 44.88 L 228.146 49.828 L 228.146 49.828 L 228.135 50.003 L 228.175 50.153 L 228.267 50.269 L 228.38 50.369 L 228.544 50.428 L 228.717 50.484 L 228.915 50.522 L 229.128 50.538 L 229.128 50.538 L 229.32 50.529 L 229.5 50.511 L 229.659 50.484 L 229.803 50.446 L 229.919 50.412 L 229.997 50.385 L 230.048 50.369 L 230.068 50.358 L 229.755 52.008 L 229.755 52.008 L 229.695 52.053 L 229.632 52.087 L 229.572 52.125 L 229.51 52.159 L 229.446 52.186 L 229.374 52.213 L 229.294 52.24 L 229.214 52.267 L 229.128 52.291 L 229.037 52.312 L 228.931 52.325 L 228.828 52.35 L 228.71 52.368 L 228.578 52.384 L 228.434 52.397 L 228.284 52.417 L 227.607 52.417 L 227.607 52.417 L 227.256 52.391 L 226.944 52.353 L 226.665 52.301 L 226.422 52.24 L 226.217 52.159 L 226.046 52.076 L 225.903 51.966 L 225.781 51.849 L 225.694 51.723 L 225.628 51.576 L 225.587 51.424 L 225.561 51.253 L 225.554 51.068 L 225.554 50.875 L 225.579 50.671 L 225.606 50.446 L 227.301 40.766" fill="none" mask="url(#_mask_GS9sKYrFK5O1cUzzr3Yap7cqDa9iEwQc)" vector-effect="non-scaling-stroke" stroke-width="0.505" stroke="rgb(255,255,255)" stroke-linejoin="miter" stroke-linecap="butt" stroke-miterlimit="2.6131"/><mask id="_mask_YJgInzHlUC82DXPTPVbm7UyeJOeIVZmP" x="-200%" y="-200%" width="400%" height="400%"><rect x="-200%" y="-200%" width="400%" height="400%" style="fill:white;"/><path d=" M 232.837 48.268 L 232.837 48.268 L 232.808 48.418 L 232.799 48.573 L 232.82 48.742 L 232.853 48.915 L 232.915 49.081 L 232.986 49.241 L 233.085 49.412 L 233.191 49.561 L 233.317 49.711 L 233.45 49.848 L 233.588 49.977 L 233.749 50.082 L 233.908 50.186 L 234.085 50.262 L 234.263 50.322 L 234.441 50.358 L 234.441 50.358 L 234.672 50.395 L 234.892 50.419 L 235.124 50.446 L 235.356 50.466 L 235.584 50.478 L 235.826 50.478 L 236.055 50.466 L 236.295 50.446 L 236.538 50.412 L 236.776 50.369 L 237.021 50.313 L 237.262 50.234 L 237.511 50.136 L 237.77 50.03 L 238.019 49.889 L 238.274 49.738 L 237.917 51.921 L 237.917 51.921 L 237.777 51.988 L 237.633 52.064 L 237.491 52.114 L 237.359 52.17 L 237.226 52.213 L 237.086 52.258 L 236.943 52.291 L 236.792 52.323 L 236.632 52.35 L 236.458 52.368 L 236.273 52.384 L 236.068 52.397 L 235.833 52.41 L 235.596 52.41 L 235.317 52.417 L 235.025 52.417 L 235.025 52.417 L 234.593 52.41 L 234.148 52.368 L 233.704 52.301 L 233.262 52.192 L 232.827 52.064 L 232.411 51.894 L 232.008 51.671 L 231.637 51.412 L 231.292 51.113 L 230.988 50.749 L 230.731 50.34 L 230.522 49.87 L 230.367 49.347 L 230.273 48.753 L 230.246 48.097 L 230.291 47.368 L 230.291 47.368 L 230.322 47.085 L 230.378 46.759 L 230.446 46.41 L 230.549 46.037 L 230.682 45.655 L 230.841 45.277 L 231.042 44.887 L 231.292 44.516 L 231.577 44.156 L 231.92 43.821 L 232.312 43.521 L 232.754 43.257 L 233.269 43.032 L 233.849 42.87 L 234.483 42.767 L 235.203 42.73 L 235.203 42.73 L 235.549 42.737 L 235.911 42.771 L 236.28 42.836 L 236.644 42.926 L 236.997 43.059 L 237.34 43.219 L 237.662 43.432 L 237.955 43.677 L 238.219 43.98 L 238.44 44.334 L 238.622 44.742 L 238.748 45.217 L 238.815 45.743 L 238.822 46.35 L 238.761 47.024 L 238.628 47.771 L 238.583 48.308 L 232.121 48.308 L 232.528 46.565 L 236.413 46.565 L 236.413 46.565 L 236.43 46.339 L 236.417 46.125 L 236.401 45.932 L 236.363 45.754 L 236.302 45.588 L 236.242 45.436 L 236.154 45.303 L 236.068 45.179 L 235.96 45.073 L 235.843 44.985 L 235.71 44.904 L 235.574 44.83 L 235.434 44.781 L 235.291 44.742 L 235.142 44.716 L 234.982 44.7 L 234.982 44.7 L 234.814 44.704 L 234.654 44.731 L 234.505 44.771 L 234.351 44.821 L 234.203 44.897 L 234.07 44.977 L 233.932 45.073 L 233.823 45.179 L 233.704 45.303 L 233.595 45.436 L 233.5 45.576 L 233.422 45.728 L 233.339 45.892 L 233.279 46.064 L 233.224 46.242 L 233.191 46.429 L 232.837 48.268" fill="black" stroke="none"/></mask><path d=" M 232.837 48.268 L 232.837 48.268 L 232.808 48.418 L 232.799 48.573 L 232.82 48.742 L 232.853 48.915 L 232.915 49.081 L 232.986 49.241 L 233.085 49.412 L 233.191 49.561 L 233.317 49.711 L 233.45 49.848 L 233.588 49.977 L 233.749 50.082 L 233.908 50.186 L 234.085 50.262 L 234.263 50.322 L 234.441 50.358 L 234.441 50.358 L 234.672 50.395 L 234.892 50.419 L 235.124 50.446 L 235.356 50.466 L 235.584 50.478 L 235.826 50.478 L 236.055 50.466 L 236.295 50.446 L 236.538 50.412 L 236.776 50.369 L 237.021 50.313 L 237.262 50.234 L 237.511 50.136 L 237.77 50.03 L 238.019 49.889 L 238.274 49.738 L 237.917 51.921 L 237.917 51.921 L 237.777 51.988 L 237.633 52.064 L 237.491 52.114 L 237.359 52.17 L 237.226 52.213 L 237.086 52.258 L 236.943 52.291 L 236.792 52.323 L 236.632 52.35 L 236.458 52.368 L 236.273 52.384 L 236.068 52.397 L 235.833 52.41 L 235.596 52.41 L 235.317 52.417 L 235.025 52.417 L 235.025 52.417 L 234.593 52.41 L 234.148 52.368 L 233.704 52.301 L 233.262 52.192 L 232.827 52.064 L 232.411 51.894 L 232.008 51.671 L 231.637 51.412 L 231.292 51.113 L 230.988 50.749 L 230.731 50.34 L 230.522 49.87 L 230.367 49.347 L 230.273 48.753 L 230.246 48.097 L 230.291 47.368 L 230.291 47.368 L 230.322 47.085 L 230.378 46.759 L 230.446 46.41 L 230.549 46.037 L 230.682 45.655 L 230.841 45.277 L 231.042 44.887 L 231.292 44.516 L 231.577 44.156 L 231.92 43.821 L 232.312 43.521 L 232.754 43.257 L 233.269 43.032 L 233.849 42.87 L 234.483 42.767 L 235.203 42.73 L 235.203 42.73 L 235.549 42.737 L 235.911 42.771 L 236.28 42.836 L 236.644 42.926 L 236.997 43.059 L 237.34 43.219 L 237.662 43.432 L 237.955 43.677 L 238.219 43.98 L 238.44 44.334 L 238.622 44.742 L 238.748 45.217 L 238.815 45.743 L 238.822 46.35 L 238.761 47.024 L 238.628 47.771 L 238.583 48.308 L 232.121 48.308 L 232.528 46.565 L 236.413 46.565 L 236.413 46.565 L 236.43 46.339 L 236.417 46.125 L 236.401 45.932 L 236.363 45.754 L 236.302 45.588 L 236.242 45.436 L 236.154 45.303 L 236.068 45.179 L 235.96 45.073 L 235.843 44.985 L 235.71 44.904 L 235.574 44.83 L 235.434 44.781 L 235.291 44.742 L 235.142 44.716 L 234.982 44.7 L 234.982 44.7 L 234.814 44.704 L 234.654 44.731 L 234.505 44.771 L 234.351 44.821 L 234.203 44.897 L 234.07 44.977 L 233.932 45.073 L 233.823 45.179 L 233.704 45.303 L 233.595 45.436 L 233.5 45.576 L 233.422 45.728 L 233.339 45.892 L 233.279 46.064 L 233.224 46.242 L 233.191 46.429 L 232.837 48.268" fill="none"/><path d=" M 232.837 48.268 L 232.837 48.268 L 232.808 48.418 L 232.799 48.573 L 232.82 48.742 L 232.853 48.915 L 232.915 49.081 L 232.986 49.241 L 233.085 49.412 L 233.191 49.561 L 233.317 49.711 L 233.45 49.848 L 233.588 49.977 L 233.749 50.082 L 233.908 50.186 L 234.085 50.262 L 234.263 50.322 L 234.441 50.358 L 234.441 50.358 L 234.672 50.395 L 234.892 50.419 L 235.124 50.446 L 235.356 50.466 L 235.584 50.478 L 235.826 50.478 L 236.055 50.466 L 236.295 50.446 L 236.538 50.412 L 236.776 50.369 L 237.021 50.313 L 237.262 50.234 L 237.511 50.136 L 237.77 50.03 L 238.019 49.889 L 238.274 49.738 L 237.917 51.921 L 237.917 51.921 L 237.777 51.988 L 237.633 52.064 L 237.491 52.114 L 237.359 52.17 L 237.226 52.213 L 237.086 52.258 L 236.943 52.291 L 236.792 52.323 L 236.632 52.35 L 236.458 52.368 L 236.273 52.384 L 236.068 52.397 L 235.833 52.41 L 235.596 52.41 L 235.317 52.417 L 235.025 52.417 L 235.025 52.417 L 234.593 52.41 L 234.148 52.368 L 233.704 52.301 L 233.262 52.192 L 232.827 52.064 L 232.411 51.894 L 232.008 51.671 L 231.637 51.412 L 231.292 51.113 L 230.988 50.749 L 230.731 50.34 L 230.522 49.87 L 230.367 49.347 L 230.273 48.753 L 230.246 48.097 L 230.291 47.368 L 230.291 47.368 L 230.322 47.085 L 230.378 46.759 L 230.446 46.41 L 230.549 46.037 L 230.682 45.655 L 230.841 45.277 L 231.042 44.887 L 231.292 44.516 L 231.577 44.156 L 231.92 43.821 L 232.312 43.521 L 232.754 43.257 L 233.269 43.032 L 233.849 42.87 L 234.483 42.767 L 235.203 42.73 L 235.203 42.73 L 235.549 42.737 L 235.911 42.771 L 236.28 42.836 L 236.644 42.926 L 236.997 43.059 L 237.34 43.219 L 237.662 43.432 L 237.955 43.677 L 238.219 43.98 L 238.44 44.334 L 238.622 44.742 L 238.748 45.217 L 238.815 45.743 L 238.822 46.35 L 238.761 47.024 L 238.628 47.771 L 238.583 48.308 L 232.121 48.308 L 232.528 46.565 L 236.413 46.565 L 236.413 46.565 L 236.43 46.339 L 236.417 46.125 L 236.401 45.932 L 236.363 45.754 L 236.302 45.588 L 236.242 45.436 L 236.154 45.303 L 236.068 45.179 L 235.96 45.073 L 235.843 44.985 L 235.71 44.904 L 235.574 44.83 L 235.434 44.781 L 235.291 44.742 L 235.142 44.716 L 234.982 44.7 L 234.982 44.7 L 234.814 44.704 L 234.654 44.731 L 234.505 44.771 L 234.351 44.821 L 234.203 44.897 L 234.07 44.977 L 233.932 45.073 L 233.823 45.179 L 233.704 45.303 L 233.595 45.436 L 233.5 45.576 L 233.422 45.728 L 233.339 45.892 L 233.279 46.064 L 233.224 46.242 L 233.191 46.429 L 232.837 48.268" fill="none" mask="url(#_mask_YJgInzHlUC82DXPTPVbm7UyeJOeIVZmP)" vector-effect="non-scaling-stroke" stroke-width="0.505" stroke="rgb(255,255,255)" stroke-linejoin="miter" stroke-linecap="butt" stroke-miterlimit="2.6131"/><path d=" M 253.994 43.45 L 253.877 43.385 L 253.762 43.333 L 253.639 43.268 L 253.506 43.212 L 253.369 43.153 L 253.22 43.102 L 253.07 43.048 L 252.911 42.998 L 252.744 42.953 L 252.574 42.915 L 252.386 42.877 L 252.205 42.854 L 251.998 42.836 L 251.795 42.82 L 251.584 42.82 L 251.357 42.82 L 251.137 42.82 L 250.905 42.836 L 250.667 42.865 L 250.419 42.903 L 250.17 42.976 L 249.922 43.074 L 249.673 43.2 L 249.423 43.36 L 249.185 43.556 L 248.954 43.787 L 248.734 44.068 L 248.522 44.396 L 248.325 44.787 L 248.138 45.23 L 247.971 45.728 L 247.833 46.296 L 247.771 46.615 L 247.738 46.926 L 247.722 47.235 L 247.729 47.539 L 247.755 47.838 L 247.817 48.126 L 247.895 48.392 L 247.999 48.654 L 248.126 48.896 L 248.291 49.129 L 248.475 49.328 L 248.689 49.518 L 248.927 49.677 L 249.204 49.81 L 249.502 49.924 L 249.844 50.003 L 249.958 50.03 L 250.091 50.057 L 250.253 50.075 L 250.428 50.093 L 250.622 50.113 L 250.827 50.113 L 251.044 50.113 L 251.269 50.093 L 251.5 50.063 L 251.733 50.021 L 251.955 49.958 L 252.175 49.889 L 252.398 49.792 L 252.6 49.677 L 252.785 49.538 L 252.964 49.373 L 252.567 51.743 L 252.512 51.788 L 252.458 51.842 L 252.386 51.902 L 252.308 51.954 L 252.213 52.026 L 252.087 52.087 L 251.944 52.152 L 251.785 52.201 L 251.584 52.267 L 251.348 52.312 L 251.083 52.35 L 250.773 52.384 L 250.428 52.397 L 250.031 52.41 L 249.579 52.397 L 249.08 52.372 L 248.668 52.325 L 248.264 52.24 L 247.855 52.107 L 247.446 51.928 L 247.054 51.716 L 246.683 51.451 L 246.331 51.141 L 246 50.787 L 245.706 50.385 L 245.458 49.942 L 245.247 49.445 L 245.087 48.903 L 244.982 48.308 L 244.944 47.681 L 244.961 46.99 L 245.06 46.251 L 245.13 45.892 L 245.208 45.534 L 245.301 45.189 L 245.386 44.859 L 245.485 44.549 L 245.6 44.241 L 245.716 43.949 L 245.842 43.67 L 245.977 43.396 L 246.108 43.14 L 246.258 42.888 L 246.418 42.661 L 246.578 42.434 L 246.755 42.225 L 246.933 42.029 L 247.12 41.843 L 247.324 41.665 L 247.524 41.499 L 247.738 41.346 L 247.964 41.202 L 248.203 41.069 L 248.441 40.957 L 248.689 40.849 L 248.945 40.752 L 249.224 40.66 L 249.496 40.593 L 249.777 40.527 L 250.083 40.474 L 250.381 40.429 L 250.701 40.395 L 251.022 40.379 L 251.357 40.368 L 251.645 40.379 L 251.917 40.395 L 252.187 40.422 L 252.448 40.46 L 252.699 40.494 L 252.937 40.546 L 253.169 40.593 L 253.38 40.645 L 253.584 40.698 L 253.762 40.752 L 253.933 40.804 L 254.071 40.858 L 254.199 40.898 L 254.304 40.937 L 254.385 40.975 L 254.437 40.993 L 253.994 43.45 L 253.994 43.45 L 253.994 43.45 Z " fill-rule="evenodd" fill="rgb(255,255,255)"/><mask id="_mask_e2yhuRDIEeERdI2kYrPQ3GYSI5HKu8kG" x="-200%" y="-200%" width="400%" height="400%"><rect x="-200%" y="-200%" width="400%" height="400%" style="fill:white;"/><path d=" M 253.994 43.45 L 253.994 43.45 L 253.877 43.385 L 253.762 43.333 L 253.639 43.268 L 253.506 43.212 L 253.369 43.153 L 253.22 43.102 L 253.07 43.048 L 252.911 42.998 L 252.744 42.953 L 252.574 42.915 L 252.386 42.877 L 252.205 42.854 L 251.998 42.836 L 251.795 42.82 L 251.584 42.82 L 251.357 42.82 L 251.357 42.82 L 251.137 42.82 L 250.905 42.836 L 250.667 42.865 L 250.419 42.903 L 250.17 42.976 L 249.922 43.074 L 249.673 43.2 L 249.423 43.36 L 249.185 43.556 L 248.954 43.787 L 248.734 44.068 L 248.522 44.396 L 248.325 44.787 L 248.138 45.23 L 247.971 45.728 L 247.833 46.296 L 247.833 46.296 L 247.771 46.615 L 247.738 46.926 L 247.722 47.235 L 247.729 47.539 L 247.755 47.838 L 247.817 48.126 L 247.895 48.392 L 247.999 48.654 L 248.126 48.896 L 248.291 49.129 L 248.475 49.328 L 248.689 49.518 L 248.927 49.677 L 249.204 49.81 L 249.502 49.924 L 249.844 50.003 L 249.844 50.003 L 249.958 50.03 L 250.091 50.057 L 250.253 50.075 L 250.428 50.093 L 250.622 50.113 L 250.827 50.113 L 251.044 50.113 L 251.269 50.093 L 251.5 50.063 L 251.733 50.021 L 251.955 49.958 L 252.175 49.889 L 252.398 49.792 L 252.6 49.677 L 252.785 49.538 L 252.964 49.373 L 252.567 51.743 L 252.567 51.743 L 252.512 51.788 L 252.458 51.842 L 252.386 51.902 L 252.308 51.954 L 252.213 52.026 L 252.087 52.087 L 251.944 52.152 L 251.785 52.201 L 251.584 52.267 L 251.348 52.312 L 251.083 52.35 L 250.773 52.384 L 250.428 52.397 L 250.031 52.41 L 249.579 52.397 L 249.08 52.372 L 249.08 52.372 L 248.668 52.325 L 248.264 52.24 L 247.855 52.107 L 247.446 51.928 L 247.054 51.716 L 246.683 51.451 L 246.331 51.141 L 246 50.787 L 245.706 50.385 L 245.458 49.942 L 245.247 49.445 L 245.087 48.903 L 244.982 48.308 L 244.944 47.681 L 244.961 46.99 L 245.06 46.251 L 245.06 46.251 L 245.13 45.892 L 245.208 45.534 L 245.301 45.189 L 245.386 44.859 L 245.485 44.549 L 245.6 44.241 L 245.716 43.949 L 245.842 43.67 L 245.977 43.396 L 246.108 43.14 L 246.258 42.888 L 246.418 42.661 L 246.578 42.434 L 246.755 42.225 L 246.933 42.029 L 247.12 41.843 L 247.324 41.665 L 247.524 41.499 L 247.738 41.346 L 247.964 41.202 L 248.203 41.069 L 248.441 40.957 L 248.689 40.849 L 248.945 40.752 L 249.224 40.66 L 249.496 40.593 L 249.777 40.527 L 250.083 40.474 L 250.381 40.429 L 250.701 40.395 L 251.022 40.379 L 251.357 40.368 L 251.357 40.368 L 251.645 40.379 L 251.917 40.395 L 252.187 40.422 L 252.448 40.46 L 252.699 40.494 L 252.937 40.546 L 253.169 40.593 L 253.38 40.645 L 253.584 40.698 L 253.762 40.752 L 253.933 40.804 L 254.071 40.858 L 254.199 40.898 L 254.304 40.937 L 254.385 40.975 L 254.437 40.993 L 253.994 43.45" fill="black" stroke="none"/></mask><path d=" M 253.994 43.45 L 253.994 43.45 L 253.877 43.385 L 253.762 43.333 L 253.639 43.268 L 253.506 43.212 L 253.369 43.153 L 253.22 43.102 L 253.07 43.048 L 252.911 42.998 L 252.744 42.953 L 252.574 42.915 L 252.386 42.877 L 252.205 42.854 L 251.998 42.836 L 251.795 42.82 L 251.584 42.82 L 251.357 42.82 L 251.357 42.82 L 251.137 42.82 L 250.905 42.836 L 250.667 42.865 L 250.419 42.903 L 250.17 42.976 L 249.922 43.074 L 249.673 43.2 L 249.423 43.36 L 249.185 43.556 L 248.954 43.787 L 248.734 44.068 L 248.522 44.396 L 248.325 44.787 L 248.138 45.23 L 247.971 45.728 L 247.833 46.296 L 247.833 46.296 L 247.771 46.615 L 247.738 46.926 L 247.722 47.235 L 247.729 47.539 L 247.755 47.838 L 247.817 48.126 L 247.895 48.392 L 247.999 48.654 L 248.126 48.896 L 248.291 49.129 L 248.475 49.328 L 248.689 49.518 L 248.927 49.677 L 249.204 49.81 L 249.502 49.924 L 249.844 50.003 L 249.844 50.003 L 249.958 50.03 L 250.091 50.057 L 250.253 50.075 L 250.428 50.093 L 250.622 50.113 L 250.827 50.113 L 251.044 50.113 L 251.269 50.093 L 251.5 50.063 L 251.733 50.021 L 251.955 49.958 L 252.175 49.889 L 252.398 49.792 L 252.6 49.677 L 252.785 49.538 L 252.964 49.373 L 252.567 51.743 L 252.567 51.743 L 252.512 51.788 L 252.458 51.842 L 252.386 51.902 L 252.308 51.954 L 252.213 52.026 L 252.087 52.087 L 251.944 52.152 L 251.785 52.201 L 251.584 52.267 L 251.348 52.312 L 251.083 52.35 L 250.773 52.384 L 250.428 52.397 L 250.031 52.41 L 249.579 52.397 L 249.08 52.372 L 249.08 52.372 L 248.668 52.325 L 248.264 52.24 L 247.855 52.107 L 247.446 51.928 L 247.054 51.716 L 246.683 51.451 L 246.331 51.141 L 246 50.787 L 245.706 50.385 L 245.458 49.942 L 245.247 49.445 L 245.087 48.903 L 244.982 48.308 L 244.944 47.681 L 244.961 46.99 L 245.06 46.251 L 245.06 46.251 L 245.13 45.892 L 245.208 45.534 L 245.301 45.189 L 245.386 44.859 L 245.485 44.549 L 245.6 44.241 L 245.716 43.949 L 245.842 43.67 L 245.977 43.396 L 246.108 43.14 L 246.258 42.888 L 246.418 42.661 L 246.578 42.434 L 246.755 42.225 L 246.933 42.029 L 247.12 41.843 L 247.324 41.665 L 247.524 41.499 L 247.738 41.346 L 247.964 41.202 L 248.203 41.069 L 248.441 40.957 L 248.689 40.849 L 248.945 40.752 L 249.224 40.66 L 249.496 40.593 L 249.777 40.527 L 250.083 40.474 L 250.381 40.429 L 250.701 40.395 L 251.022 40.379 L 251.357 40.368 L 251.357 40.368 L 251.645 40.379 L 251.917 40.395 L 252.187 40.422 L 252.448 40.46 L 252.699 40.494 L 252.937 40.546 L 253.169 40.593 L 253.38 40.645 L 253.584 40.698 L 253.762 40.752 L 253.933 40.804 L 254.071 40.858 L 254.199 40.898 L 254.304 40.937 L 254.385 40.975 L 254.437 40.993 L 253.994 43.45" fill="none"/><path d=" M 253.994 43.45 L 253.994 43.45 L 253.877 43.385 L 253.762 43.333 L 253.639 43.268 L 253.506 43.212 L 253.369 43.153 L 253.22 43.102 L 253.07 43.048 L 252.911 42.998 L 252.744 42.953 L 252.574 42.915 L 252.386 42.877 L 252.205 42.854 L 251.998 42.836 L 251.795 42.82 L 251.584 42.82 L 251.357 42.82 L 251.357 42.82 L 251.137 42.82 L 250.905 42.836 L 250.667 42.865 L 250.419 42.903 L 250.17 42.976 L 249.922 43.074 L 249.673 43.2 L 249.423 43.36 L 249.185 43.556 L 248.954 43.787 L 248.734 44.068 L 248.522 44.396 L 248.325 44.787 L 248.138 45.23 L 247.971 45.728 L 247.833 46.296 L 247.833 46.296 L 247.771 46.615 L 247.738 46.926 L 247.722 47.235 L 247.729 47.539 L 247.755 47.838 L 247.817 48.126 L 247.895 48.392 L 247.999 48.654 L 248.126 48.896 L 248.291 49.129 L 248.475 49.328 L 248.689 49.518 L 248.927 49.677 L 249.204 49.81 L 249.502 49.924 L 249.844 50.003 L 249.844 50.003 L 249.958 50.03 L 250.091 50.057 L 250.253 50.075 L 250.428 50.093 L 250.622 50.113 L 250.827 50.113 L 251.044 50.113 L 251.269 50.093 L 251.5 50.063 L 251.733 50.021 L 251.955 49.958 L 252.175 49.889 L 252.398 49.792 L 252.6 49.677 L 252.785 49.538 L 252.964 49.373 L 252.567 51.743 L 252.567 51.743 L 252.512 51.788 L 252.458 51.842 L 252.386 51.902 L 252.308 51.954 L 252.213 52.026 L 252.087 52.087 L 251.944 52.152 L 251.785 52.201 L 251.584 52.267 L 251.348 52.312 L 251.083 52.35 L 250.773 52.384 L 250.428 52.397 L 250.031 52.41 L 249.579 52.397 L 249.08 52.372 L 249.08 52.372 L 248.668 52.325 L 248.264 52.24 L 247.855 52.107 L 247.446 51.928 L 247.054 51.716 L 246.683 51.451 L 246.331 51.141 L 246 50.787 L 245.706 50.385 L 245.458 49.942 L 245.247 49.445 L 245.087 48.903 L 244.982 48.308 L 244.944 47.681 L 244.961 46.99 L 245.06 46.251 L 245.06 46.251 L 245.13 45.892 L 245.208 45.534 L 245.301 45.189 L 245.386 44.859 L 245.485 44.549 L 245.6 44.241 L 245.716 43.949 L 245.842 43.67 L 245.977 43.396 L 246.108 43.14 L 246.258 42.888 L 246.418 42.661 L 246.578 42.434 L 246.755 42.225 L 246.933 42.029 L 247.12 41.843 L 247.324 41.665 L 247.524 41.499 L 247.738 41.346 L 247.964 41.202 L 248.203 41.069 L 248.441 40.957 L 248.689 40.849 L 248.945 40.752 L 249.224 40.66 L 249.496 40.593 L 249.777 40.527 L 250.083 40.474 L 250.381 40.429 L 250.701 40.395 L 251.022 40.379 L 251.357 40.368 L 251.357 40.368 L 251.645 40.379 L 251.917 40.395 L 252.187 40.422 L 252.448 40.46 L 252.699 40.494 L 252.937 40.546 L 253.169 40.593 L 253.38 40.645 L 253.584 40.698 L 253.762 40.752 L 253.933 40.804 L 254.071 40.858 L 254.199 40.898 L 254.304 40.937 L 254.385 40.975 L 254.437 40.993 L 253.994 43.45" fill="none" mask="url(#_mask_e2yhuRDIEeERdI2kYrPQ3GYSI5HKu8kG)" vector-effect="non-scaling-stroke" stroke-width="0.505" stroke="rgb(255,255,255)" stroke-linejoin="miter" stroke-linecap="butt" stroke-miterlimit="2.6131"/><path d=" M 275.835 52.417 L 273.376 52.417 L 273.554 51.436 L 273.554 51.345 L 273.411 51.522 L 273.264 51.678 L 273.111 51.821 L 272.952 51.947 L 272.79 52.064 L 272.634 52.159 L 272.47 52.24 L 272.304 52.323 L 272.138 52.384 L 271.967 52.429 L 271.796 52.472 L 271.619 52.494 L 271.443 52.523 L 271.272 52.539 L 271.099 52.55 L 270.921 52.55 L 270.458 52.517 L 270.034 52.417 L 269.645 52.267 L 269.292 52.064 L 268.972 51.804 L 268.685 51.505 L 268.435 51.174 L 268.222 50.806 L 268.044 50.4 L 267.905 49.985 L 267.81 49.551 L 267.739 49.102 L 267.711 48.646 L 267.713 48.185 L 267.761 47.732 L 267.839 47.28 L 267.977 46.759 L 268.134 46.258 L 268.321 45.809 L 268.542 45.383 L 268.773 44.985 L 269.038 44.628 L 269.314 44.311 L 269.609 44.015 L 269.921 43.756 L 270.248 43.538 L 270.584 43.345 L 270.921 43.191 L 271.272 43.063 L 271.629 42.987 L 271.985 42.936 L 272.347 42.915 L 272.608 42.926 L 272.855 42.953 L 273.084 42.998 L 273.298 43.059 L 273.502 43.131 L 273.68 43.212 L 273.858 43.307 L 274.017 43.405 L 274.159 43.511 L 274.292 43.628 L 274.404 43.742 L 274.514 43.854 L 274.602 43.974 L 274.68 44.086 L 274.752 44.191 L 274.806 44.3 L 274.806 44.3 L 275.431 40.815 L 277.841 40.815 L 275.835 52.417 L 275.835 52.417 L 275.835 52.417 Z " fill-rule="evenodd" fill="rgb(255,255,255)"/><mask id="_mask_gwU9J5J5h5NhoXuc6HGGpeQ6xu7fDYd3" x="-200%" y="-200%" width="400%" height="400%"><rect x="-200%" y="-200%" width="400%" height="400%" style="fill:white;"/><path d=" M 275.835 52.417 L 273.376 52.417 L 273.554 51.436 L 273.554 51.345 L 273.554 51.345 L 273.411 51.522 L 273.264 51.678 L 273.111 51.821 L 272.952 51.947 L 272.79 52.064 L 272.634 52.159 L 272.47 52.24 L 272.304 52.323 L 272.138 52.384 L 271.967 52.429 L 271.796 52.472 L 271.619 52.494 L 271.443 52.523 L 271.272 52.539 L 271.099 52.55 L 270.921 52.55 L 270.921 52.55 L 270.458 52.517 L 270.034 52.417 L 269.645 52.267 L 269.292 52.064 L 268.972 51.804 L 268.685 51.505 L 268.435 51.174 L 268.222 50.806 L 268.044 50.4 L 267.905 49.985 L 267.81 49.551 L 267.739 49.102 L 267.711 48.646 L 267.713 48.185 L 267.761 47.732 L 267.839 47.28 L 267.839 47.28 L 267.977 46.759 L 268.134 46.258 L 268.321 45.809 L 268.542 45.383 L 268.773 44.985 L 269.038 44.628 L 269.314 44.311 L 269.609 44.015 L 269.921 43.756 L 270.248 43.538 L 270.584 43.345 L 270.921 43.191 L 271.272 43.063 L 271.629 42.987 L 271.985 42.936 L 272.347 42.915 L 272.347 42.915 L 272.608 42.926 L 272.855 42.953 L 273.084 42.998 L 273.298 43.059 L 273.502 43.131 L 273.68 43.212 L 273.858 43.307 L 274.017 43.405 L 274.159 43.511 L 274.292 43.628 L 274.404 43.742 L 274.514 43.854 L 274.602 43.974 L 274.68 44.086 L 274.752 44.191 L 274.806 44.3 L 274.806 44.3 L 275.431 40.815 L 277.841 40.815 L 275.835 52.417" fill="black" stroke="none"/></mask><path d=" M 275.835 52.417 L 273.376 52.417 L 273.554 51.436 L 273.554 51.345 L 273.554 51.345 L 273.411 51.522 L 273.264 51.678 L 273.111 51.821 L 272.952 51.947 L 272.79 52.064 L 272.634 52.159 L 272.47 52.24 L 272.304 52.323 L 272.138 52.384 L 271.967 52.429 L 271.796 52.472 L 271.619 52.494 L 271.443 52.523 L 271.272 52.539 L 271.099 52.55 L 270.921 52.55 L 270.921 52.55 L 270.458 52.517 L 270.034 52.417 L 269.645 52.267 L 269.292 52.064 L 268.972 51.804 L 268.685 51.505 L 268.435 51.174 L 268.222 50.806 L 268.044 50.4 L 267.905 49.985 L 267.81 49.551 L 267.739 49.102 L 267.711 48.646 L 267.713 48.185 L 267.761 47.732 L 267.839 47.28 L 267.839 47.28 L 267.977 46.759 L 268.134 46.258 L 268.321 45.809 L 268.542 45.383 L 268.773 44.985 L 269.038 44.628 L 269.314 44.311 L 269.609 44.015 L 269.921 43.756 L 270.248 43.538 L 270.584 43.345 L 270.921 43.191 L 271.272 43.063 L 271.629 42.987 L 271.985 42.936 L 272.347 42.915 L 272.347 42.915 L 272.608 42.926 L 272.855 42.953 L 273.084 42.998 L 273.298 43.059 L 273.502 43.131 L 273.68 43.212 L 273.858 43.307 L 274.017 43.405 L 274.159 43.511 L 274.292 43.628 L 274.404 43.742 L 274.514 43.854 L 274.602 43.974 L 274.68 44.086 L 274.752 44.191 L 274.806 44.3 L 274.806 44.3 L 275.431 40.815 L 277.841 40.815 L 275.835 52.417" fill="none"/><path d=" M 275.835 52.417 L 273.376 52.417 L 273.554 51.436 L 273.554 51.345 L 273.554 51.345 L 273.411 51.522 L 273.264 51.678 L 273.111 51.821 L 272.952 51.947 L 272.79 52.064 L 272.634 52.159 L 272.47 52.24 L 272.304 52.323 L 272.138 52.384 L 271.967 52.429 L 271.796 52.472 L 271.619 52.494 L 271.443 52.523 L 271.272 52.539 L 271.099 52.55 L 270.921 52.55 L 270.921 52.55 L 270.458 52.517 L 270.034 52.417 L 269.645 52.267 L 269.292 52.064 L 268.972 51.804 L 268.685 51.505 L 268.435 51.174 L 268.222 50.806 L 268.044 50.4 L 267.905 49.985 L 267.81 49.551 L 267.739 49.102 L 267.711 48.646 L 267.713 48.185 L 267.761 47.732 L 267.839 47.28 L 267.839 47.28 L 267.977 46.759 L 268.134 46.258 L 268.321 45.809 L 268.542 45.383 L 268.773 44.985 L 269.038 44.628 L 269.314 44.311 L 269.609 44.015 L 269.921 43.756 L 270.248 43.538 L 270.584 43.345 L 270.921 43.191 L 271.272 43.063 L 271.629 42.987 L 271.985 42.936 L 272.347 42.915 L 272.347 42.915 L 272.608 42.926 L 272.855 42.953 L 273.084 42.998 L 273.298 43.059 L 273.502 43.131 L 273.68 43.212 L 273.858 43.307 L 274.017 43.405 L 274.159 43.511 L 274.292 43.628 L 274.404 43.742 L 274.514 43.854 L 274.602 43.974 L 274.68 44.086 L 274.752 44.191 L 274.806 44.3 L 274.806 44.3 L 275.431 40.815 L 277.841 40.815 L 275.835 52.417" fill="none" mask="url(#_mask_gwU9J5J5h5NhoXuc6HGGpeQ6xu7fDYd3)" vector-effect="non-scaling-stroke" stroke-width="0.505" stroke="rgb(255,255,255)" stroke-linejoin="miter" stroke-linecap="butt" stroke-miterlimit="2.6131"/><path d=" M 271.817 50.269 L 272.061 50.253 L 272.297 50.201 L 272.509 50.136 L 272.713 50.041 L 272.9 49.931 L 273.073 49.799 L 273.249 49.65 L 273.392 49.49 L 273.53 49.313 L 273.653 49.115 L 273.768 48.915 L 273.867 48.703 L 273.952 48.477 L 274.024 48.247 L 274.087 48.005 L 274.132 47.771 L 274.177 47.521 L 274.204 47.263 L 274.204 47.024 L 274.195 46.777 L 274.17 46.543 L 274.132 46.323 L 274.071 46.107 L 274 45.905 L 273.912 45.728 L 273.801 45.561 L 273.687 45.412 L 273.554 45.296 L 273.404 45.189 L 273.249 45.118 L 273.073 45.073 L 272.891 45.053 L 272.648 45.073 L 272.43 45.106 L 272.225 45.179 L 272.021 45.267 L 271.845 45.383 L 271.664 45.527 L 271.515 45.676 L 271.36 45.847 L 271.232 46.037 L 271.106 46.242 L 270.989 46.456 L 270.895 46.683 L 270.802 46.926 L 270.735 47.168 L 270.664 47.422 L 270.609 47.681 L 270.564 48.069 L 270.584 48.499 L 270.645 48.931 L 270.762 49.347 L 270.94 49.711 L 271.167 50.003 L 271.458 50.201 L 271.817 50.269 L 271.817 50.269 L 271.817 50.269 Z " fill-rule="evenodd" fill="rgb(251,178,49)"/><path d=" M 217.337 50.446 L 216.985 52.417 L 214.744 52.417 L 214.808 52.053 L 214.853 51.723 L 214.887 51.478 L 214.923 51.345 L 214.802 51.489 L 214.658 51.628 L 214.49 51.761 L 214.3 51.887 L 214.089 52.008 L 213.869 52.114 L 213.637 52.22 L 213.399 52.312 L 213.136 52.391 L 212.882 52.451 L 212.625 52.508 L 212.365 52.539 L 212.102 52.557 L 211.843 52.565 L 211.598 52.539 L 211.356 52.508 L 211.045 52.429 L 210.764 52.339 L 210.515 52.22 L 210.29 52.087 L 210.096 51.947 L 209.919 51.788 L 209.78 51.617 L 209.654 51.444 L 209.548 51.253 L 209.46 51.06 L 209.388 50.866 L 209.334 50.671 L 209.301 50.466 L 209.274 50.262 L 209.256 50.063 L 209.256 49.87 L 209.283 49.526 L 209.334 49.196 L 209.422 48.888 L 209.54 48.584 L 209.681 48.301 L 209.84 48.043 L 210.025 47.798 L 210.241 47.573 L 210.46 47.368 L 210.708 47.18 L 210.969 47.016 L 211.234 46.871 L 211.515 46.75 L 211.81 46.653 L 212.111 46.572 L 212.423 46.517 L 212.439 46.517 L 212.484 46.508 L 212.549 46.501 L 212.641 46.489 L 212.75 46.474 L 212.875 46.467 L 213.008 46.449 L 213.161 46.429 L 213.307 46.41 L 213.462 46.391 L 213.622 46.384 L 213.763 46.363 L 213.903 46.361 L 214.036 46.35 L 214.161 46.339 L 214.257 46.339 L 214.464 46.339 L 214.676 46.35 L 214.874 46.361 L 215.067 46.361 L 215.224 46.363 L 215.35 46.377 L 215.438 46.384 L 215.465 46.384 L 215.483 46.323 L 215.537 46.163 L 215.582 45.977 L 215.597 45.809 L 215.562 45.615 L 215.483 45.436 L 215.377 45.277 L 215.234 45.145 L 215.067 45.025 L 214.88 44.951 L 214.669 44.897 L 214.438 44.88 L 214.19 44.866 L 213.92 44.859 L 213.644 44.859 L 213.366 44.866 L 213.069 44.887 L 212.786 44.913 L 212.5 44.938 L 212.228 44.977 L 211.958 45.013 L 211.704 45.053 L 211.472 45.098 L 211.261 45.145 L 211.068 45.197 L 210.904 45.251 L 210.783 45.312 L 210.686 45.363 L 211.313 43.226 L 211.506 43.146 L 211.704 43.074 L 211.917 43.014 L 212.128 42.969 L 212.344 42.926 L 212.572 42.888 L 212.803 42.854 L 213.042 42.836 L 213.293 42.82 L 213.549 42.81 L 213.82 42.798 L 214.089 42.798 L 214.373 42.798 L 214.669 42.798 L 214.979 42.81 L 215.29 42.82 L 215.537 42.836 L 215.802 42.877 L 216.079 42.946 L 216.358 43.021 L 216.638 43.131 L 216.902 43.257 L 217.169 43.405 L 217.42 43.571 L 217.636 43.77 L 217.833 43.98 L 218.014 44.224 L 218.145 44.488 L 218.23 44.771 L 218.284 45.073 L 218.284 45.41 L 218.23 45.761 L 217.337 50.446 L 217.337 50.446 L 217.337 50.446 Z " fill-rule="evenodd" fill="rgb(255,255,255)"/><mask id="_mask_X48dR3wFyZb4encrg127OfrjG4Ewv0Z5" x="-200%" y="-200%" width="400%" height="400%"><rect x="-200%" y="-200%" width="400%" height="400%" style="fill:white;"/><path d=" M 217.337 50.446 L 216.985 52.417 L 214.744 52.417 L 214.744 52.417 L 214.808 52.053 L 214.853 51.723 L 214.887 51.478 L 214.923 51.345 L 214.923 51.345 L 214.802 51.489 L 214.658 51.628 L 214.49 51.761 L 214.3 51.887 L 214.089 52.008 L 213.869 52.114 L 213.637 52.22 L 213.399 52.312 L 213.136 52.391 L 212.882 52.451 L 212.625 52.508 L 212.365 52.539 L 212.102 52.557 L 211.843 52.565 L 211.598 52.539 L 211.356 52.508 L 211.356 52.508 L 211.045 52.429 L 210.764 52.339 L 210.515 52.22 L 210.29 52.087 L 210.096 51.947 L 209.919 51.788 L 209.78 51.617 L 209.654 51.444 L 209.548 51.253 L 209.46 51.06 L 209.388 50.866 L 209.334 50.671 L 209.301 50.466 L 209.274 50.262 L 209.256 50.063 L 209.256 49.87 L 209.256 49.87 L 209.283 49.526 L 209.334 49.196 L 209.422 48.888 L 209.54 48.584 L 209.681 48.301 L 209.84 48.043 L 210.025 47.798 L 210.241 47.573 L 210.46 47.368 L 210.708 47.18 L 210.969 47.016 L 211.234 46.871 L 211.515 46.75 L 211.81 46.653 L 212.111 46.572 L 212.423 46.517 L 212.423 46.517 L 212.439 46.517 L 212.484 46.508 L 212.549 46.501 L 212.641 46.489 L 212.75 46.474 L 212.875 46.467 L 213.008 46.449 L 213.161 46.429 L 213.307 46.41 L 213.462 46.391 L 213.622 46.384 L 213.763 46.363 L 213.903 46.361 L 214.036 46.35 L 214.161 46.339 L 214.257 46.339 L 214.257 46.339 L 214.464 46.339 L 214.676 46.35 L 214.874 46.361 L 215.067 46.361 L 215.224 46.363 L 215.35 46.377 L 215.438 46.384 L 215.465 46.384 L 215.465 46.384 L 215.483 46.323 L 215.537 46.163 L 215.582 45.977 L 215.597 45.809 L 215.597 45.809 L 215.562 45.615 L 215.483 45.436 L 215.377 45.277 L 215.234 45.145 L 215.067 45.025 L 214.88 44.951 L 214.669 44.897 L 214.438 44.88 L 214.438 44.88 L 214.19 44.866 L 213.92 44.859 L 213.644 44.859 L 213.366 44.866 L 213.069 44.887 L 212.786 44.913 L 212.5 44.938 L 212.228 44.977 L 211.958 45.013 L 211.704 45.053 L 211.472 45.098 L 211.261 45.145 L 211.068 45.197 L 210.904 45.251 L 210.783 45.312 L 210.686 45.363 L 211.313 43.226 L 211.313 43.226 L 211.506 43.146 L 211.704 43.074 L 211.917 43.014 L 212.128 42.969 L 212.344 42.926 L 212.572 42.888 L 212.803 42.854 L 213.042 42.836 L 213.293 42.82 L 213.549 42.81 L 213.82 42.798 L 214.089 42.798 L 214.373 42.798 L 214.669 42.798 L 214.979 42.81 L 215.29 42.82 L 215.29 42.82 L 215.537 42.836 L 215.802 42.877 L 216.079 42.946 L 216.358 43.021 L 216.638 43.131 L 216.902 43.257 L 217.169 43.405 L 217.42 43.571 L 217.636 43.77 L 217.833 43.98 L 218.014 44.224 L 218.145 44.488 L 218.23 44.771 L 218.284 45.073 L 218.284 45.41 L 218.23 45.761 L 217.337 50.446" fill="black" stroke="none"/></mask><path d=" M 217.337 50.446 L 216.985 52.417 L 214.744 52.417 L 214.744 52.417 L 214.808 52.053 L 214.853 51.723 L 214.887 51.478 L 214.923 51.345 L 214.923 51.345 L 214.802 51.489 L 214.658 51.628 L 214.49 51.761 L 214.3 51.887 L 214.089 52.008 L 213.869 52.114 L 213.637 52.22 L 213.399 52.312 L 213.136 52.391 L 212.882 52.451 L 212.625 52.508 L 212.365 52.539 L 212.102 52.557 L 211.843 52.565 L 211.598 52.539 L 211.356 52.508 L 211.356 52.508 L 211.045 52.429 L 210.764 52.339 L 210.515 52.22 L 210.29 52.087 L 210.096 51.947 L 209.919 51.788 L 209.78 51.617 L 209.654 51.444 L 209.548 51.253 L 209.46 51.06 L 209.388 50.866 L 209.334 50.671 L 209.301 50.466 L 209.274 50.262 L 209.256 50.063 L 209.256 49.87 L 209.256 49.87 L 209.283 49.526 L 209.334 49.196 L 209.422 48.888 L 209.54 48.584 L 209.681 48.301 L 209.84 48.043 L 210.025 47.798 L 210.241 47.573 L 210.46 47.368 L 210.708 47.18 L 210.969 47.016 L 211.234 46.871 L 211.515 46.75 L 211.81 46.653 L 212.111 46.572 L 212.423 46.517 L 212.423 46.517 L 212.439 46.517 L 212.484 46.508 L 212.549 46.501 L 212.641 46.489 L 212.75 46.474 L 212.875 46.467 L 213.008 46.449 L 213.161 46.429 L 213.307 46.41 L 213.462 46.391 L 213.622 46.384 L 213.763 46.363 L 213.903 46.361 L 214.036 46.35 L 214.161 46.339 L 214.257 46.339 L 214.257 46.339 L 214.464 46.339 L 214.676 46.35 L 214.874 46.361 L 215.067 46.361 L 215.224 46.363 L 215.35 46.377 L 215.438 46.384 L 215.465 46.384 L 215.465 46.384 L 215.483 46.323 L 215.537 46.163 L 215.582 45.977 L 215.597 45.809 L 215.597 45.809 L 215.562 45.615 L 215.483 45.436 L 215.377 45.277 L 215.234 45.145 L 215.067 45.025 L 214.88 44.951 L 214.669 44.897 L 214.438 44.88 L 214.438 44.88 L 214.19 44.866 L 213.92 44.859 L 213.644 44.859 L 213.366 44.866 L 213.069 44.887 L 212.786 44.913 L 212.5 44.938 L 212.228 44.977 L 211.958 45.013 L 211.704 45.053 L 211.472 45.098 L 211.261 45.145 L 211.068 45.197 L 210.904 45.251 L 210.783 45.312 L 210.686 45.363 L 211.313 43.226 L 211.313 43.226 L 211.506 43.146 L 211.704 43.074 L 211.917 43.014 L 212.128 42.969 L 212.344 42.926 L 212.572 42.888 L 212.803 42.854 L 213.042 42.836 L 213.293 42.82 L 213.549 42.81 L 213.82 42.798 L 214.089 42.798 L 214.373 42.798 L 214.669 42.798 L 214.979 42.81 L 215.29 42.82 L 215.29 42.82 L 215.537 42.836 L 215.802 42.877 L 216.079 42.946 L 216.358 43.021 L 216.638 43.131 L 216.902 43.257 L 217.169 43.405 L 217.42 43.571 L 217.636 43.77 L 217.833 43.98 L 218.014 44.224 L 218.145 44.488 L 218.23 44.771 L 218.284 45.073 L 218.284 45.41 L 218.23 45.761 L 217.337 50.446" fill="none"/><path d=" M 217.337 50.446 L 216.985 52.417 L 214.744 52.417 L 214.744 52.417 L 214.808 52.053 L 214.853 51.723 L 214.887 51.478 L 214.923 51.345 L 214.923 51.345 L 214.802 51.489 L 214.658 51.628 L 214.49 51.761 L 214.3 51.887 L 214.089 52.008 L 213.869 52.114 L 213.637 52.22 L 213.399 52.312 L 213.136 52.391 L 212.882 52.451 L 212.625 52.508 L 212.365 52.539 L 212.102 52.557 L 211.843 52.565 L 211.598 52.539 L 211.356 52.508 L 211.356 52.508 L 211.045 52.429 L 210.764 52.339 L 210.515 52.22 L 210.29 52.087 L 210.096 51.947 L 209.919 51.788 L 209.78 51.617 L 209.654 51.444 L 209.548 51.253 L 209.46 51.06 L 209.388 50.866 L 209.334 50.671 L 209.301 50.466 L 209.274 50.262 L 209.256 50.063 L 209.256 49.87 L 209.256 49.87 L 209.283 49.526 L 209.334 49.196 L 209.422 48.888 L 209.54 48.584 L 209.681 48.301 L 209.84 48.043 L 210.025 47.798 L 210.241 47.573 L 210.46 47.368 L 210.708 47.18 L 210.969 47.016 L 211.234 46.871 L 211.515 46.75 L 211.81 46.653 L 212.111 46.572 L 212.423 46.517 L 212.423 46.517 L 212.439 46.517 L 212.484 46.508 L 212.549 46.501 L 212.641 46.489 L 212.75 46.474 L 212.875 46.467 L 213.008 46.449 L 213.161 46.429 L 213.307 46.41 L 213.462 46.391 L 213.622 46.384 L 213.763 46.363 L 213.903 46.361 L 214.036 46.35 L 214.161 46.339 L 214.257 46.339 L 214.257 46.339 L 214.464 46.339 L 214.676 46.35 L 214.874 46.361 L 215.067 46.361 L 215.224 46.363 L 215.35 46.377 L 215.438 46.384 L 215.465 46.384 L 215.465 46.384 L 215.483 46.323 L 215.537 46.163 L 215.582 45.977 L 215.597 45.809 L 215.597 45.809 L 215.562 45.615 L 215.483 45.436 L 215.377 45.277 L 215.234 45.145 L 215.067 45.025 L 214.88 44.951 L 214.669 44.897 L 214.438 44.88 L 214.438 44.88 L 214.19 44.866 L 213.92 44.859 L 213.644 44.859 L 213.366 44.866 L 213.069 44.887 L 212.786 44.913 L 212.5 44.938 L 212.228 44.977 L 211.958 45.013 L 211.704 45.053 L 211.472 45.098 L 211.261 45.145 L 211.068 45.197 L 210.904 45.251 L 210.783 45.312 L 210.686 45.363 L 211.313 43.226 L 211.313 43.226 L 211.506 43.146 L 211.704 43.074 L 211.917 43.014 L 212.128 42.969 L 212.344 42.926 L 212.572 42.888 L 212.803 42.854 L 213.042 42.836 L 213.293 42.82 L 213.549 42.81 L 213.82 42.798 L 214.089 42.798 L 214.373 42.798 L 214.669 42.798 L 214.979 42.81 L 215.29 42.82 L 215.29 42.82 L 215.537 42.836 L 215.802 42.877 L 216.079 42.946 L 216.358 43.021 L 216.638 43.131 L 216.902 43.257 L 217.169 43.405 L 217.42 43.571 L 217.636 43.77 L 217.833 43.98 L 218.014 44.224 L 218.145 44.488 L 218.23 44.771 L 218.284 45.073 L 218.284 45.41 L 218.23 45.761 L 217.337 50.446" fill="none" mask="url(#_mask_X48dR3wFyZb4encrg127OfrjG4Ewv0Z5)" vector-effect="non-scaling-stroke" stroke-width="0.505" stroke="rgb(255,255,255)" stroke-linejoin="miter" stroke-linecap="butt" stroke-miterlimit="2.6131"/><path d=" M 215.2 48.131 L 215.191 48.086 L 215.153 48.043 L 215.103 48.018 L 215.013 47.998 L 214.915 47.979 L 214.802 47.971 L 214.669 47.971 L 214.532 47.971 L 214.395 47.979 L 214.24 47.998 L 214.1 48.018 L 213.957 48.036 L 213.824 48.052 L 213.703 48.076 L 213.592 48.104 L 213.498 48.131 L 213.437 48.15 L 213.366 48.176 L 213.266 48.214 L 213.167 48.256 L 213.05 48.308 L 212.936 48.369 L 212.815 48.438 L 212.698 48.506 L 212.572 48.598 L 212.459 48.684 L 212.349 48.789 L 212.254 48.896 L 212.167 49.007 L 212.102 49.135 L 212.052 49.274 L 212.023 49.419 L 212.014 49.718 L 212.057 49.958 L 212.147 50.136 L 212.261 50.269 L 212.394 50.358 L 212.549 50.412 L 212.689 50.439 L 212.831 50.446 L 213.095 50.439 L 213.338 50.412 L 213.565 50.374 L 213.77 50.322 L 213.948 50.262 L 214.114 50.186 L 214.267 50.104 L 214.404 50.003 L 214.516 49.915 L 214.62 49.81 L 214.714 49.711 L 214.782 49.605 L 214.847 49.5 L 214.899 49.394 L 214.941 49.295 L 214.963 49.196 L 215.041 48.941 L 215.103 48.646 L 215.153 48.362 L 215.2 48.131 L 215.2 48.131 L 215.2 48.131 Z " fill-rule="evenodd" fill="rgb(236,28,46)"/><path d=" M 198.674 52.417 L 196.26 52.417 L 198.272 40.766 L 202.467 40.766 L 202.87 47.681 L 205.769 40.766 L 210.151 40.766 L 208.091 52.417 L 205.681 52.417 L 207.206 43.715 L 207.111 43.715 L 203.499 52.417 L 200.774 52.417 L 200.753 52.053 L 200.698 51.087 L 200.619 49.711 L 200.522 48.131 L 200.439 46.543 L 200.361 45.151 L 200.295 44.143 L 200.277 43.715 L 200.254 43.715 L 200.199 43.715 L 200.145 43.715 L 200.145 43.715 L 198.674 52.417 L 198.674 52.417 L 198.674 52.417 Z " fill-rule="evenodd" fill="rgb(255,255,255)"/><mask id="_mask_pZMsKQcHzMI5pzR5YtuahQvxS86OxXJh" x="-200%" y="-200%" width="400%" height="400%"><rect x="-200%" y="-200%" width="400%" height="400%" style="fill:white;"/><path d=" M 198.674 52.417 L 196.26 52.417 L 198.272 40.766 L 202.467 40.766 L 202.87 47.681 L 205.769 40.766 L 210.151 40.766 L 208.091 52.417 L 205.681 52.417 L 207.206 43.715 L 207.111 43.715 L 203.499 52.417 L 200.774 52.417 L 200.774 52.417 L 200.753 52.053 L 200.698 51.087 L 200.619 49.711 L 200.522 48.131 L 200.439 46.543 L 200.361 45.151 L 200.295 44.143 L 200.277 43.715 L 200.277 43.715 L 200.254 43.715 L 200.199 43.715 L 200.145 43.715 L 200.145 43.715 L 198.674 52.417" fill="black" stroke="none"/></mask><path d=" M 198.674 52.417 L 196.26 52.417 L 198.272 40.766 L 202.467 40.766 L 202.87 47.681 L 205.769 40.766 L 210.151 40.766 L 208.091 52.417 L 205.681 52.417 L 207.206 43.715 L 207.111 43.715 L 203.499 52.417 L 200.774 52.417 L 200.774 52.417 L 200.753 52.053 L 200.698 51.087 L 200.619 49.711 L 200.522 48.131 L 200.439 46.543 L 200.361 45.151 L 200.295 44.143 L 200.277 43.715 L 200.277 43.715 L 200.254 43.715 L 200.199 43.715 L 200.145 43.715 L 200.145 43.715 L 198.674 52.417" fill="none"/><path d=" M 198.674 52.417 L 196.26 52.417 L 198.272 40.766 L 202.467 40.766 L 202.87 47.681 L 205.769 40.766 L 210.151 40.766 L 208.091 52.417 L 205.681 52.417 L 207.206 43.715 L 207.111 43.715 L 203.499 52.417 L 200.774 52.417 L 200.774 52.417 L 200.753 52.053 L 200.698 51.087 L 200.619 49.711 L 200.522 48.131 L 200.439 46.543 L 200.361 45.151 L 200.295 44.143 L 200.277 43.715 L 200.277 43.715 L 200.254 43.715 L 200.199 43.715 L 200.145 43.715 L 200.145 43.715 L 198.674 52.417" fill="none" mask="url(#_mask_pZMsKQcHzMI5pzR5YtuahQvxS86OxXJh)" vector-effect="non-scaling-stroke" stroke-width="0.505" stroke="rgb(255,255,255)" stroke-linejoin="miter" stroke-linecap="butt" stroke-miterlimit="2.6131"/><path d=" M 261.37 50.446 L 261.003 52.417 L 258.778 52.417 L 258.793 52.053 L 258.805 51.734 L 258.805 51.496 L 258.818 51.39 L 258.706 51.522 L 258.574 51.655 L 258.414 51.781 L 258.236 51.902 L 258.049 52.015 L 257.838 52.125 L 257.611 52.23 L 257.391 52.323 L 257.153 52.391 L 256.901 52.463 L 256.656 52.508 L 256.409 52.539 L 256.152 52.557 L 255.9 52.565 L 255.658 52.539 L 255.419 52.508 L 255.1 52.429 L 254.821 52.339 L 254.57 52.22 L 254.335 52.087 L 254.147 51.947 L 253.976 51.788 L 253.834 51.617 L 253.71 51.444 L 253.603 51.253 L 253.524 51.06 L 253.453 50.866 L 253.408 50.671 L 253.369 50.466 L 253.346 50.262 L 253.327 50.063 L 253.327 49.87 L 253.346 49.526 L 253.401 49.196 L 253.479 48.888 L 253.591 48.584 L 253.729 48.301 L 253.895 48.043 L 254.082 47.798 L 254.287 47.573 L 254.518 47.368 L 254.756 47.18 L 255.014 47.016 L 255.287 46.871 L 255.563 46.75 L 255.86 46.653 L 256.152 46.572 L 256.451 46.517 L 256.469 46.517 L 256.514 46.508 L 256.575 46.501 L 256.658 46.489 L 256.78 46.474 L 256.901 46.467 L 257.038 46.449 L 257.177 46.429 L 257.331 46.41 L 257.492 46.391 L 257.64 46.384 L 257.789 46.363 L 257.932 46.361 L 258.054 46.35 L 258.182 46.339 L 258.277 46.339 L 258.493 46.339 L 258.706 46.35 L 258.911 46.361 L 259.104 46.361 L 259.27 46.363 L 259.414 46.377 L 259.493 46.384 L 259.531 46.384 L 259.546 46.323 L 259.574 46.163 L 259.601 45.977 L 259.614 45.809 L 259.581 45.615 L 259.513 45.436 L 259.398 45.277 L 259.263 45.145 L 259.104 45.025 L 258.917 44.951 L 258.724 44.897 L 258.508 44.88 L 258.263 44.866 L 257.998 44.859 L 257.721 44.859 L 257.436 44.866 L 257.143 44.887 L 256.86 44.913 L 256.575 44.938 L 256.303 44.977 L 256.033 45.013 L 255.779 45.053 L 255.545 45.098 L 255.332 45.145 L 255.138 45.197 L 254.976 45.251 L 254.855 45.312 L 254.756 45.363 L 255.378 43.226 L 255.572 43.146 L 255.779 43.074 L 255.981 43.014 L 256.193 42.969 L 256.417 42.926 L 256.64 42.888 L 256.867 42.854 L 257.11 42.836 L 257.353 42.82 L 257.611 42.81 L 257.868 42.798 L 258.148 42.798 L 258.42 42.798 L 258.706 42.798 L 259.004 42.81 L 259.308 42.82 L 259.555 42.836 L 259.821 42.877 L 260.097 42.946 L 260.385 43.021 L 260.657 43.131 L 260.931 43.257 L 261.197 43.405 L 261.446 43.571 L 261.668 43.77 L 261.872 43.98 L 262.048 44.224 L 262.181 44.488 L 262.28 44.771 L 262.343 45.073 L 262.343 45.41 L 262.298 45.761 L 261.37 50.446 L 261.37 50.446 L 261.37 50.446 Z " fill-rule="evenodd" fill="rgb(255,255,255)"/><path d=" M 261.003 52.479 L 261.055 52.429 L 261.419 50.455 L 261.314 50.439 L 260.95 52.41 L 261.003 52.353 L 261.003 52.479 L 261.048 52.472 L 261.055 52.429 L 261.003 52.479 L 261.003 52.479 L 261.003 52.479 Z " fill-rule="evenodd" fill="rgb(255,255,255)"/><path d=" M 258.724 52.417 L 258.778 52.479 L 261.003 52.479 L 261.003 52.353 L 258.778 52.353 L 258.832 52.417 L 258.724 52.417 L 258.717 52.479 L 258.778 52.479 L 258.724 52.417 L 258.724 52.417 L 258.724 52.417 Z " fill-rule="evenodd" fill="rgb(255,255,255)"/><path d=" M 258.866 51.424 L 258.785 51.352 L 258.75 51.496 L 258.74 51.734 L 258.74 52.053 L 258.724 52.417 L 258.832 52.417 L 258.845 52.053 L 258.866 51.734 L 258.854 51.496 L 258.854 51.424 L 258.778 51.352 L 258.866 51.424 L 258.866 51.424 L 258.866 51.424 Z " fill-rule="evenodd" fill="rgb(255,255,255)"/><path d=" M 255.415 52.557 L 255.415 52.557 L 255.658 52.591 L 255.9 52.617 L 256.152 52.615 L 256.409 52.591 L 256.658 52.557 L 256.912 52.517 L 257.164 52.446 L 257.409 52.372 L 257.633 52.28 L 257.865 52.179 L 258.077 52.076 L 258.263 51.947 L 258.448 51.821 L 258.607 51.7 L 258.75 51.557 L 258.866 51.424 L 258.778 51.352 L 258.661 51.489 L 258.535 51.61 L 258.375 51.734 L 258.209 51.855 L 258.023 51.966 L 257.807 52.076 L 257.595 52.179 L 257.371 52.267 L 257.143 52.339 L 256.894 52.41 L 256.644 52.451 L 256.409 52.489 L 256.152 52.508 L 255.9 52.517 L 255.658 52.489 L 255.43 52.451 L 255.43 52.451 L 255.415 52.557 L 255.415 52.557 L 255.415 52.557 Z " fill-rule="evenodd" fill="rgb(255,255,255)"/><path d=" M 253.266 49.87 L 253.266 49.87 L 253.275 50.063 L 253.292 50.262 L 253.32 50.478 L 253.358 50.678 L 253.401 50.875 L 253.472 51.08 L 253.551 51.28 L 253.668 51.469 L 253.79 51.655 L 253.933 51.821 L 254.109 51.988 L 254.313 52.132 L 254.544 52.273 L 254.801 52.391 L 255.093 52.479 L 255.415 52.557 L 255.43 52.451 L 255.109 52.372 L 254.834 52.28 L 254.596 52.17 L 254.365 52.047 L 254.18 51.902 L 254.021 51.75 L 253.877 51.583 L 253.755 51.412 L 253.657 51.23 L 253.578 51.042 L 253.506 50.859 L 253.458 50.662 L 253.425 50.455 L 253.401 50.262 L 253.38 50.063 L 253.387 49.87 L 253.387 49.87 L 253.266 49.87 L 253.266 49.87 L 253.266 49.87 Z " fill-rule="evenodd" fill="rgb(255,255,255)"/><path d=" M 256.451 46.467 L 256.451 46.467 L 256.143 46.517 L 255.839 46.595 L 255.545 46.694 L 255.259 46.82 L 254.988 46.964 L 254.722 47.142 L 254.484 47.328 L 254.252 47.539 L 254.039 47.76 L 253.85 48.005 L 253.672 48.274 L 253.54 48.566 L 253.425 48.87 L 253.346 49.188 L 253.292 49.526 L 253.266 49.87 L 253.387 49.87 L 253.401 49.526 L 253.453 49.207 L 253.531 48.903 L 253.65 48.604 L 253.778 48.324 L 253.942 48.076 L 254.126 47.831 L 254.32 47.611 L 254.551 47.413 L 254.79 47.229 L 255.042 47.069 L 255.314 46.926 L 255.579 46.8 L 255.874 46.701 L 256.159 46.627 L 256.451 46.572 L 256.451 46.572 L 256.451 46.467 L 256.451 46.467 L 256.451 46.467 Z " fill-rule="evenodd" fill="rgb(255,255,255)"/><path d=" M 258.277 46.28 L 258.277 46.28 L 258.182 46.28 L 258.054 46.296 L 257.932 46.305 L 257.789 46.312 L 257.64 46.33 L 257.492 46.339 L 257.331 46.361 L 257.177 46.377 L 257.038 46.391 L 256.901 46.41 L 256.78 46.417 L 256.658 46.436 L 256.575 46.449 L 256.502 46.456 L 256.469 46.467 L 256.451 46.467 L 256.451 46.572 L 256.469 46.572 L 256.523 46.565 L 256.575 46.555 L 256.658 46.543 L 256.78 46.527 L 256.901 46.517 L 257.038 46.501 L 257.177 46.482 L 257.331 46.467 L 257.492 46.449 L 257.64 46.436 L 257.789 46.417 L 257.932 46.41 L 258.054 46.401 L 258.182 46.401 L 258.277 46.401 L 258.277 46.401 L 258.277 46.28 L 258.277 46.28 L 258.277 46.28 Z " fill-rule="evenodd" fill="rgb(255,255,255)"/><path d=" M 259.475 46.377 L 259.531 46.33 L 259.493 46.33 L 259.414 46.323 L 259.27 46.312 L 259.104 46.296 L 258.911 46.296 L 258.706 46.296 L 258.493 46.28 L 258.277 46.28 L 258.277 46.401 L 258.493 46.401 L 258.706 46.401 L 258.911 46.417 L 259.104 46.417 L 259.27 46.417 L 259.414 46.429 L 259.493 46.436 L 259.531 46.436 L 259.581 46.391 L 259.531 46.436 L 259.574 46.449 L 259.581 46.391 L 259.475 46.377 L 259.475 46.377 L 259.475 46.377 Z " fill-rule="evenodd" fill="rgb(255,255,255)"/><path d=" M 259.567 45.809 L 259.555 45.809 L 259.546 45.977 L 259.52 46.156 L 259.493 46.312 L 259.475 46.377 L 259.581 46.391 L 259.601 46.33 L 259.627 46.17 L 259.652 45.977 L 259.679 45.809 L 259.672 45.809 L 259.567 45.809 L 259.567 45.809 L 259.567 45.809 Z " fill-rule="evenodd" fill="rgb(255,255,255)"/><path d=" M 258.508 44.927 L 258.508 44.938 L 258.717 44.951 L 258.899 45.001 L 259.077 45.08 L 259.227 45.189 L 259.349 45.312 L 259.457 45.462 L 259.531 45.621 L 259.567 45.809 L 259.672 45.809 L 259.634 45.605 L 259.567 45.41 L 259.446 45.242 L 259.299 45.098 L 259.133 44.977 L 258.933 44.897 L 258.733 44.844 L 258.508 44.819 L 258.508 44.821 L 258.508 44.927 L 258.508 44.927 L 258.508 44.927 Z " fill-rule="evenodd" fill="rgb(255,255,255)"/><path d=" M 254.702 45.356 L 254.79 45.41 L 254.882 45.363 L 254.995 45.303 L 255.147 45.251 L 255.34 45.197 L 255.556 45.151 L 255.784 45.106 L 256.044 45.064 L 256.303 45.025 L 256.575 44.992 L 256.86 44.965 L 257.143 44.938 L 257.436 44.925 L 257.721 44.925 L 257.998 44.925 L 258.263 44.925 L 258.508 44.927 L 258.508 44.821 L 258.263 44.819 L 257.998 44.794 L 257.721 44.794 L 257.436 44.819 L 257.143 44.83 L 256.86 44.859 L 256.575 44.887 L 256.303 44.925 L 256.026 44.959 L 255.768 45.001 L 255.541 45.046 L 255.321 45.091 L 255.127 45.145 L 254.96 45.197 L 254.828 45.258 L 254.722 45.322 L 254.81 45.372 L 254.702 45.356 L 254.702 45.356 L 254.702 45.356 Z " fill-rule="evenodd" fill="rgb(255,255,255)"/><path d=" M 255.363 43.169 L 255.321 43.219 L 254.702 45.356 L 254.81 45.372 L 255.43 43.234 L 255.392 43.283 L 255.363 43.169 L 255.332 43.181 L 255.321 43.219 L 255.363 43.169 L 255.363 43.169 L 255.363 43.169 Z " fill-rule="evenodd" fill="rgb(255,255,255)"/><path d=" M 259.308 42.767 L 259.308 42.767 L 259.004 42.749 L 258.706 42.737 L 258.42 42.737 L 258.148 42.737 L 257.868 42.737 L 257.611 42.756 L 257.353 42.767 L 257.11 42.782 L 256.867 42.798 L 256.628 42.836 L 256.409 42.87 L 256.186 42.915 L 255.972 42.96 L 255.761 43.021 L 255.556 43.093 L 255.363 43.169 L 255.392 43.283 L 255.59 43.2 L 255.791 43.131 L 255.993 43.063 L 256.204 43.021 L 256.428 42.976 L 256.644 42.946 L 256.867 42.903 L 257.11 42.888 L 257.353 42.87 L 257.611 42.865 L 257.868 42.865 L 258.148 42.865 L 258.42 42.865 L 258.706 42.865 L 259.004 42.87 L 259.308 42.87 L 259.308 42.87 L 259.308 42.767 L 259.308 42.767 L 259.308 42.767 Z " fill-rule="evenodd" fill="rgb(255,255,255)"/><path d=" M 262.352 45.772 L 262.352 45.772 L 262.397 45.41 L 262.397 45.073 L 262.332 44.761 L 262.235 44.469 L 262.093 44.191 L 261.917 43.949 L 261.701 43.722 L 261.48 43.528 L 261.221 43.36 L 260.957 43.2 L 260.673 43.074 L 260.399 42.969 L 260.109 42.888 L 259.833 42.827 L 259.555 42.782 L 259.308 42.767 L 259.308 42.87 L 259.555 42.888 L 259.817 42.936 L 260.088 42.998 L 260.363 43.074 L 260.639 43.181 L 260.905 43.307 L 261.169 43.45 L 261.408 43.616 L 261.635 43.81 L 261.829 44.015 L 262.003 44.246 L 262.127 44.507 L 262.226 44.781 L 262.287 45.073 L 262.287 45.41 L 262.245 45.754 L 262.245 45.754 L 262.352 45.772 L 262.352 45.772 L 262.352 45.772 Z " fill-rule="evenodd" fill="rgb(255,255,255)"/><path d=" M 261.419 50.455 L 261.419 50.455 L 262.352 45.772 L 262.245 45.754 L 261.314 50.439 L 261.314 50.439 L 261.419 50.455 L 261.419 50.455 L 261.419 50.455 Z " fill-rule="evenodd" fill="rgb(255,255,255)"/><path d=" M 259.216 48.131 L 259.203 48.076 L 259.169 48.036 L 259.104 48.005 L 259.016 47.979 L 258.917 47.971 L 258.805 47.964 L 258.667 47.964 L 258.535 47.971 L 258.396 47.991 L 258.251 48.005 L 258.11 48.024 L 257.973 48.043 L 257.845 48.069 L 257.733 48.086 L 257.611 48.114 L 257.523 48.131 L 257.465 48.142 L 257.391 48.169 L 257.303 48.195 L 257.205 48.233 L 257.087 48.283 L 256.982 48.335 L 256.86 48.4 L 256.746 48.477 L 256.628 48.56 L 256.514 48.654 L 256.417 48.753 L 256.319 48.87 L 256.238 48.991 L 256.177 49.129 L 256.125 49.268 L 256.098 49.419 L 256.089 49.718 L 256.127 49.958 L 256.204 50.136 L 256.309 50.269 L 256.442 50.358 L 256.595 50.412 L 256.746 50.439 L 256.894 50.446 L 257.164 50.439 L 257.409 50.412 L 257.64 50.369 L 257.845 50.307 L 258.042 50.234 L 258.209 50.153 L 258.369 50.063 L 258.508 49.958 L 258.634 49.863 L 258.74 49.744 L 258.838 49.639 L 258.917 49.526 L 258.978 49.419 L 259.028 49.313 L 259.059 49.207 L 259.083 49.108 L 259.122 48.858 L 259.169 48.604 L 259.203 48.355 L 259.216 48.131 L 259.216 48.131 L 259.216 48.131 Z " fill-rule="evenodd" fill="rgb(251,178,49)"/><path d=" M 277.493 51.203 L 277.513 50.997 L 277.581 50.756 L 277.707 50.549 L 277.857 50.358 L 278.045 50.208 L 278.259 50.104 L 278.491 50.03 L 278.736 50.003 L 278.983 50.03 L 279.214 50.104 L 279.43 50.208 L 279.615 50.358 L 279.768 50.549 L 279.889 50.756 L 279.961 50.997 L 279.979 51.203 L 279.713 51.203 L 279.707 51.042 L 279.646 50.849 L 279.559 50.671 L 279.449 50.522 L 279.304 50.395 L 279.138 50.307 L 278.941 50.241 L 278.736 50.226 L 278.532 50.241 L 278.338 50.307 L 278.167 50.395 L 278.028 50.522 L 277.911 50.671 L 277.823 50.849 L 277.769 51.042 L 277.751 51.203 L 277.493 51.203 L 277.493 51.203 L 277.493 51.203 Z " fill-rule="evenodd" fill="rgb(255,255,255)"/><path d=" M 278.293 51.203 L 278.293 50.671 L 278.779 50.671 L 278.889 50.678 L 278.983 50.697 L 279.06 50.72 L 279.116 50.756 L 279.166 50.814 L 279.195 50.866 L 279.214 50.927 L 279.221 50.987 L 279.214 51.068 L 279.195 51.129 L 279.172 51.186 L 279.154 51.203 L 278.779 51.203 L 278.817 51.192 L 278.877 51.186 L 278.929 51.168 L 278.974 51.147 L 279.012 51.125 L 279.033 51.096 L 279.046 51.053 L 279.046 50.987 L 279.04 50.947 L 279.021 50.909 L 278.995 50.894 L 278.963 50.875 L 278.922 50.866 L 278.877 50.859 L 278.834 50.859 L 278.779 50.859 L 278.515 50.859 L 278.515 51.203 L 278.293 51.203 L 278.293 51.203 L 278.293 51.203 Z " fill-rule="evenodd" fill="rgb(255,255,255)"/><path d=" M 277.493 51.203 L 277.486 51.253 L 277.513 51.516 L 277.581 51.75 L 277.707 51.966 L 277.857 52.141 L 278.045 52.291 L 278.259 52.41 L 278.491 52.479 L 278.736 52.508 L 278.983 52.479 L 279.214 52.41 L 279.43 52.291 L 279.615 52.141 L 279.768 51.966 L 279.889 51.75 L 279.961 51.516 L 279.988 51.253 L 279.979 51.203 L 279.713 51.203 L 279.72 51.253 L 279.707 51.469 L 279.646 51.662 L 279.559 51.833 L 279.449 51.981 L 279.304 52.107 L 279.138 52.201 L 278.941 52.267 L 278.736 52.28 L 278.532 52.267 L 278.338 52.201 L 278.167 52.107 L 278.028 51.981 L 277.911 51.833 L 277.823 51.662 L 277.769 51.469 L 277.751 51.253 L 277.751 51.203 L 277.493 51.203 L 277.493 51.203 L 277.493 51.203 Z " fill-rule="evenodd" fill="rgb(255,255,255)"/><path d=" M 278.293 51.203 L 278.293 51.743 L 278.515 51.743 L 278.515 51.3 L 278.736 51.3 L 279.001 51.743 L 279.179 51.743 L 278.914 51.3 L 278.974 51.3 L 279.04 51.28 L 279.088 51.264 L 279.138 51.23 L 279.154 51.203 L 278.779 51.203 L 278.736 51.213 L 278.515 51.213 L 278.515 51.203 L 278.293 51.203 L 278.293 51.203 L 278.293 51.203 Z " fill-rule="evenodd" fill="rgb(255,255,255)"/><path d=" M 277.486 51.253 L 277.486 51.253 L 277.513 50.997 L 277.58 50.756 L 277.706 50.549 L 277.856 50.359 L 278.044 50.209 L 278.258 50.105 L 278.489 50.031 L 278.734 50.004 L 278.734 50.004 L 278.981 50.031 L 279.212 50.105 L 279.428 50.209 L 279.613 50.359 L 279.766 50.549 L 279.887 50.756 L 279.959 50.997 L 279.985 51.253 L 279.985 51.253 L 279.959 51.516 L 279.887 51.75 L 279.766 51.966 L 279.613 52.141 L 279.428 52.291 L 279.212 52.41 L 278.981 52.478 L 278.734 52.507 L 278.734 52.507 L 278.489 52.478 L 278.258 52.41 L 278.044 52.291 L 277.856 52.141 L 277.706 51.966 L 277.58 51.75 L 277.513 51.516 L 277.486 51.253 Z  M 278.515 51.743 L 278.293 51.743 L 278.293 50.671 L 278.778 50.671 L 278.778 50.671 L 278.888 50.678 L 278.982 50.698 L 279.059 50.72 L 279.115 50.756 L 279.165 50.815 L 279.194 50.867 L 279.214 50.928 L 279.221 50.989 L 279.221 50.989 L 279.214 51.07 L 279.194 51.131 L 279.172 51.188 L 279.138 51.233 L 279.088 51.266 L 279.039 51.283 L 278.974 51.303 L 278.913 51.303 L 279.179 51.746 L 279.001 51.746 L 278.735 51.303 L 278.514 51.303 L 278.514 51.743 M 278.736 51.213 L 278.736 51.213 L 278.817 51.192 L 278.878 51.185 L 278.93 51.167 L 278.975 51.146 L 279.013 51.124 L 279.034 51.095 L 279.048 51.052 L 279.048 50.987 L 279.048 50.987 L 279.041 50.947 L 279.022 50.909 L 278.996 50.893 L 278.965 50.874 L 278.924 50.865 L 278.879 50.858 L 278.836 50.858 L 278.78 50.858 L 278.516 50.858 L 278.516 51.212 L 278.736 51.212 M 278.736 52.28 L 278.736 52.28 L 278.941 52.266 L 279.138 52.201 L 279.304 52.107 L 279.449 51.981 L 279.559 51.833 L 279.646 51.662 L 279.707 51.469 L 279.721 51.253 L 279.721 51.253 L 279.707 51.042 L 279.646 50.849 L 279.559 50.671 L 279.449 50.523 L 279.304 50.395 L 279.138 50.307 L 278.941 50.242 L 278.736 50.226 L 278.736 50.226 L 278.532 50.242 L 278.339 50.307 L 278.168 50.395 L 278.028 50.523 L 277.911 50.671 L 277.823 50.849 L 277.769 51.042 L 277.751 51.253 L 277.751 51.253 L 277.769 51.469 L 277.823 51.662 L 277.911 51.833 L 278.028 51.981 L 278.168 52.107 L 278.339 52.201 L 278.532 52.266 L 278.736 52.28 Z " fill="none" vector-effect="non-scaling-stroke" stroke-width="0.252" stroke="rgb(255,255,255)" stroke-linejoin="miter" stroke-linecap="butt" stroke-miterlimit="2.6131"/><path d=" M 262.033 52.417 L 264.535 52.417 L 264.535 52.417 L 265.43 47.368 L 265.468 47.175 L 265.517 46.979 L 265.574 46.781 L 265.646 46.593 L 265.733 46.391 L 265.839 46.206 L 265.952 46.031 L 266.097 45.859 L 266.254 45.709 L 266.43 45.567 L 266.634 45.436 L 266.867 45.329 L 267.123 45.242 L 267.408 45.17 L 267.713 45.118 L 268.062 45.098 L 268.188 45.098 L 268.26 45.098 L 268.287 45.098 L 268.287 45.098 L 268.685 42.82 L 268.435 42.836 L 268.197 42.865 L 267.977 42.903 L 267.761 42.969 L 267.568 43.041 L 267.381 43.131 L 267.204 43.226 L 267.033 43.333 L 266.877 43.457 L 266.725 43.583 L 266.581 43.722 L 266.441 43.863 L 266.309 44.015 L 266.176 44.186 L 266.043 44.345 L 265.917 44.522 L 266.183 42.915 L 263.69 42.915 L 262.033 52.417 L 262.033 52.417 L 262.033 52.417 L 262.033 52.417 Z " fill-rule="evenodd" fill="rgb(255,255,255)"/><mask id="_mask_HpbM8GIKe2nxrO2onVurEmkg3O40a7y8" x="-200%" y="-200%" width="400%" height="400%"><rect x="-200%" y="-200%" width="400%" height="400%" style="fill:white;"/><path d=" M 262.033 52.417 L 264.535 52.417 L 264.535 52.417 L 265.43 47.368 L 265.43 47.368 L 265.468 47.175 L 265.517 46.979 L 265.574 46.781 L 265.646 46.593 L 265.733 46.391 L 265.839 46.206 L 265.952 46.031 L 266.097 45.859 L 266.254 45.709 L 266.43 45.567 L 266.634 45.436 L 266.867 45.329 L 267.123 45.242 L 267.408 45.17 L 267.713 45.118 L 268.062 45.098 L 268.062 45.098 L 268.188 45.098 L 268.26 45.098 L 268.287 45.098 L 268.287 45.098 L 268.685 42.82 L 268.685 42.82 L 268.435 42.836 L 268.197 42.865 L 267.977 42.903 L 267.761 42.969 L 267.568 43.041 L 267.381 43.131 L 267.204 43.226 L 267.033 43.333 L 266.877 43.457 L 266.725 43.583 L 266.581 43.722 L 266.441 43.863 L 266.309 44.015 L 266.176 44.186 L 266.043 44.345 L 265.917 44.522 L 266.183 42.915 L 263.69 42.915 L 262.033 52.417 L 262.033 52.417" fill="black" stroke="none"/></mask><path d=" M 262.033 52.417 L 264.535 52.417 L 264.535 52.417 L 265.43 47.368 L 265.43 47.368 L 265.468 47.175 L 265.517 46.979 L 265.574 46.781 L 265.646 46.593 L 265.733 46.391 L 265.839 46.206 L 265.952 46.031 L 266.097 45.859 L 266.254 45.709 L 266.43 45.567 L 266.634 45.436 L 266.867 45.329 L 267.123 45.242 L 267.408 45.17 L 267.713 45.118 L 268.062 45.098 L 268.062 45.098 L 268.188 45.098 L 268.26 45.098 L 268.287 45.098 L 268.287 45.098 L 268.685 42.82 L 268.685 42.82 L 268.435 42.836 L 268.197 42.865 L 267.977 42.903 L 267.761 42.969 L 267.568 43.041 L 267.381 43.131 L 267.204 43.226 L 267.033 43.333 L 266.877 43.457 L 266.725 43.583 L 266.581 43.722 L 266.441 43.863 L 266.309 44.015 L 266.176 44.186 L 266.043 44.345 L 265.917 44.522 L 266.183 42.915 L 263.69 42.915 L 262.033 52.417 L 262.033 52.417" fill="none"/><path d=" M 262.033 52.417 L 264.535 52.417 L 264.535 52.417 L 265.43 47.368 L 265.43 47.368 L 265.468 47.175 L 265.517 46.979 L 265.574 46.781 L 265.646 46.593 L 265.733 46.391 L 265.839 46.206 L 265.952 46.031 L 266.097 45.859 L 266.254 45.709 L 266.43 45.567 L 266.634 45.436 L 266.867 45.329 L 267.123 45.242 L 267.408 45.17 L 267.713 45.118 L 268.062 45.098 L 268.062 45.098 L 268.188 45.098 L 268.26 45.098 L 268.287 45.098 L 268.287 45.098 L 268.685 42.82 L 268.685 42.82 L 268.435 42.836 L 268.197 42.865 L 267.977 42.903 L 267.761 42.969 L 267.568 43.041 L 267.381 43.131 L 267.204 43.226 L 267.033 43.333 L 266.877 43.457 L 266.725 43.583 L 266.581 43.722 L 266.441 43.863 L 266.309 44.015 L 266.176 44.186 L 266.043 44.345 L 265.917 44.522 L 266.183 42.915 L 263.69 42.915 L 262.033 52.417 L 262.033 52.417" fill="none" mask="url(#_mask_HpbM8GIKe2nxrO2onVurEmkg3O40a7y8)" vector-effect="non-scaling-stroke" stroke-width="0.505" stroke="rgb(255,255,255)" stroke-linejoin="miter" stroke-linecap="butt" stroke-miterlimit="2.6131"/><path d=" M 238.542 52.417 L 241.041 52.417 L 241.085 52.417 L 241.938 47.368 L 241.971 47.175 L 242.021 46.99 L 242.059 46.8 L 242.125 46.627 L 242.192 46.449 L 242.284 46.28 L 242.39 46.118 L 242.513 45.966 L 242.655 45.833 L 242.815 45.7 L 243.014 45.595 L 243.224 45.496 L 243.468 45.412 L 243.746 45.35 L 244.048 45.303 L 244.395 45.277 L 244.419 45.277 L 244.458 45.284 L 244.5 45.296 L 244.545 45.296 L 244.588 45.303 L 244.628 45.312 L 244.651 45.322 L 244.663 45.322 L 244.671 45.284 L 244.696 45.179 L 244.732 45.015 L 244.777 44.821 L 244.837 44.594 L 244.903 44.345 L 244.982 44.096 L 245.06 43.844 L 245.13 43.677 L 245.22 43.511 L 245.312 43.345 L 245.398 43.191 L 245.474 43.059 L 245.54 42.953 L 245.584 42.888 L 245.6 42.865 L 245.591 42.865 L 245.557 42.854 L 245.512 42.848 L 245.452 42.836 L 245.386 42.836 L 245.319 42.827 L 245.258 42.82 L 245.193 42.82 L 244.917 42.836 L 244.671 42.865 L 244.44 42.903 L 244.226 42.96 L 244.022 43.032 L 243.837 43.119 L 243.667 43.212 L 243.507 43.317 L 243.359 43.432 L 243.214 43.563 L 243.083 43.697 L 242.95 43.844 L 242.815 43.998 L 242.693 44.167 L 242.56 44.345 L 242.428 44.522 L 242.745 42.915 L 240.198 42.915 L 238.542 52.417 L 238.542 52.417 L 238.542 52.417 L 238.542 52.417 Z " fill-rule="evenodd" fill="rgb(255,255,255)"/><mask id="_mask_h8N8SIP3taPSjwXJv1MRMboxjvPg00jF" x="-200%" y="-200%" width="400%" height="400%"><rect x="-200%" y="-200%" width="400%" height="400%" style="fill:white;"/><path d=" M 238.542 52.417 L 241.041 52.417 L 241.085 52.417 L 241.938 47.368 L 241.938 47.368 L 241.971 47.175 L 242.021 46.99 L 242.059 46.8 L 242.125 46.627 L 242.192 46.449 L 242.284 46.28 L 242.39 46.118 L 242.513 45.966 L 242.655 45.833 L 242.815 45.7 L 243.014 45.595 L 243.224 45.496 L 243.468 45.412 L 243.746 45.35 L 244.048 45.303 L 244.395 45.277 L 244.395 45.277 L 244.419 45.277 L 244.458 45.284 L 244.5 45.296 L 244.545 45.296 L 244.588 45.303 L 244.628 45.312 L 244.651 45.322 L 244.663 45.322 L 244.663 45.322 L 244.671 45.284 L 244.696 45.179 L 244.732 45.015 L 244.777 44.821 L 244.837 44.594 L 244.903 44.345 L 244.982 44.096 L 245.06 43.844 L 245.06 43.844 L 245.13 43.677 L 245.22 43.511 L 245.312 43.345 L 245.398 43.191 L 245.474 43.059 L 245.54 42.953 L 245.584 42.888 L 245.6 42.865 L 245.6 42.865 L 245.591 42.865 L 245.557 42.854 L 245.512 42.848 L 245.452 42.836 L 245.386 42.836 L 245.319 42.827 L 245.258 42.82 L 245.193 42.82 L 245.193 42.82 L 244.917 42.836 L 244.671 42.865 L 244.44 42.903 L 244.226 42.96 L 244.022 43.032 L 243.837 43.119 L 243.667 43.212 L 243.507 43.317 L 243.359 43.432 L 243.214 43.563 L 243.083 43.697 L 242.95 43.844 L 242.815 43.998 L 242.693 44.167 L 242.56 44.345 L 242.428 44.522 L 242.745 42.915 L 240.198 42.915 L 238.542 52.417 L 238.542 52.417" fill="black" stroke="none"/></mask><path d=" M 238.542 52.417 L 241.041 52.417 L 241.085 52.417 L 241.938 47.368 L 241.938 47.368 L 241.971 47.175 L 242.021 46.99 L 242.059 46.8 L 242.125 46.627 L 242.192 46.449 L 242.284 46.28 L 242.39 46.118 L 242.513 45.966 L 242.655 45.833 L 242.815 45.7 L 243.014 45.595 L 243.224 45.496 L 243.468 45.412 L 243.746 45.35 L 244.048 45.303 L 244.395 45.277 L 244.395 45.277 L 244.419 45.277 L 244.458 45.284 L 244.5 45.296 L 244.545 45.296 L 244.588 45.303 L 244.628 45.312 L 244.651 45.322 L 244.663 45.322 L 244.663 45.322 L 244.671 45.284 L 244.696 45.179 L 244.732 45.015 L 244.777 44.821 L 244.837 44.594 L 244.903 44.345 L 244.982 44.096 L 245.06 43.844 L 245.06 43.844 L 245.13 43.677 L 245.22 43.511 L 245.312 43.345 L 245.398 43.191 L 245.474 43.059 L 245.54 42.953 L 245.584 42.888 L 245.6 42.865 L 245.6 42.865 L 245.591 42.865 L 245.557 42.854 L 245.512 42.848 L 245.452 42.836 L 245.386 42.836 L 245.319 42.827 L 245.258 42.82 L 245.193 42.82 L 245.193 42.82 L 244.917 42.836 L 244.671 42.865 L 244.44 42.903 L 244.226 42.96 L 244.022 43.032 L 243.837 43.119 L 243.667 43.212 L 243.507 43.317 L 243.359 43.432 L 243.214 43.563 L 243.083 43.697 L 242.95 43.844 L 242.815 43.998 L 242.693 44.167 L 242.56 44.345 L 242.428 44.522 L 242.745 42.915 L 240.198 42.915 L 238.542 52.417 L 238.542 52.417" fill="none"/><path d=" M 238.542 52.417 L 241.041 52.417 L 241.085 52.417 L 241.938 47.368 L 241.938 47.368 L 241.971 47.175 L 242.021 46.99 L 242.059 46.8 L 242.125 46.627 L 242.192 46.449 L 242.284 46.28 L 242.39 46.118 L 242.513 45.966 L 242.655 45.833 L 242.815 45.7 L 243.014 45.595 L 243.224 45.496 L 243.468 45.412 L 243.746 45.35 L 244.048 45.303 L 244.395 45.277 L 244.395 45.277 L 244.419 45.277 L 244.458 45.284 L 244.5 45.296 L 244.545 45.296 L 244.588 45.303 L 244.628 45.312 L 244.651 45.322 L 244.663 45.322 L 244.663 45.322 L 244.671 45.284 L 244.696 45.179 L 244.732 45.015 L 244.777 44.821 L 244.837 44.594 L 244.903 44.345 L 244.982 44.096 L 245.06 43.844 L 245.06 43.844 L 245.13 43.677 L 245.22 43.511 L 245.312 43.345 L 245.398 43.191 L 245.474 43.059 L 245.54 42.953 L 245.584 42.888 L 245.6 42.865 L 245.6 42.865 L 245.591 42.865 L 245.557 42.854 L 245.512 42.848 L 245.452 42.836 L 245.386 42.836 L 245.319 42.827 L 245.258 42.82 L 245.193 42.82 L 245.193 42.82 L 244.917 42.836 L 244.671 42.865 L 244.44 42.903 L 244.226 42.96 L 244.022 43.032 L 243.837 43.119 L 243.667 43.212 L 243.507 43.317 L 243.359 43.432 L 243.214 43.563 L 243.083 43.697 L 242.95 43.844 L 242.815 43.998 L 242.693 44.167 L 242.56 44.345 L 242.428 44.522 L 242.745 42.915 L 240.198 42.915 L 238.542 52.417 L 238.542 52.417" fill="none" mask="url(#_mask_h8N8SIP3taPSjwXJv1MRMboxjvPg00jF)" vector-effect="non-scaling-stroke" stroke-width="0.505" stroke="rgb(255,255,255)" stroke-linejoin="miter" stroke-linecap="butt" stroke-miterlimit="2.6131"/><path d=" M 277.513 61.749 L 277.513 61.718 L 277.581 61.483 L 277.707 61.279 L 277.857 61.102 L 278.045 60.96 L 278.259 60.854 L 278.491 60.794 L 278.736 60.767 L 278.983 60.794 L 279.214 60.854 L 279.43 60.96 L 279.615 61.102 L 279.768 61.279 L 279.889 61.483 L 279.961 61.718 L 279.961 61.749 L 279.707 61.749 L 279.646 61.563 L 279.559 61.396 L 279.449 61.245 L 279.304 61.119 L 279.138 61.025 L 278.941 60.96 L 278.736 60.944 L 278.532 60.96 L 278.338 61.025 L 278.167 61.119 L 278.028 61.245 L 277.911 61.396 L 277.823 61.563 L 277.769 61.749 L 277.513 61.749 L 277.513 61.749 L 277.513 61.749 Z " fill-rule="evenodd" fill="rgb(251,178,49)"/><path d=" M 278.293 61.749 L 278.293 61.438 L 278.779 61.438 L 278.889 61.438 L 278.983 61.457 L 279.06 61.473 L 279.116 61.511 L 279.166 61.556 L 279.195 61.611 L 279.214 61.668 L 279.221 61.749 L 279.046 61.749 L 279.046 61.706 L 279.04 61.661 L 279.021 61.628 L 278.995 61.611 L 278.963 61.59 L 278.922 61.583 L 278.877 61.573 L 278.834 61.573 L 278.779 61.573 L 278.515 61.573 L 278.515 61.749 L 278.293 61.749 L 278.293 61.749 L 278.293 61.749 Z " fill-rule="evenodd" fill="rgb(251,178,49)"/><path d=" M 277.486 61.944 L 277.513 61.749 L 277.769 61.749 L 277.769 61.76 L 277.751 61.944 L 277.486 61.944 L 277.486 61.944 L 277.486 61.944 Z " fill-rule="evenodd" fill="rgb(251,178,49)"/><path d=" M 278.293 61.944 L 278.293 61.749 L 278.515 61.749 L 278.515 61.927 L 278.736 61.927 L 278.817 61.911 L 278.877 61.904 L 278.929 61.882 L 278.974 61.866 L 279.012 61.839 L 279.033 61.81 L 279.046 61.767 L 279.046 61.749 L 279.221 61.749 L 279.221 61.749 L 279.214 61.81 L 279.195 61.866 L 279.172 61.911 L 279.138 61.944 L 278.293 61.944 L 278.293 61.944 L 278.293 61.944 Z " fill-rule="evenodd" fill="rgb(251,178,49)"/><path d=" M 279.72 61.944 L 279.707 61.76 L 279.707 61.749 L 279.961 61.749 L 279.988 61.944 L 279.72 61.944 L 279.72 61.944 L 279.72 61.944 Z " fill-rule="evenodd" fill="rgb(251,178,49)"/><path d=" M 277.486 61.944 L 277.486 61.972 L 277.513 62.226 L 277.581 62.464 L 277.707 62.682 L 277.857 62.866 L 278.045 63.02 L 278.259 63.125 L 278.491 63.197 L 278.736 63.224 L 278.983 63.197 L 279.214 63.125 L 279.43 63.02 L 279.615 62.866 L 279.768 62.682 L 279.889 62.464 L 279.961 62.226 L 279.988 61.972 L 279.988 61.944 L 279.72 61.944 L 279.72 61.972 L 279.707 62.186 L 279.646 62.381 L 279.559 62.549 L 279.449 62.695 L 279.304 62.826 L 279.138 62.92 L 278.941 62.983 L 278.736 63.004 L 278.532 62.983 L 278.338 62.92 L 278.167 62.826 L 278.028 62.695 L 277.911 62.549 L 277.823 62.381 L 277.769 62.186 L 277.751 61.972 L 277.751 61.944 L 277.486 61.944 L 277.486 61.944 L 277.486 61.944 Z " fill-rule="evenodd" fill="rgb(251,178,49)"/><path d=" M 278.293 61.944 L 278.293 62.462 L 278.515 62.462 L 278.515 62.019 L 278.736 62.019 L 279.001 62.462 L 279.179 62.462 L 278.914 62.019 L 278.974 62.019 L 279.04 62.003 L 279.088 61.982 L 279.138 61.944 L 279.138 61.944 L 278.293 61.944 L 278.293 61.944 L 278.293 61.944 Z " fill-rule="evenodd" fill="rgb(251,178,49)"/><path d=" M 238.815 45.743 L 238.748 45.217 L 238.622 44.742 L 238.44 44.334 L 238.219 43.98 L 237.954 43.676 L 237.661 43.431 L 237.34 43.218 L 236.996 43.058 L 236.643 42.925 L 236.279 42.835 L 235.91 42.771 L 235.549 42.737 L 235.202 42.73 L 234.482 42.766 L 233.848 42.87 L 233.268 43.032 L 232.753 43.257 L 232.311 43.522 L 231.919 43.822 L 231.575 44.157 L 231.29 44.516 L 231.04 44.887 L 230.84 45.278 L 230.681 45.656 L 230.548 46.038 L 230.444 46.411 L 230.377 46.76 L 230.32 47.086 L 230.289 47.369 L 230.244 48.098 L 230.271 48.754 L 230.365 49.348 L 230.52 49.871 L 230.729 50.341 L 230.986 50.75 L 231.29 51.114 L 231.636 51.413 L 232.007 51.672 L 232.409 51.895 L 232.825 52.066 L 233.261 52.194 L 233.702 52.302 L 234.146 52.369 L 234.591 52.411 L 235.023 52.418 L 235.315 52.418 L 235.594 52.411 L 235.83 52.411 L 236.065 52.398 L 236.27 52.384 L 236.455 52.368 L 236.63 52.349 L 236.79 52.323 L 236.94 52.291 L 237.084 52.258 L 237.224 52.213 L 237.357 52.17 L 237.489 52.114 L 237.632 52.064 L 237.776 51.988 L 237.916 51.921 L 238.273 49.738 L 238.018 49.888 L 237.769 50.03 L 237.51 50.135 L 237.261 50.234 L 237.02 50.313 L 236.775 50.369 L 236.537 50.412 L 236.295 50.446 L 236.055 50.466 L 235.826 50.478 L 235.585 50.478 L 235.356 50.466 L 235.124 50.446 L 234.893 50.419 L 234.673 50.395 L 234.442 50.359 L 234.264 50.323 L 234.086 50.262 L 233.908 50.186 L 233.749 50.082 L 233.589 49.977 L 233.45 49.848 L 233.317 49.711 L 233.191 49.561 L 233.086 49.413 L 232.986 49.242 L 232.915 49.082 L 232.853 48.916 L 232.82 48.743 L 232.799 48.574 L 232.808 48.428 L 232.83 48.309 L 238.583 48.309 L 238.628 47.772 L 238.761 47.026 L 238.822 46.351 L 238.815 45.743 L 238.815 45.743 Z  M 236.413 46.565 L 233.169 46.565 L 233.176 46.554 L 233.169 46.554 L 233.191 46.428 L 233.224 46.241 L 233.279 46.063 L 233.34 45.89 L 233.423 45.726 L 233.501 45.575 L 233.596 45.434 L 233.704 45.301 L 233.823 45.177 L 233.932 45.072 L 234.07 44.975 L 234.203 44.896 L 234.351 44.82 L 234.505 44.77 L 234.653 44.73 L 234.813 44.703 L 234.981 44.699 L 235.141 44.715 L 235.289 44.741 L 235.433 44.78 L 235.573 44.829 L 235.71 44.903 L 235.843 44.984 L 235.96 45.072 L 236.067 45.177 L 236.153 45.301 L 236.241 45.434 L 236.302 45.586 L 236.363 45.752 L 236.401 45.93 L 236.417 46.123 L 236.431 46.337 L 236.413 46.565 L 236.413 46.565 Z " fill-rule="evenodd" fill="rgb(255,255,255)"/></g></g></svg>