<?xml version="1.0" encoding="UTF-8" standalone="no"?><!-- Generator: Gravit.io --><svg xmlns="http://www.w3.org/2000/svg" xmlns:xlink="http://www.w3.org/1999/xlink" style="isolation:isolate" viewBox="0 0 146.59 91.619" width="146.59pt" height="91.619pt"><g><path d=" M 146.59 86.733 C 146.59 89.435 144.402 91.619 141.705 91.619 L 4.885 91.619 C 2.188 91.619 0 89.436 0 86.733 L 0 4.89 C 0 2.189 2.188 0 4.885 0 L 141.705 0 C 144.403 0 146.59 2.189 146.59 4.89 L 146.59 86.733 L 146.59 86.733 Z " fill="rgb(249,249,249)"/><g><g><path d=" M 67.457 59.573 L 60.297 59.573 L 64.772 32.072 L 71.937 32.072 L 67.457 59.573 Z " fill="rgb(0,102,178)"/><path d=" M 54.274 32.072 L 47.449 50.985 L 46.637 46.914 L 46.637 46.919 L 44.23 34.548 C 44.23 34.548 43.938 32.072 40.835 32.072 L 29.548 32.072 L 29.415 32.533 C 29.415 32.533 32.868 33.251 36.908 35.68 L 43.128 59.573 L 50.587 59.573 L 61.98 32.072 L 54.274 32.072 L 54.274 32.072 Z " fill="rgb(0,102,178)"/><path d=" M 110.599 59.573 L 117.179 59.573 L 111.442 32.072 L 105.685 32.072 C 103.028 32.072 102.378 34.114 102.378 34.114 L 91.698 59.573 L 99.166 59.573 L 100.659 55.488 L 109.763 55.488 L 110.599 59.573 L 110.599 59.573 Z  M 102.719 49.848 L 106.482 39.55 L 108.598 49.848 L 102.719 49.848 L 102.719 49.848 Z " fill="rgb(0,102,178)"/><path d=" M 92.259 38.682 L 93.282 32.777 C 93.282 32.777 90.128 31.581 86.844 31.581 C 83.287 31.581 74.848 33.135 74.848 40.684 C 74.848 47.79 84.755 47.877 84.755 51.612 C 84.755 55.341 75.871 54.674 72.937 52.325 L 71.872 58.496 C 71.872 58.496 75.066 60.052 79.955 60.052 C 84.84 60.052 92.214 57.521 92.214 50.635 C 92.214 43.482 82.221 42.816 82.221 39.707 C 82.222 36.594 89.197 36.996 92.259 38.682 Z " fill="rgb(0,102,178)"/></g><path d=" M 46.638 46.919 L 44.23 34.548 C 44.23 34.548 43.938 32.072 40.835 32.072 L 29.548 32.072 L 29.415 32.533 C 29.415 32.533 34.842 33.66 40.041 37.87 C 45.019 41.896 46.638 46.919 46.638 46.919 Z " fill="rgb(249,165,51)"/></g></g></svg>